<svg xmlns="http://www.w3.org/2000/svg" viewBox="0 0 254 254">
  <defs>
    <linearGradient id="a" x1="50%" x2="50%" y1="100%" y2="0%">
      <stop stop-color="#574C4A" offset="0%"/>
      <stop stop-color="#80716D" offset="100%"/>
    </linearGradient>
    <linearGradient id="b" x1="88.778%" x2="30.149%" y1="98.342%" y2="-8.68%">
      <stop stop-color="#268D83" offset="0%"/>
      <stop stop-color="#2EA19E" offset="100%"/>
    </linearGradient>
    <radialGradient id="c" cx="41.406%" cy="42.708%" fx="41.406%" fy="42.708%">
      <stop stop-color="#DB7C7C" offset="0%"/>
      <stop stop-color="#C83737" offset="100%"/>
    </radialGradient>
    <radialGradient id="d" cx="44.271%" cy="42.708%" fx="44.271%" fy="42.708%">
      <stop stop-color="#DB7C7C" offset="0%"/>
      <stop stop-color="#C83737" offset="100%"/>
    </radialGradient>
  </defs>
  <path fill="url(#a)" d="M0 171.19V82.17C0 10.27 10.26 0 82.086 0h89.19C243.1 0 253.36 10.27 253.36 82.17v89.02c0 71.9-10.26 82.17-82.085 82.17h-89.19C10.262 253.36 0 243.09 0 171.19z"/>
  <path fill="url(#b)" d="M8.89.655C-3.56 79.583 2.954 153.48 2.954 153.48H41.88c-3.703-19.704-16.99-109.724-5.937-110.02 5.924.94 32.99 76.37 32.99 76.37s5.96-.742 11.958-.742c6 0 11.96.742 11.96.742s27.07-75.43 32.99-76.37c11.06.296-2.23 90.316-5.93 110.02h38.93S165.355 79.583 152.9.655h-36.04C110 .735 83.9 46.51 80.9 46.51S51.797.74 44.937.66H8.89z" transform="translate(45.79 47.1)"/>
  <path fill="url(#c)" d="M73.214 144.267c0 5.088-4.125 9.213-9.214 9.213-5.088 0-9.213-4.125-9.213-9.213 0-5.09 4.125-9.214 9.213-9.214 5.09 0 9.214 4.125 9.214 9.214z" transform="translate(45.79 47.1)"/>
  <path fill="url(#d)" d="M106.995 144.267c0 5.088-4.125 9.213-9.213 9.213-5.088 0-9.213-4.125-9.213-9.213 0-5.09 4.12-9.214 9.21-9.214s9.21 4.125 9.21 9.214z" transform="translate(45.79 47.1)"/>
  <path d="M196.846 50.364c5.618 38.026 6.936 74.52 6.833 101.705-.11 27.8-1.7 45.87-1.7 45.87h-32.77l-3.52 2.64h38.92s6.512-73.9-5.94-152.83l-1.837 2.61zm-103.154-.96c10.226 11.376 27.913 41.567 30.35 41.567-6.484-8.29-22.41-34.74-30.35-41.56zM79.094 87.92c-11.054.297 2.234 90.317 5.938 110.02H51.05l-2.307 2.64H87.67c-3.683-19.604-16.854-108.825-6.1-110.02-1.002-1.505-1.866-2.544-2.474-2.64zm89.896 0c-5.923.94-32.99 76.37-32.99 76.37s-5.96-.74-11.958-.74c-3.55 0-6.604.217-8.67.41l-.65 2.97s5.96-.742 11.96-.742c5.997 0 11.958.742 11.958.742s26.862-74.936 32.907-76.37c-.65-1.65-1.456-2.61-2.557-2.64z" opacity=".1"/>
  <path fill="#FFF" d="M54.68 47.755c-12.45 78.928-5.936 152.825-5.936 152.825l2.292-2.577c-1.173-17.434-4.306-80.48 6.285-147.61h36.05c.767.01 1.79.636 2.97 1.65-2.36-2.625-4.32-4.273-5.61-4.288H54.69zm107.96 0c-6.86.08-32.96 45.856-35.96 45.856 1.224 1.57 2.217 2.64 2.64 2.64 3 0 29.1-45.77 35.96-45.85h31.805l1.596-2.64h-36.04zM84.207 93.198c8.755 13.148 30.515 73.732 30.515 73.732l.637-2.954c-5.38-14.732-25.85-69.96-30.99-70.778-.06.002-.11-.006-.17 0zm90.062 0c5.87 14.977-5.25 89.65-8.58 107.382l3.53-2.757c4.51-26.446 15.36-104.347 5.04-104.625z" opacity=".3"/>
</svg>
