<svg xmlns="http://www.w3.org/2000/svg" fill-rule="evenodd" stroke-miterlimit="1.414" viewBox="0 0 690 560" clip-rule="evenodd" stroke-linejoin="round">
  <path fill-rule="nonzero" d="M40.95 419.54c-17.24-.243-28.432 5.4-33.662 16.918-7.71 16.977-.835 29.806 23.683 44.125 13.78 8.043 19.88 14.972 19.88 22.56 0 15.657-18.94 21.217-38.48 11.305-3.97-2.014-7.37-3.67-7.58-3.675-.69 4.435-.38 15.083-.38 15.083s5.98 2.493 14.98 4.287c22.35 4.454 42.65-6.03 44.56-23.02 1.78-15.803-4.02-24.196-25.83-37.31-14.6-8.78-21.03-15.158-20.21-22.713 2.27-20.79 27.94-17.866 42.09-10.03l.05-13.984s-7.87-3.39-19.09-3.547h-.01zm85.9.075c-1.036.01-2.103.044-3.165.102-21.18 1.153-35.476 10.493-43.894 28.71-7.14 16.483-6.35 38.047.13 54.563 7.48 16.195 19.64 24.748 39.84 28.02 4.25.69 7.16 3.087 15.42 12.76l10.19 11.944h18.53l-12.33-12.404c-6.78-6.81-12.32-12.77-12.32-13.24 0-.47 2.6-1.63 5.77-2.58 10.42-3.12 18.99-11.14 25.06-23.43 4.86-9.83 5.61-12.86 6.25-25.16 1.92-36.66-17.36-59.57-49.46-59.28l-.02-.005zm189.456.128c-17.24-.242-28.456 5.402-33.687 16.92-7.71 16.976-.81 29.805 23.7 44.124 13.77 8.043 19.85 14.946 19.85 22.534 0 15.66-18.92 21.25-38.46 11.34-3.97-2.01-7.4-3.67-7.61-3.67-.7 4.44-.36 15.09-.36 15.09s5.95 2.47 14.95 4.27c22.35 4.46 42.64-6.03 44.56-23.02 1.78-15.8-4.02-24.19-25.83-37.31-14.6-8.78-21.04-15.13-20.21-22.68 2.26-20.79 27.93-17.86 42.08-10.03l.05-13.98s-7.85-3.39-19.07-3.54l.03-.04zM193.15 420.89v107.85h56.91v-12.762h-43.433v-95.086H193.15v-.002zm-67.295 10.184c22.514 0 35.336 13.77 36.953 39.684 1.34 21.502-5.874 37.75-19.727 44.456-8.96 4.34-22.06 5.237-30.62 2.092-8.78-3.227-17.33-12.375-21.23-22.738-4.27-11.326-3.65-32.253 1.23-41.65 7.81-15.035 18.22-21.844 33.41-21.844h-.01zm455.688 18.86c-2.63.04-5.398.36-8.243.97-17.95 4.71-28.09 21.88-27.41 39.58.013 14.852 2.892 22.19 10.03 29.936 14.617 12.05 27.903 12.958 45.835 6.56 3.094-1.33 6.38-2.81 6.38-2.81l-.025-12.02-6.355 3.344c-14.47 6.275-25.39 6.29-34.12-1.148-5.6-5.71-7.994-12.41-9.188-20.212H612.6v-10.336c0-20.946-12.643-34.156-31.057-33.865zm-197.78.178c-2.632.04-5.374.36-8.22.97-17.95 4.71-28.113 21.856-27.433 39.556.01 14.85 2.916 22.216 10.055 29.96 14.616 12.052 27.876 12.96 45.81 6.56 3.092-1.328 6.38-2.834 6.38-2.834V512.33l-6.38 3.343c-14.472 6.275-25.39 6.29-34.122-1.148-5.6-5.71-7.993-12.435-9.187-20.238h54.18v-10.31c0-20.946-12.67-34.157-31.084-33.865zm276.714.56c-7.8 0-13.75 3.13-17.71 9.316l-3.14 4.925-.025-6.354-.026-6.38H626.1v76.4h13.475v-24.39c0-22.33.285-24.97 3.37-31.09 4.24-8.41 11.67-12.56 18.807-10.52l4.773 1.38v-13.29h-6.048zm-197.78.18c-7.8 0-13.726 3.13-17.687 9.315l-3.164 4.925-.026-6.38-.025-6.354H428.32v76.382h13.475v-24.4c0-22.323.285-24.968 3.368-31.083 4.24-8.412 11.67-12.563 18.81-10.516l4.797 1.38v-13.27h-6.074v.01zm10.487 1.367c9.02 25.43 18.762 51.38 28.634 76.49 4.275.04 8.562.03 12.837.02l15.082-37.82 15.338-38.68H531.78s-5.87 15.33-11.996 32.52l-11.127 29-10.692-29.21-10.872-32.35h-13.91v.03zm107.568 9.27c4.024.01 7.996 1.29 11.357 3.88 6.81 5.23 7.96 18.12 7.96 18.12h-40.45s2.04-13.1 9.44-18.27c3.56-2.5 7.66-3.74 11.69-3.73zm-197.78.18c4.023.01 7.994 1.3 11.355 3.88 6.814 5.23 7.962 18.09 7.962 18.09h-40.43s2.04-13.07 9.44-18.25c3.56-2.49 7.64-3.74 11.66-3.73l.01.01z"/>
  <path fill="#231f1f" fill-rule="nonzero" d="M239.75 381.802c0-.563-.156-.962-.467-1.213-.355-.3-.962-.44-1.802-.44h-1.21v3.32h1.47c1.35 0 2.02-.57 2.02-1.68m1.88 6.93h-1.65l-1.06-2.34c-.53-1.17-1.11-1.76-1.74-1.76h-.9v4.09h-1.37v-9.75h2.76c1.22 0 2.13.27 2.77.82.53.47.8 1.08.8 1.84 0 .66-.22 1.24-.65 1.7-.43.47-1.05.79-1.83.95v.04c.55.12 1.08.72 1.62 1.79l1.27 2.6-.02.02zm3.04-4.78c0-1.94-.65-3.54-1.96-4.83s-2.9-1.93-4.79-1.93c-1.95 0-3.56.65-4.84 1.95-1.29 1.29-1.93 2.9-1.93 4.8 0 1.94.67 3.57 2 4.86 1.31 1.28 2.91 1.92 4.79 1.92 1.87 0 3.47-.65 4.78-1.95 1.32-1.3 1.98-2.91 1.98-4.84m.92-.05c0 2.15-.74 3.95-2.22 5.41-1.48 1.46-3.31 2.19-5.48 2.19-2.19 0-4.02-.71-5.46-2.13-1.45-1.43-2.18-3.23-2.18-5.42 0-2.14.74-3.95 2.21-5.42 1.47-1.46 3.3-2.2 5.49-2.2 2.15 0 3.95.7 5.41 2.11 1.5 1.44 2.24 3.25 2.24 5.45M47.2 409.31h-4.46v-25.6c0-2.016.12-4.485.363-7.39H43c-.425 1.7-.806 2.93-1.144 3.69l-12.996 29.3h-2.19l-13.03-29.08c-.37-.815-.75-2.123-1.14-3.91h-.105c.14 1.528.216 4.005.216 7.44v25.55H8.3v-38.12h5.908L25.9 397.776c.885 2 1.465 3.526 1.734 4.574h.182c.762-2.088 1.37-3.647 1.836-4.678L41.59 371.19h5.604m13.774 10.906v27.22H56.61v-27.22h4.358zm.745-9.754c0 .797-.286 1.464-.84 2.018-.554.546-1.24.823-2.036.823-.78 0-1.446-.268-2.01-.797-.554-.528-.83-1.212-.83-2.044 0-.806.276-1.473.83-2.01.564-.546 1.23-.814 2.01-.814.797 0 1.482.268 2.036.814.554.537.84 1.204.84 2.01m26.422 35.725c-2.088 1.274-4.583 1.915-7.468 1.915-3.898 0-7.042-1.29-9.442-3.88-2.34-2.522-3.508-5.762-3.508-9.73 0-4.47 1.282-8.073 3.846-10.82 2.555-2.745 6.003-4.123 10.326-4.123 2.37 0 4.47.46 6.29 1.38v4.46c-2.02-1.41-4.19-2.13-6.49-2.13-2.76 0-5.02.96-6.78 2.89-1.83 1.98-2.74 4.62-2.74 7.92 0 3.17.83 5.67 2.51 7.52 1.67 1.84 3.91 2.76 6.73 2.76 2.37 0 4.61-.78 6.7-2.34m20.79-17.41c-.76-.59-1.87-.88-3.33-.88-1.77 0-3.26.8-4.47 2.39-1.37 1.78-2.05 4.26-2.05 7.41v13.88H94.7v-27.22h4.368v5.61h.1c.635-1.99 1.62-3.52 2.956-4.6 1.24-.99 2.626-1.49 4.17-1.49 1.15 0 2.025.13 2.606.37m24.29 13.77c0-3.49-.79-6.15-2.362-7.98-1.523-1.75-3.654-2.64-6.41-2.64-2.71 0-4.876.89-6.504 2.66-1.725 1.89-2.58 4.58-2.58 8.05 0 3.26.82 5.81 2.47 7.64 1.652 1.84 3.852 2.75 6.615 2.75 2.88 0 5.06-.93 6.57-2.79 1.47-1.81 2.21-4.38 2.21-7.71m4.47-.16c0 4.34-1.23 7.82-3.67 10.45-2.45 2.62-5.75 3.93-9.89 3.93-4.1 0-7.34-1.32-9.74-3.94-2.34-2.54-3.51-5.88-3.51-10.02 0-4.74 1.33-8.39 3.99-10.98 2.46-2.41 5.76-3.62 9.88-3.62 4.06 0 7.23 1.26 9.5 3.78 2.28 2.51 3.42 5.98 3.42 10.39m21.61 6.43c0 2.23-.83 4.08-2.51 5.55-1.82 1.6-4.32 2.4-7.47 2.4-2.6 0-4.84-.56-6.75-1.66v-4.67c2.12 1.74 4.48 2.6 7.07 2.6 3.45 0 5.18-1.26 5.18-3.8 0-1.07-.39-1.94-1.15-2.63-.76-.69-2.24-1.52-4.46-2.5-2.29-1-3.91-2.02-4.87-3.09-1.15-1.25-1.72-2.9-1.72-4.92 0-2.27.89-4.14 2.69-5.64 1.78-1.5 4.09-2.25 6.91-2.25 2.16 0 4.1.43 5.82 1.28v4.38c-1.79-1.29-3.85-1.94-6.17-1.94-1.46 0-2.62.35-3.49 1.06-.87.71-1.31 1.62-1.31 2.74 0 1.2.36 2.15 1.09 2.81.66.62 2.02 1.38 4.1 2.26 2.32.98 3.99 1.98 5.02 3.01 1.32 1.32 1.99 2.98 1.99 5m26.64-6.28c0-3.49-.79-6.15-2.37-7.98-1.52-1.75-3.66-2.64-6.41-2.64-2.71 0-4.88.89-6.51 2.66-1.72 1.89-2.58 4.58-2.58 8.05 0 3.26.82 5.81 2.47 7.64 1.65 1.83 3.85 2.75 6.61 2.75 2.87 0 5.06-.93 6.56-2.79 1.47-1.81 2.21-4.37 2.21-7.71m4.47-.16c0 4.34-1.23 7.82-3.68 10.45-2.44 2.61-5.74 3.93-9.89 3.93-4.09 0-7.33-1.32-9.73-3.94-2.34-2.54-3.51-5.88-3.51-10.026 0-4.74 1.33-8.39 3.99-10.98 2.46-2.41 5.75-3.61 9.88-3.61 4.07 0 7.23 1.25 9.51 3.77 2.28 2.514 3.42 5.98 3.42 10.4m19.22-22.75c-.85-.47-1.82-.72-2.9-.72-3.04 0-4.56 1.93-4.56 5.77v4.2h6.37v3.7h-6.37v23.52h-4.36V385.7h-4.62V382h4.62v-4.41c0-2.99.93-5.34 2.79-7.05 1.6-1.46 3.56-2.2 5.88-2.2 1.34 0 2.4.16 3.16.48M226.8 409c-1.03.59-2.39.873-4.095.873-4.75 0-7.12-2.663-7.12-8.02v-16.1h-4.68v-3.7h4.68v-6.642c1.373-.44 2.83-.91 4.353-1.4v8.05h6.86v3.7h-6.86v15.37c0 1.83.31 3.12.933 3.89.62.77 1.66 1.16 3.11 1.16 1.08 0 2.02-.29 2.82-.88m453.23 50.06c0-.56-.16-.96-.47-1.21-.35-.3-.96-.44-1.8-.44h-1.21v3.33h1.47c1.35 0 2.02-.57 2.02-1.68m1.88 6.93h-1.65l-1.06-2.34c-.54-1.17-1.12-1.76-1.74-1.76h-.9v4.1h-1.37v-9.76h2.76c1.22 0 2.13.28 2.77.83.53.47.8 1.09.8 1.84 0 .67-.21 1.24-.65 1.71-.43.48-1.04.79-1.82.95v.04c.55.13 1.08.72 1.62 1.8l1.28 2.6-.03-.01zm3.04-4.78c0-1.93-.65-3.53-1.96-4.82-1.31-1.29-2.9-1.93-4.79-1.93-1.95 0-3.56.65-4.84 1.95-1.29 1.3-1.93 2.9-1.93 4.81 0 1.94.67 3.57 2 4.87 1.31 1.28 2.9 1.93 4.78 1.93 1.88 0 3.47-.65 4.79-1.95 1.32-1.29 1.98-2.91 1.98-4.84m.92-.04c0 2.15-.74 3.95-2.23 5.42-1.48 1.47-3.31 2.19-5.48 2.19-2.19 0-4.02-.71-5.47-2.13-1.44-1.43-2.17-3.23-2.17-5.41 0-2.14.74-3.94 2.21-5.41 1.47-1.46 3.3-2.2 5.49-2.2 2.15 0 3.95.7 5.41 2.11 1.5 1.44 2.25 3.26 2.25 5.45"/>
  <path fill="url(#a)" fill-rule="nonzero" d="M480.924 194.442l-79.407 25.896-69.034 30.492-19.344 5.11c-4.91 4.66-10.11 9.394-15.65 14.216-6.09 5.3-11.82 10.104-16.18 13.576-4.86 3.866-12.07 11.022-15.75 15.61-5.49 6.826-9.78 14.106-11.62 19.704-3.32 10.072-1.71 20.273 4.69 29.688 8.18 12.026 24.45 24.246 43.37 32.564 9.65 4.242 25.94 9.713 38.15 12.797 20.35 5.14 59.69 10.724 81.35 11.553 4.39.168 10.24.153 10.51-.025.47-.314 3.84-6.7 7.76-14.694 13.31-27.2 22.95-52.7 28.13-74.47 3.14-13.19 5.58-30.77 7.17-51.62.44-5.84.6-25.32.26-31.94-.56-10.77-1.51-19.55-3.03-28.17-.23-1.27-.3-2.38-.19-2.48.22-.19.97-.43 10.72-3.27l-1.95-4.56.02-.01zm-18.148 10.65c.722 0 2.64 18.402 3.14 30.077.106 2.48.084 4.07-.063 4.07-.474 0-10.17-5.7-17.04-10.01-6.003-3.77-17.392-11.34-19.203-12.76-.572-.45-.51-.47 4.395-2.16 8.35-2.88 28.14-9.22 28.77-9.22v-.01zm-40.45 13.274c.513-.002 1.91.77 5.212 2.838 12.385 7.76 29.157 17.094 36.344 20.232 2.228.972 2.482.595-2.65 4.08-10.94 7.43-24.542 14.735-41.242 22.154-2.91 1.292-5.376 2.348-5.475 2.348-.1 0 .225-1.476.716-3.29 4.05-14.964 6.33-30.07 6.4-42.184.04-5.99.04-6.022.61-6.166.03-.006.07-.012.1-.012h-.01zM414 221.543c.358.36.1 13.785-.34 17.443-1.05 8.777-2.767 16.893-5.513 26.122-.655 2.205-1.27 4.106-1.368 4.22-.24.275-8.45-7.723-11.18-10.888-4.67-5.41-8.35-10.782-11.04-16.076-1.37-2.69-3.55-8.002-3.34-8.15.91-.67 32.55-12.898 32.77-12.67zm-39.22 15.46c.074.006.13.027.164.062.118.13.536 1.105.93 2.172 1.91 5.194 6.21 12.91 9.945 17.846 4.07 5.388 9.39 11.13 13.83 14.945 1.43 1.224 2.76 2.367 2.95 2.536.38.338.5.28-9.29 3.994-11.35 4.303-23.7 8.613-37.89 13.198-5.41 1.748-9.98 3.225-10.16 3.29-.54.2-.37-.13 1.2-2.598 7.05-11.006 17.73-32.534 23.7-47.76 1.03-2.64 2.02-5.286 2.2-5.877.26-.86.51-1.16 1.33-1.53.45-.2.84-.3 1.06-.27h-.01zm-12.018 4.96c.16.14-2.884 6.567-5.877 12.408-5.807 11.33-12.21 22.48-20.71 36.08-1.466 2.35-2.817 4.5-3 4.76-.3.44-.426.3-1.356-1.55-2.04-4.04-3.74-9.15-4.62-13.9-.87-4.7-.72-12.83.33-17.88.78-3.75.75-3.66 2.51-4.57 7.63-3.91 32.48-15.55 32.73-15.33h-.01zm103.518 4.206v2.55c-.012 13.39-1.442 31.72-3.516 45.09-.364 2.34-.68 4.28-.703 4.31-.02.02-1.71-.48-3.75-1.11-9-2.8-18.77-6.98-27.58-11.81-5.83-3.2-14.27-8.38-14.04-8.62.07-.07 2.55-1.38 5.53-2.93 11.79-6.12 23.04-12.71 32.83-19.25 3.67-2.46 9.17-6.43 10.39-7.5l.87-.75h-.01zm-148.842 17.74c.245-.01.183.45-.2 2.66-.267 1.53-.568 4.44-.678 6.44-.483 8.78.94 15.25 5.3 24.11 1.21 2.46 2.16 4.52 2.11 4.56-.437.36-40.13 11.98-52.608 15.39-3.7 1.01-6.932 1.91-7.196 1.99-.433.13-.47.03-.314-.98 1.367-8.8 8.084-20.37 17.47-30.07 6.24-6.45 11.234-10.27 19.728-15.12 6.096-3.48 15.564-8.7 16.263-8.97.048-.02.09-.03.126-.03l-.01-.01zm93.623 16.77c.04-.05 1.51.74 3.27 1.75 12.82 7.41 30.71 14.37 45.97 17.86l1.38.32-1.89 1.05c-7.97 4.42-34.21 15.34-61.01 25.39-3.91 1.47-7.73 2.91-8.47 3.2-.74.3-1.35.5-1.35.44s1.11-2.19 2.46-4.73c7.53-14.07 15.04-31.17 18.89-43.03.39-1.21.74-2.23.78-2.27v-.02zm-9.54 3.12c.04.04-.43 1.3-1.04 2.79-5.23 12.65-12.08 26.45-20.82 41.94-2.22 3.95-4.1 7.16-4.17 7.16-.07-.01-1.88-1.08-4.02-2.39-12.73-7.79-23.99-17.38-31.38-26.71l-1.05-1.31 5.49-1.51c19.58-5.36 36.18-11.09 52.69-18.21 2.34-1.01 4.28-1.8 4.32-1.76v-.01zm59.29 20.7c.03 0 .04.03.04.05 0 1.33-3.02 13.68-5.55 22.62-2.11 7.49-3.89 13.36-7.18 23.74-1.45 4.59-2.7 8.33-2.77 8.31-.07-.02-.42-.09-.78-.15-17.83-3.23-33.8-7.73-48.76-13.74-4.18-1.68-10.23-4.36-10.55-4.67-.11-.1 3.51-1.81 8.03-3.78 27.33-11.92 55.64-25.5 65.32-31.32 1.17-.7 2.03-1.11 2.23-1.07l-.01-.02zm-136.86 4.68c.15.14-7.5 11.08-18.17 26.02-3.71 5.19-8.07 11.31-9.68 13.6-1.61 2.28-4.05 5.91-5.43 8.05l-2.52 3.89-2.69-2.26c-3.15-2.65-8.67-8.27-11.17-11.39-5.15-6.42-8.64-13.18-10.02-19.39-.63-2.87-.65-4.33-.05-4.51.87-.27 16.91-4.03 31.94-7.52 8.35-1.94 18-4.2 21.46-5.04 3.46-.838 6.32-1.49 6.36-1.46l.01-.026zm7.69 2.94l1.94 2.16c8.65 9.63 17.44 16.82 28.17 23.02 1.89 1.09 3.34 2.04 3.22 2.12-.45.27-37.1 13.31-54.05 19.22-9.56 3.33-17.42 6.05-17.46 6.04-.04-.01-.59-.36-1.19-.79l-1.1-.79 1.74-2.5c5.62-8.15 12.69-17.11 28.15-35.71l10.6-12.76.01-.01zm47.9 34.23c.04-.05 2.72.9 5.97 2.11 7.82 2.92 13.96 4.83 22.26 6.9 10.2 2.55 24.93 5.1 33.66 5.84 1.35.11 2.03.26 1.81.4-.4.26-9.24 3.21-15.73 5.25-10.31 3.24-41.82 12.55-67.51 19.94-4.76 1.37-8.83 2.53-9.05 2.57-.57.12-2.58-.41-2.58-.68 0-.13 1.44-1.95 3.19-4.05 8.64-10.33 17.22-21.867 24.38-32.78 1.97-2.98 3.6-5.47 3.65-5.527h-.01zm-10.61.3c.07.07-4.18 6.89-11.67 18.69-3.16 4.98-6.75 10.65-7.97 12.59-1.23 1.95-3.03 4.91-3.99 6.59l-1.76 3.06-.89-.24c-2.15-.59-17.32-5.94-21.33-7.54-4.97-1.97-10.14-4.35-13.97-6.42-4.77-2.58-10.82-6.4-10.35-6.55.13-.04 8.35-2.29 18.24-4.99 26.31-7.17 40.86-11.288 50.4-14.26 1.78-.55 3.27-.97 3.3-.94l.02-.01zm74.71 17.51c.06-.01.08-.01.09 0 .25.62-9.49 27.59-13.05 36.14-.8 1.91-1.09 2.38-1.51 2.36-1-.04-15.12-2.02-23.67-3.31-14.96-2.28-40.02-6.65-46.34-8.09l-1.47-.33 8.97-2.02c19.22-4.33 28.45-6.65 37.81-9.52 11.81-3.61 23.5-8.13 35.32-13.62 1.87-.87 3.46-1.53 3.85-1.62l.03-.01z"/>
  <path fill="url(#b)" fill-rule="nonzero" d="M399.088 9.385c-1.328-.155-22.64 7.524-36.33 13.086-18.554 7.54-32.96 14.76-41.845 21-3.308 2.32-7.468 6.5-8.076 8.1-.227.6-.334 1.3-.338 2.02l8.06 7.62 19.13 6.1 45.56 8.14 52.08 8.96.53-4.47-.46-.07-6.86-1.08-1.39-2.45c-7.08-12.48-14.9-27.94-19.44-38.4-3.52-8.1-6.89-17.43-8.77-24.18-1.11-4-1.23-4.27-1.85-4.34l-.01-.02zm-1.004 3.09c.053-.01.08-.01.087 0 .05.05.29 1.725.53 3.717 1.03 8.388 2.9 16.524 5.84 25.28 2.22 6.598 2.25 6.21-.39 5.475-6.12-1.71-33.56-6.42-53.41-9.168-3.2-.45-5.86-.84-5.9-.89-.25-.25 14.31-7.89 20.77-10.89 8.28-3.85 30.84-13.24 32.47-13.54l.02.01zm-57.832 26.862l2.323.79c12.738 4.34 44.682 10.44 62.34 11.907 1.986.165 3.666.342 3.714.388.04.047-1.65.95-3.76 2.01-8.52 4.266-17.89 9.467-24.38 13.526-1.91 1.19-3.66 2.152-3.88 2.134-.23-.018-1.49-.22-2.8-.44l-2.4-.383-6.03-5.85c-10.59-10.25-18.85-18.17-22.05-21.17l-3.1-2.91.01-.01zm-2.36 1.884l8.44 10.54c4.645 5.8 9.3 11.55 10.334 12.79 1.034 1.24 1.833 2.29 1.784 2.33-.24.18-12.232-2.16-18.587-3.61-6.524-1.49-9.222-2.21-13.26-3.5l-3.293-1.06.02-.82c.04-4.05 5.147-10.02 13.8-16.12l.77-.53v.01zm71.87 14.36c.254.02.52.54 1.27 2.17 2.046 4.49 8.417 16.64 9.958 18.99.507.78 1.312.83-7.146-.54-20.324-3.28-26.9-4.38-26.9-4.51 0-.08.61-.47 1.356-.89 6.294-3.5 12.645-7.9 18.298-12.67 1.352-1.14 2.65-2.22 2.89-2.42.097-.08.19-.13.275-.12z"/>
  <path fill="url(#c)" fill-rule="nonzero" d="M313.198 50.758s-1.32 2.09-.075 5.2c.774 1.923 3.084 4.233 5.628 6.68 0 0 26.67 26.023 29.94 29.79 14.78 17.06 21.2 33.847 21.8 57.03.39 14.88-2.48 27.955-9.45 43.153-12.48 27.24-38.8 57.29-79.44 90.69l5.97-1.97c3.84-2.87 9.05-5.94 21.33-12.66 28.29-15.47 60.06-29.7 99.07-44.37 56.14-21.1 148.49-45.85 201.04-53.9l5.48-.84-.84-1.32c-4.8-7.46-8.08-12.07-12.03-16.95-11.52-14.25-25.47-25.88-42.57-35.45-23.49-13.15-53.95-23.37-92.47-31.03-7.28-1.44-23.22-4.18-36.2-6.2-27.48-4.28-45.21-7.17-64.8-10.58-7.02-1.21-17.5-2.98-24.46-4.48-3.62-.78-10.52-2.41-15.87-4.25-4.42-1.74-10.64-3.42-11.974-8.5l-.03-.02zm15.46 15.007c.036-.033 1.038.276 2.26.69 2.25.765 5.22 1.66 8.675 2.626 2.418.68 5.082 1.39 7.908 2.11 3.61.93 6.59 1.72 6.63 1.76.4.45 6.46 19.8 8.53 27.22.79 2.84 1.39 5.2 1.33 5.25-.06.06-.73-.98-1.48-2.31-7.01-12.33-18.12-24.87-30.96-34.96-1.6-1.25-2.9-2.32-2.9-2.37h.02zm29.55 8.163c.308-.02 1.64.202 3.227.552 10.224 2.262 28.482 5.787 40.224 7.762 1.95.33 3.56.684 3.56.792 0 .107-.73.57-1.62 1.016-1.97.99-9.94 5.763-12.61 7.548-6.66 4.456-12.64 9.226-17.01 13.563-1.75 1.75-3.22 3.17-3.27 3.17-.05 0-.36-1.01-.68-2.26-2.18-8.36-6.69-20.69-10.72-29.37-.65-1.4-1.18-2.63-1.18-2.74 0-.01.02-.02.06-.02l-.02.01zm51.977 9.884c.343.114.99 2.132 2.136 6.668 2.2 8.686 3.22 18.44 2.88 27.465-.09 2.508-.25 4.842-.35 5.184l-.19.62-3.1-1.01c-6.39-2.05-16.84-5.13-25.79-7.6-5.08-1.41-9.25-2.67-9.25-2.79 0-.37 7.42-7.8 10.61-10.62 6.1-5.39 22.49-18.15 23.07-17.95v.02zm4.132.59c.18-.172 24.834 4.097 36.042 6.242 8.34 1.598 20.43 4.128 21.15 4.432.35.147-.9.828-4.92 2.638-15.87 7.156-27.63 13.542-39.31 21.362-3.08 2.06-5.64 3.742-5.69 3.742-.06 0-.11-1.72-.11-3.818-.01-11.395-2.29-22.896-6.46-32.614-.45-1.046-.79-1.942-.75-1.984h.01zm63.744 12.61c.2.19-.61 5.05-1.32 7.923-2.18 8.938-7.96 22.204-15.09 34.674-1.26 2.19-2.38 4.02-2.51 4.06-.13.04-1.75-.82-3.6-1.9-6.98-4.08-14.87-7.94-23.55-11.52-2.42-1-4.48-1.89-4.58-1.99-.39-.37 18.88-13.13 29.1-19.27 8.17-4.9 21.33-12.23 21.56-12h.02zm4.56.715c.56 0 11.49 2.982 17.15 4.674 14.08 4.22 30.33 10.15 40.87 14.94l4.38 1.99-3.09.72c-25.79 5.93-47.88 12.77-69.17 21.41-1.77.72-3.31 1.31-3.42 1.31-.11 0 .46-1.36 1.24-3.03 6.4-13.59 10.53-27.86 11.61-39.97.1-1.1.3-1.99.44-1.99l.01-.02zM373.95 122.71c.174-.167 8.496 1.783 13.032 3.055 6.82 1.914 21.335 6.774 21.347 7.146 0 .08-1.61 1.47-3.56 3.11-7.85 6.57-15.42 13.44-24.5 22.2-2.69 2.6-4.98 4.71-5.09 4.71-.12 0-.17-.38-.11-.84 1.36-10.08 1.07-23.03-.83-36.2-.25-1.67-.39-3.09-.33-3.15l.01-.01zm175.236.17c.126.125-3.864 6.353-6.342 9.91-3.623 5.19-8.867 11.995-20.825 27.03-6.28 7.897-13.36 16.837-15.75 19.855-2.39 3.024-4.39 5.502-4.45 5.502-.06 0-.83-1.08-1.71-2.4-6.74-10.068-14.74-18.906-24.28-26.85-1.79-1.482-3.8-3.102-4.46-3.6-.67-.498-1.22-.954-1.22-1.026-.01-.16 10.18-4.53 17.96-7.69 13.53-5.51 32.04-12.1 45.89-16.35 7.3-2.24 15.06-4.47 15.16-4.35l.01-.02zm4.596 1.205c.215-.042 1.667.66 3.413 1.656 14.58 8.36 28.87 19.09 40.11 30.12 3.196 3.14 11.014 11.28 10.9 11.34-.03.02-2.73.24-6.006.48-25.28 1.9-57.59 7.28-88.69 14.76-2.11.51-3.94.93-4.06.93-.12 0 2.2-2.32 5.14-5.15 18.26-17.56 26.59-28.65 36.4-48.46 1.46-2.95 2.69-5.49 2.75-5.65 0 0 .01 0 .02-.01zm-133.58 13.685c.834.187 8.622 3.817 14.502 6.757 5.376 2.694 13.518 7.032 13.926 7.41.05.048-2.82 1.548-6.38 3.33-11.28 5.64-20.933 10.968-31.02 17.13-2.873 1.758-5.285 3.204-5.363 3.204-.252 0-.156-.21 1.452-3.16 5.37-9.83 9.7-21.58 12.19-33.05.22-1.02.48-1.65.67-1.61h.02zm-7.848 1.41c.162.163-1.86 7.59-3.138 11.557-2.46 7.608-6.612 17.166-10.602 24.366-.936 1.692-2.376 4.164-3.192 5.502l-1.482 2.424-3.36-3.26c-3.913-3.79-7.1-6.15-11.167-8.24-1.602-.83-2.9-1.59-2.904-1.7-.01-.49 10.23-9.81 18.13-16.49 5.66-4.78 17.56-14.31 17.7-14.17l.01-.01zm47.694 19.62l2.92 1.897c6.71 4.362 14.66 10.224 20.72 15.27 3.39 2.832 9.99 8.742 11.35 10.17l.723.768-4.86 1.356c-27.49 7.63-48.72 14.42-73.5 23.52-2.75 1.02-5.12 1.85-5.28 1.85-.34 0-.68.32 5.5-5.37 15.85-14.58 29.85-30.65 40.31-46.29l2.11-3.16h.02zm-12.54 3.145c.145.144-8.123 11.724-13.037 18.258-5.88 7.824-16.34 20.904-23.55 29.412-3.01 3.558-5.59 6.51-5.73 6.558-.15.054-.25-.816-.25-2.196-.01-7.26-1.85-15.024-5.1-21.6-1.37-2.772-1.6-3.444-1.32-3.702 1.14-1.02 18.62-10.992 29.64-16.902 7.58-4.056 19.2-9.96 19.34-9.816l.01-.012zm-75.803 18.57c.15 0 1.55.708 3.114 1.572 3.83 2.124 7.26 4.452 10.29 6.984.11.11-1.46 1.38-3.49 2.85-5.69 4.11-14.35 10.65-19.37 14.64-5.29 4.21-5.47 4.34-4.87 3.43 3.96-6.06 5.95-9.49 8.03-13.88 1.85-3.9 3.69-8.52 5.01-12.54.54-1.67 1.11-3.04 1.26-3.04h.01zm20.19 15.852c.27-.036.66.474 2.286 2.904 3.42 5.12 6.04 11.93 6.72 17.48l.14 1.19-8.19 3.18c-14.72 5.71-28.27 11.35-37.42 15.54-2.56 1.18-7.08 3.34-10.04 4.82-2.95 1.48-5.36 2.64-5.36 2.58 0-.06 1.86-1.46 4.12-3.1 17.97-13.03 33.45-27.31 45.12-41.59 1.25-1.52 2.38-2.85 2.52-2.94.04-.02.07-.03.12-.03h.02zm-9.318 2.31c.233.24-6.63 8.004-11.257 12.726-11.574 11.814-23.052 21.072-37.26 30.09-1.782 1.128-3.408 2.148-3.618 2.274-.39.228.124-.354 6.364-7.158 3.93-4.29 6.94-7.85 10.355-12.29 2.25-2.92 2.68-3.33 5.98-5.71 8.88-6.41 29.19-20.17 29.43-19.93l.02-.02z"/>
  <path fill="#231f1f" fill-rule="nonzero" d="M439.193 371.194h-3.16v9.81h-1.287v-9.81h-3.168v-1.158h7.615m12.922 10.968h-1.287v-7.373c0-.57.04-1.28.11-2.12h-.038c-.12.49-.223.85-.325 1.07l-3.742 8.43h-.63l-3.752-8.37c-.1-.23-.21-.61-.32-1.12h-.03c.04.44.06 1.15.06 2.14v7.36h-1.24v-10.98h1.71l3.37 7.66c.26.58.43 1.01.5 1.32h.06c.22-.6.4-1.05.53-1.35l3.44-7.62h1.61"/>
  <defs>
    <linearGradient id="a" x2="1" gradientUnits="userSpaceOnUse" gradientTransform="rotate(-30.578 876.226 -388.85) scale(189.126)">
      <stop offset="0%" stop-color="#909ca9"/>
      <stop offset="100%" stop-color="#ededee"/>
    </linearGradient>
    <linearGradient id="b" x2="1" gradientUnits="userSpaceOnUse" gradientTransform="translate(304.405 30.796) scale(131.014)">
      <stop offset="0%" stop-color="#939fab"/>
      <stop offset="100%" stop-color="#dcdee1"/>
    </linearGradient>
    <radialGradient id="c" cx="0" cy="0" r="1" gradientUnits="userSpaceOnUse" gradientTransform="matrix(-149.096 -24.85 49.7 -323.042 397.004 157.4)">
      <stop offset="0%" stop-color="#ee352c"/>
      <stop offset="100%" stop-color="#a91d22"/>
    </radialGradient>
  </defs>
</svg>
