<svg xmlns="http://www.w3.org/2000/svg" id="Layer_1" viewBox="0 0 40 40">
  <style>
    .st0{fill:#F0BF1A;} .st1{fill:#3EBEB0;} .st2{fill:#07A5DE;} .st3{fill:#231F20;} .st4{fill:#D7A229;} .st5{fill:#019B8F;} .st6{fill:none;}
  </style>
  <g id="ES_Hadoop_Gery">
    <path d="M37.5 8.1c-5.9-7.8-16.8-9.9-25.2-5 2.9 2.2 5.2 5 6.6 8.3h11.5c2.7 0 5.3-1.2 7.1-3.3zM4.7 10.9l.3-.4-.3.4zm1.1-1.7l.1-.1-.1.1zm1.1-1.5l.2-.2-.2.2zm2.5-2.6l.2-.2-.2.2zm1.7-1.3zm-3 2.6l.3-.3-.3.3z" class="st0"/>
    <path d="M7.6 33.1l-1.2-1.5c.4.6.8 1 1.2 1.5zm3.8 3.2l-.9-.6c.3.3.6.5.9.6zM6 31.1c-.2-.3-.3-.5-.5-.8.1.3.3.6.5.8zm2.7 3.2c-.2-.3-.5-.5-.7-.7.2.2.5.4.7.7zm-3.6-4.6c-.2-.3-.3-.5-.4-.8.1.2.2.5.4.8zm4.9 5.7c-.3-.2-.5-.4-.8-.7.3.2.5.4.8.7zm20.5-6.9H19.2c-1.4 3.4-3.6 6.3-6.4 8.6l-.9-.6c8.5 5.3 19.6 3.2 25.7-4.8-1.9-2-4.4-3.2-7.1-3.2z" class="st1"/>
    <path d="M19.6 25.5h8.5c3 0 5.5-2.5 5.5-5.5s-2.5-5.5-5.5-5.5h-8.6c.5 1.8.7 3.7.7 5.5 0 1.8-.2 3.7-.6 5.5z" class="st2"/>
    <path d="M20.2 20c0-1.8-.2-3.7-.7-5.5H3.3c-1.1 3.6-1.1 7.4 0 11h16.3c.4-1.8.6-3.6.6-5.5z" class="st3"/>
    <path d="M7.1 7.5c.3-.4.7-.7 1-1.1-.4.3-.7.7-1 1.1zM5.8 9.1c.3-.5.7-1 1.1-1.4-.4.4-.7.9-1.1 1.4zm-1.3 2.3c.1-.2.2-.3.2-.5 0 .2-.1.4-.2.5zm.5-.9c.2-.4.5-.9.8-1.3-.3.4-.6.9-.8 1.3zm7.2-7.4c-.4.2-.7.4-1.1.7.4-.2.8-.4 1.1-.7zm-3.8 3c.3-.3.7-.7 1.1-1-.4.3-.8.6-1.1 1zm1.3-1.2c.5-.4.9-.7 1.4-1.1-.5.4-1 .7-1.4 1.1z" class="st4"/>
    <path d="M12.2 3.2c-.4.2-.7.4-1.1.7H11c-.5.3-1 .7-1.4 1.1l-.2.1c-.4.3-.7.6-1.1 1l-.2.2c-.3.4-.7.7-1 1.1l-.2.2c-.4.5-.7 1-1 1.5l-.1.1c-.3.4-.6.9-.8 1.3l-.2.4c-.1.2-.2.3-.2.5H19c-1.6-3.2-3.9-6.1-6.8-8.2z" class="st4"/>
    <path d="M8 33.6l-.4-.5c.1.2.3.3.4.5zm-1.6-2c-.1-.2-.3-.4-.4-.5.1.2.2.4.4.5zm2.3 2.7l.5.4-.5-.4zm-4.2-5.8l.2.3-.2-.3zm7.3 8.1l-.4-.3.4.3zm7.4-8.1H4.5zM5.5 30.3c-.1-.2-.3-.4-.4-.7.1.3.2.5.4.7zm5 5.4l-.5-.3.5.3z" class="st5"/>
    <path d="M10 35.4l.5.4.9.6.4.3.9.6c2.8-2.3 5-5.3 6.4-8.6H4.5l.2.3c.1.3.3.5.4.8s.3.4.4.7.3.5.5.8.3.4.4.5l1.2 1.5.4.3.7.7.5.4c.3.2.5.4.8.7z" class="st5"/>
  </g>
  <path d="M0 0h40v40H0z" class="st6"/>
</svg>
