<svg xmlns="http://www.w3.org/2000/svg" fill-rule="evenodd" stroke-miterlimit="1.414" viewBox="0 0 133 133" clip-rule="evenodd" stroke-linejoin="round">
  <path fill="#fff" d="M110.9 77.8c0 4-2.3 7.5-6.8 8.3-7.8 1.4-24.2 2.2-37.9 2.2s-30.1-.8-37.9-2.2c-4.5-.8-6.8-4.3-6.8-8.3V52c0-4 3.1-7.7 6.8-8.3 2.3-.4 7.7-.8 11.9-.8 1.6 0 2.9 1.2 2.9 3.1v18.1c8.1 0 15.1-.5 23.2-.5s15.1.5 23.2.5V46c0-1.9 1.3-3.1 2.9-3.1 4.2 0 9.6.4 11.9.8 3.8.6 6.8 4.3 6.8 8.3-.2 8.6-.2 17.2-.2 25.8z"/>
  <path fill="#cc2a2e" fill-rule="nonzero" d="M66.2 0C29.7 0 0 29.6 0 66.2c0 36.5 29.6 66.2 66.2 66.2 36.5 0 66.2-29.6 66.2-66.2C132.4 29.7 102.7 0 66.2 0zm44.7 77.8c0 4-2.3 7.5-6.8 8.3-7.8 1.4-24.2 2.2-37.9 2.2s-30.1-.8-37.9-2.2c-4.5-.8-6.8-4.3-6.8-8.3V52c0-4 3.1-7.7 6.8-8.3 2.3-.4 7.7-.8 11.9-.8 1.6 0 2.9 1.2 2.9 3.1v18.1c8.1 0 15.1-.5 23.2-.5s15.1.5 23.2.5V46c0-1.9 1.3-3.1 2.9-3.1 4.2 0 9.6.4 11.9.8 3.8.6 6.8 4.3 6.8 8.3-.2 8.6-.2 17.2-.2 25.8z"/>
</svg>
