<svg xmlns="http://www.w3.org/2000/svg" fill-rule="evenodd" stroke-miterlimit="1.414" viewBox="0 0 96 96" clip-rule="evenodd" stroke-linejoin="round">
  <g fill-rule="nonzero">
    <path fill="#419eda" d="M48 0C21.668 0 0 21.668 0 48s21.668 48 48 48 48-21.668 48-48S74.332 0 48 0z"/>
    <g fill="#fff">
      <path d="M45.148 46.13c0 2.607-2.118 4.726-4.726 4.726-2.607 0-4.726-2.12-4.726-4.726 0-2.608 2.12-4.726 4.726-4.726 2.608 0 4.726 2.2 4.726 4.726zm6.112 0c0 2.607 2.118 4.726 4.725 4.726 2.608 0 4.726-2.12 4.726-4.726 0-2.608-2.11-4.726-4.72-4.726-2.6 0-4.72 2.2-4.72 4.726z"/>
      <path d="M83.526 51.263c-.326 0-.652.08-.978.08-2.118 0-4.155-.487-6.03-1.384.57-3.51.897-7.09.815-10.68-2.037-2.94-4.318-5.62-6.844-8.15 1.14-2.12 2.77-3.91 4.8-5.22l.89-.57-.738-.82c-3.586-3.99-7.823-7.09-12.63-9.207l-.978-.41-.33 1.14c-.57 2.364-1.792 4.483-3.42 6.194-3.178-1.71-6.52-3.016-9.94-4.075-3.423.977-6.764 2.363-9.94 4.074-1.71-1.71-2.854-3.83-3.424-6.19l-.243-.98-.98.41c-4.81 2.116-9.13 5.294-12.63 9.205l-.735.813.894.57c2.12 1.222 3.666 3.015 4.81 5.134-2.61 2.524-4.81 5.295-6.848 8.147-.08 3.502.163 7.09.815 10.673-1.875.898-3.91 1.387-5.95 1.387-.325 0-.733 0-1.058-.084l-.98-.08.08.98c.573 5.298 2.12 10.268 4.81 14.91l.57.9.815-.65c1.875-1.547 4.075-2.606 6.438-3.014 1.55 3.18 3.424 6.192 5.46 8.962 3.34 1.222 6.846 2.036 10.43 2.61.327 2.36.08 4.804-.896 7.09l-.41.973.98.248c2.606.57 5.295.812 7.82.812l7.823-.818.978-.244-.406-.98c-.98-2.28-1.225-4.805-.9-7.17 3.583-.57 7.09-1.383 10.43-2.605 2.116-2.77 3.91-5.785 5.46-9.045 2.36.41 4.56 1.466 6.434 3.014l.814.652.57-.898c2.77-4.564 4.4-9.616 4.805-14.91l.08-.98-.57.163zm-24.12 12.793c-3.665.977-7.495 1.466-11.243 1.466s-7.496-.57-11.244-1.466c-2.04-3.178-3.67-6.6-4.81-10.104-1.14-3.504-1.88-7.252-2.04-11.082 2.36-3.014 5.13-5.54 8.15-7.74 3.01-2.2 6.35-3.993 9.94-5.378 3.5 1.385 6.84 3.178 9.94 5.378 3.01 2.2 5.7 4.807 8.15 7.74-.16 3.83-.9 7.497-2.04 11.082-1.14 3.504-2.77 6.926-4.81 10.104z"/>
    </g>
  </g>
</svg>
