<svg xmlns="http://www.w3.org/2000/svg" fill-rule="evenodd" stroke-miterlimit="1.414" viewBox="0 0 280 150" clip-rule="evenodd" stroke-linejoin="round">
  <path fill="#bbe6fb" fill-rule="nonzero" d="M220.047 50.836c1.98 23.065-34.318 45.018-81.075 49.03-46.753 4.012-86.262-11.438-88.237-34.503-1.98-23.07 34.317-45.02 81.072-49.032 46.755-4.01 86.263 11.44 88.24 34.51"/>
  <path fill="#fff" fill-rule="nonzero" d="M131.64 19.03c-9.874-.602-26.89 4.55-41.082 9.688-2.157 5.087-3.354 10.657-3.354 16.5 0 23.975 21.735 43.407 44.727 43.407 22.85 0 43.05-19.465 44.73-43.406.55-7.8-2.14-15.15-5.86-21.48-14.71-2.6-30.32-4.18-39.15-4.72"/>
  <g fill="#373535" fill-rule="nonzero">
    <path d="M106.303 42.07c1.212-2.68 3.046-3.995 4.825-6.244-.2-.537-.632-2.275-.632-2.887 0-2.7 2.188-4.89 4.883-4.89.63 0 1.24.12 1.8.35 8.08-6.16 18.72-8.85 29.41-6.46.97.21 1.93.48 2.87.77-10.57-1.48-22.48 2.27-30.58 8.81.25.59.93 2.25.93 2.92 0 2.69-1.74 3.35-4.44 3.35-.62 0-1.2-.11-1.74-.33-1.83 2.45-4.08 7.14-5.16 10.06 4.48 4 8.52 5.45 13.8 7.42-.02-.25.18-.49.18-.74 0-8.14 7.16-14.74 15.29-14.74 7.28 0 13.32 5.3 14.5 12.25 3.63-2.32 7.15-4.09 9.82-7.52-.63-.76-1.29-2.93-1.29-3.99 0-2.45 1.99-4.44 4.44-4.44.35 0 .67.05 1 .12 1.36-2.8 2.39-5.76 3.05-8.81-12.71-9.42-37.3-8.13-37.3-8.13s-19.58-1.02-32.83 5.44c.88 6.38 3.43 12.46 7.2 17.6"/>
    <path d="M167.063 38.405c.9.81 1.39 1.52 1.774 2.213 1.19 2.137-1.195 4.094-3.64 4.094-.25 0-.488-.033-.728-.074-2.76 4.308-7.59 9.832-11.88 12.612 6.57 1.078 12.78 3.713 17.71 7.78 3.59-6.436 6.35-15.736 6.35-23.632 0-6.013-2.66-10.418-6.66-13.65-.22 3.22-1.94 7.725-2.94 10.657m-53.39 40.78c2.18-6.05 7.57-10.74 12.67-14.864-.75-1.02-1.87-3.55-2.34-4.74-6.23-1.89-11.73-5.43-15.99-10.12l-.12.41c-.81 3.6-.95 7.21-.55 10.73 2.97.57 5.22 3.18 5.22 6.32 0 1.86-1.64 4.56-2.9 5.74 1.37 2.98 2.31 4.4 3.96 6.57"/>
    <path d="M113.295 84.265c-2.613-2.597-4.42-7.78-6.118-11.038-.317.05-.642.084-.975.084-3.545 0-7.258-2.97-6.418-6.41.465-1.9 1.78-3.15 3.92-4.19-.487-3.95-.62-9.62.297-13.72.27-1.17.83-1.72 1.19-2.84-3.9-5.72-6.44-13.23-6.44-20.69 0-.27.02-.54.03-.81-6.61 3.32-11.56 8.54-11.56 16.76 0 18.19 10.48 36.03 26.07 43.02l.04-.15m38.33-25.14c-2.01 5.73-7.45 9.84-13.87 9.84-3.42 0-6.57-1.18-9.07-3.15-5.15 4.02-9.84 11.08-12.21 17.19 1.08 1.14 1.82 2.09 3.02 3.12 3.61.94 8.59 0 12.49 0 15.71 0 29.64-7 37.61-19.25-5.3-3.67-11.57-7.17-17.93-7.75"/>
  </g>
  <g fill="#1287b1" fill-rule="nonzero">
    <path d="M105.9 44.198c1.212-2.683 2.73-5.165 4.506-7.413-.197-.532-.312-1.106-.312-1.71 0-2.695 2.187-4.882 4.882-4.882.638 0 1.25.125 1.8.347 8.088-6.16 18.725-8.844 29.413-6.454.97.22 1.93.488 2.87.78-10.57-1.466-21.48 1.774-29.59 8.312.25.583.39 1.225.39 1.897 0 2.696-2.19 4.883-4.88 4.883-.62 0-1.19-.118-1.74-.325-1.83 2.458-3.33 5.175-4.43 8.1 3.85 4.147 8.57 7.425 13.85 9.397-.01-.25-.04-.5-.04-.756 0-8.13 6.58-14.72 14.72-14.72 7.28 0 13.32 5.3 14.5 12.25 3.63-2.314 6.86-5.284 9.53-8.71-.62-.764-1.01-1.726-1.01-2.79 0-2.444 1.99-4.428 4.44-4.428.35 0 .68.05 1 .125 1.36-2.8 2.38-5.76 3.03-8.81-12.71-9.41-37.3-8.14-37.3-8.14s-19.58-1.02-32.83 5.44c.88 6.39 3.43 12.46 7.18 17.6"/>
    <path d="M167.75 39.13c.9.81 1.475 1.97 1.475 3.275 0 2.448-1.985 4.433-4.43 4.433-.25 0-.49-.034-.73-.075-2.755 4.308-6.407 7.98-10.7 10.762 6.343.99 12.31 3.68 17.244 7.75 3.59-6.437 5.64-13.855 5.64-21.752 0-6.013-2.66-10.418-6.66-13.65-.21 3.22-.84 6.325-1.85 9.257m-53.39 41.51c2.19-6.05 6-11.48 11.1-15.605-.75-1.022-1.37-2.137-1.83-3.337-6.21-1.89-11.71-5.43-15.99-10.117-.03.14-.07.27-.1.41-.8 3.6-.95 7.21-.55 10.73 2.97.57 5.23 3.18 5.23 6.32 0 1.86-.8 3.54-2.06 4.71 1.15 2.44 2.56 4.77 4.21 6.92"/>
    <path d="M113.278 84.193c-2.613-2.6-4.808-5.584-6.503-8.838-.32.05-.644.08-.975.08-3.545 0-6.42-2.874-6.42-6.416 0-2.54 1.48-4.73 3.622-5.77-.487-3.95-.32-8.04.597-12.15.26-1.17.57-2.32.95-3.44-3.92-5.72-6.22-12.64-6.22-20.1 0-.27.01-.54.01-.81-6.62 3.31-11.58 8.54-11.58 16.76 0 18.18 10.85 33.82 26.43 40.81l.02-.15m37.93-22.94c-2.03 5.72-7.46 9.84-13.88 9.84-3.44 0-6.59-1.19-9.09-3.15-5.16 4.01-9.05 9.49-11.44 15.61 1.06 1.15 2.2 2.23 3.4 3.25 3.61.93 7.4 1.44 11.3 1.44 15.71 0 29.53-8.11 37.5-20.38-5.31-3.68-11.46-6.05-17.82-6.64"/>
  </g>
  <clipPath id="a">
    <path d="M6.954 6.205h265.502v77.273H6.954z"/>
  </clipPath>
  <g clip-path="url(#a)">
    <path fill="#373535" fill-opacity=".35" fill-rule="nonzero" d="M6.954 83.478c42.175-42.176 75.86-55.194 106.43-61.138 4.043-.787 4.81-9.625 4.81-9.625s.565 6.51 3.396 7.36c2.83.85 6.51-10.19 6.51-10.19s-3.4 9.906 0 10.474c3.386.56 9.61-9.63 9.61-9.63s-2.55 8.77-.85 9.34c1.69.56 10.19-12.74 10.19-12.74s-5.1 8.77-.29 9.62c4.814.85 11.826-5.99 11.826-5.99s-5.525 6.25-3.062 7.12c10.475 3.68 18.95-9.93 18.95-9.93s-1.963 5.97-7.063 12.48c11.04 2.83 19.24-13.8 19.24-13.8l-8.2 16.63c4.24 2.27 21.23-17.26 21.23-17.26s-8.78 15.28-13.88 18.4c2.83 2.26 13.01-6.8 13.01-6.8s-8.21 10.18-5.1 10.75c4.53 3.68 21.23-18.96 21.23-18.96s-6.51 13.3-16.13 23.77c8.03 4.02 28.01-21.8 28.01-21.8s-.56 8.21-15 21.23c10.75-1.42 24.62-21.8 24.62-21.8s-5.1 15.28-17.28 26.05c10.57-1.1 27.45-27.18 27.45-27.18s-6.51 18.12-19.81 28.59c14.73 3.26 35.95-18.67 35.95-18.67s-8.34 15.57-19.24 21.93c12.18 4.67 28.88-14.58 28.88-14.58s-16.7 25.77-43.31 24.63c-8.72-.36-35.13-26.47-91.7-24.33-74.75 2.86-90.6 34.56-130.51 56.08"/>
  </g>
  <path fill="#373535" fill-rule="nonzero" d="M8.683 80.274C50.858 38.1 84.54 25.08 115.11 19.136c4.046-.787 4.812-9.625 4.812-9.625s.563 6.52 3.397 7.36c2.83.85 6.5-10.18 6.5-10.18s-3.4 9.91 0 10.47c3.4.57 9.62-9.62 9.62-9.62s-2.55 8.78-.85 9.34c1.7.57 10.19-12.73 10.19-12.73s-5.1 8.78-.28 9.63c4.81.85 11.83-5.99 11.83-5.99s-5.52 6.26-3.06 7.12c10.47 3.68 18.94-9.93 18.94-9.93s-1.97 5.97-7.06 12.48c11.03 2.83 19.23-13.8 19.23-13.8l-8.2 16.63c4.24 2.26 21.23-17.26 21.23-17.26s-8.77 15.29-13.87 18.4c2.83 2.27 13.02-6.78 13.02-6.78s-8.2 10.19-5.09 10.77c4.54 3.68 21.22-18.97 21.22-18.97s-6.51 13.3-16.13 23.78c8.05 4.02 28.03-21.79 28.03-21.79s-.57 8.21-15 21.24c10.76-1.41 24.62-21.78 24.62-21.78s-5.04 15.24-17.21 26c10.56-1.1 27.46-27.17 27.46-27.17s-6.5 18.11-19.814 28.58c14.73 3.27 35.95-18.67 35.95-18.67s-8.35 15.57-19.25 21.94C257.53 43.25 274.23 24 274.23 24s-16.7 25.762-43.312 24.625c-8.725-.37-35.125-26.48-91.7-24.34-74.738 2.82-90.588 34.52-130.5 56.04"/>
  <clipPath id="b">
    <path d="M5.85 53.135h249.225v92.273H5.85z"/>
  </clipPath>
  <g clip-path="url(#b)">
    <path fill="#373535" fill-opacity=".35" fill-rule="nonzero" d="M5.85 88.09c22.288 11.18 42.67-1.697 68.356 5.54 19.53 5.506 43.308 12.293 75.575 7.62 32.27-4.674 59.87-18.686 73.03-43.736 4.11-11.188 20.81 2.55 20.81 2.55s-12.17-5.1-11.89-2.688c.29 2.4 18.26 10.75 18.26 10.75s-16.27-5.1-15.28-1.275c.99 3.83 20.38 19.1 20.38 19.1s-21.94-16.7-23.78-14.43c-1.84 2.27 9.34 11.47 9.34 11.47s-18.54-11.46-25.05-8.09c-4.68 2.43 19.25 18.13 19.25 18.13s-15.57-11.89-19.25-8.77c-3.68 3.11 17.55 28.59 17.55 28.59s-24.06-26.05-26.46-24.77c-2.41 1.28 6.65 13.73 6.65 13.73s-11.89-13.03-15.14-10.76c-3.25 2.26 16.99 36.09 16.99 36.09s-21.94-34.67-31-28.87c14.23 31.22 8.92 35.68 8.92 35.68s-1.81-31.83-19.52-31c-8.91.43 4.25 23.78 4.25 23.78s-12.11-21.32-20.18-20.9c14.87 28.14 9.57 39.58 9.57 39.58s2.46-24.03-17.7-37.41c7.65 6.79-4.79 37.4-4.79 37.4s10.94-45.11-8.06-36.51c-3 1.35-.21 22.5-.21 22.5s-3.81-24.2-9.55-22.922C123.59 109.2 105.7 142 105.7 142s14.64-35.48 10.18-33.99c-3.25 1.074-9.34 15.71-9.34 15.71s2.97-14.436 0-15.286c-2.98-.847-19.53 15.29-19.53 15.29s12.318-14.44 10.19-17.41c-3.21-4.51-6.99-4.72-11.46-2.97-6.51 2.535-15.283 14.435-15.283 14.435s8.75-12.05 7.227-16.56c-2.466-7.25-27.606 14-27.606 14s14.86-14.01 11.464-16.99c-3.393-2.97-21.836-2.05-27.595-2.07-16.98-.05-22.863-4.04-28.02-8.13"/>
  </g>
  <path fill="#373535" fill-rule="nonzero" d="M5 85.543c22.29 11.18 42.67-1.698 68.358 5.542 19.528 5.503 43.307 12.29 75.575 7.62C181.2 94.04 208.795 80.03 221.96 54.98c4.104-11.177 20.803 2.55 20.803 2.55s-12.17-5.09-11.888-2.69c.284 2.413 18.258 10.763 18.258 10.763s-16.275-5.088-15.285-1.275c.99 3.824 20.38 19.11 20.38 19.11s-21.938-16.7-23.775-14.436c-1.84 2.262 9.34 11.462 9.34 11.462s-18.542-11.462-25.05-8.075c-4.685 2.44 19.246 18.14 19.246 18.14s-15.57-11.89-19.24-8.78c-3.68 3.11 17.55 28.58 17.55 28.58s-24.06-26.04-26.46-24.76c-2.4 1.27 6.66 13.73 6.66 13.73s-11.89-13.03-15.14-10.75c-3.25 2.26 16.98 36.08 16.98 36.08s-21.93-34.66-30.98-28.86c14.22 31.2 8.92 35.66 8.92 35.66s-1.82-31.84-19.53-31c-8.91.42 4.25 23.77 4.25 23.77s-12.11-21.33-20.19-20.9c14.87 28.13 9.57 39.58 9.57 39.58s2.46-24.04-17.71-37.41c7.63 6.8-4.79 37.41-4.79 37.41s10.95-45.11-8.06-36.51c-3 1.36-.22 22.5-.22 22.5s-3.83-24.2-9.55-22.92c-3.34.73-21.23 33.53-21.23 33.53s14.65-35.45 10.19-33.96c-3.25 1.09-9.35 15.71-9.35 15.71s2.97-14.44 0-15.29c-2.97-.85-19.53 15.28-19.53 15.28s12.31-14.43 10.19-17.4c-3.22-4.5-6.99-4.72-11.46-2.97-6.52 2.53-15.29 14.43-15.29 14.43s8.75-12.05 7.22-16.56c-2.44-7.23-27.58 14.03-27.58 14.03s14.88-14 11.48-16.97c-3.39-2.98-21.84-2.05-27.6-2.07-16.98-.06-22.86-4.04-28.02-8.12"/>
</svg>
