<svg xmlns="http://www.w3.org/2000/svg" fill-rule="evenodd" stroke-miterlimit="1.414" viewBox="0 0 180 156" clip-rule="evenodd" stroke-linejoin="round">
  <path fill="#a41e11" fill-rule="nonzero" d="M168.47 117.44c-9.078 4.732-56.106 24.068-66.118 29.287-10.012 5.22-15.574 5.17-23.483 1.39-7.91-3.78-57.96-23.997-66.97-28.307-4.51-2.15-6.88-3.97-6.88-5.685V96.93s65.15-14.185 75.67-17.958c10.52-3.773 14.16-3.91 23.12-.63 8.95 3.28 62.47 12.936 71.32 16.176l-.01 16.95c0 1.7-2.04 3.566-6.66 5.974l.01-.002z"/>
  <path fill="#d82c20" fill-rule="nonzero" d="M168.47 100.24c-9.078 4.73-56.106 24.068-66.118 29.287-10.012 5.22-15.574 5.17-23.483 1.39-7.91-3.78-57.96-24-66.97-28.306-9.02-4.3-9.21-7.27-.35-10.74C20.4 88.4 70.17 68.88 80.69 65.1c10.52-3.77 14.16-3.91 23.12-.63 8.95 3.28 55.7 21.89 64.54 25.13 8.84 3.25 9.18 5.92.11 10.65l.01-.01z"/>
  <path fill="#a41e11" fill-rule="nonzero" d="M168.47 89.4c-9.078 4.732-56.106 24.068-66.118 29.29-10.012 5.218-15.574 5.167-23.483 1.386-7.91-3.78-57.96-23.996-66.97-28.305-4.51-2.15-6.88-3.96-6.88-5.68v-17.2s65.15-14.18 75.67-17.95c10.52-3.77 14.16-3.91 23.12-.63 8.95 3.28 62.47 12.94 71.32 16.18l-.01 16.958c0 1.7-2.04 3.565-6.66 5.973l.01-.02z"/>
  <path fill="#d82c20" fill-rule="nonzero" d="M168.47 72.2c-9.078 4.732-56.106 24.068-66.118 29.29-10.012 5.218-15.574 5.167-23.483 1.386-7.91-3.78-57.96-23.997-66.97-28.305-9.01-4.306-9.21-7.27-.35-10.74 8.85-3.46 58.62-22.99 69.14-26.77 10.52-3.77 14.16-3.91 23.12-.63 8.95 3.28 55.7 21.89 64.54 25.13 8.84 3.24 9.18 5.92.11 10.65l.01-.01z"/>
  <path fill="#a41e11" fill-rule="nonzero" d="M168.47 60.32c-9.078 4.732-56.106 24.07-66.118 29.29-10.012 5.22-15.574 5.168-23.483 1.387C70.96 87.217 20.91 67 11.9 62.692c-4.51-2.154-6.88-3.97-6.88-5.686V39.81s65.15-14.184 75.67-17.957c10.52-3.774 14.16-3.91 23.12-.63 8.95 3.278 62.47 12.933 71.32 16.174l-.01 16.952c0 1.69-2.04 3.56-6.66 5.97h.01z"/>
  <path fill="#d82c20" fill-rule="nonzero" d="M168.47 43.12c-9.078 4.732-56.106 24.07-66.118 29.29-10.012 5.218-15.574 5.167-23.483 1.387-7.91-3.78-57.96-23.997-66.97-28.305-9.01-4.308-9.21-7.275-.35-10.743 8.85-3.47 58.62-23 69.14-26.77 10.52-3.78 14.16-3.91 23.12-.63 8.95 3.28 55.7 21.88 64.54 25.12 8.84 3.24 9.18 5.91.11 10.64l.01.01z"/>
  <path fill="#fff" fill-rule="nonzero" d="M112.37 26.56l-14.74 1.53-3.3 7.94L89 27.17l-17.02-1.53 12.7-4.58-3.81-7.03 11.89 4.65 11.21-3.67-3.03 7.27m-7.49 42.8L65.94 53.67l39.42-6.05"/>
  <ellipse cx="55.31" cy="39.14" fill="#fff" rx="21.069" ry="8.167"/>
  <path fill="#7a0c00" fill-rule="nonzero" d="M129.79 28.73l23.33 9.22-23.31 9.21"/>
  <path fill="#ad2115" fill-rule="nonzero" d="M103.98 38.94l25.81-10.21.02 18.43-2.53.99"/>
</svg>
