<svg xmlns="http://www.w3.org/2000/svg" fill-rule="evenodd" stroke-miterlimit="1.414" viewBox="0 0 600 600" clip-rule="evenodd" stroke-linejoin="round">
  <path fill="#008cc1" fill-rule="nonzero" d="M533.14 273.283c0 134.47-108.99 243.462-243.46 243.462-134.472 0-243.464-108.992-243.464-243.462 0-134.47 108.992-243.462 243.463-243.462 134.47-.11 243.46 109 243.46 243.47"/>
  <path fill="#fff" fill-rule="nonzero" d="M154.147 193.426c0 10.734-8.73 19.463-19.463 19.463-10.734 0-19.463-8.73-19.463-19.47 0-10.74 8.73-19.47 19.47-19.47 10.85 0 19.47 8.73 19.47 19.46m3.3 53.43c0 10.73-8.73 19.46-19.46 19.46s-19.46-8.73-19.46-19.46 8.73-19.46 19.47-19.46 19.46 8.61 19.46 19.46m11.92 56.62c0 10.73-8.73 19.46-19.46 19.46s-19.46-8.73-19.46-19.47S139.18 284 149.92 284c10.732-.12 19.46 8.61 19.46 19.46m26.65 50.72c0 10.735-8.73 19.464-19.47 19.464s-19.462-8.73-19.462-19.465 8.73-19.47 19.464-19.47c10.73-.12 19.46 8.61 19.46 19.46m208.43 70.89c0 10.74-8.73 19.46-19.46 19.46s-19.467-8.73-19.467-19.47 8.73-19.46 19.46-19.46 19.46 8.73 19.46 19.46m35.39-41.88c0 10.73-8.73 19.46-19.465 19.46s-19.46-8.73-19.46-19.46 8.73-19.46 19.46-19.46 19.46 8.73 19.46 19.46M337.21 87.14c0 10.734-8.73 19.463-19.462 19.463s-19.46-8.73-19.46-19.47c0-10.736 8.73-19.46 19.46-19.46 10.74 0 19.47 8.73 19.47 19.46m-51.2-17.93c0 10.736-8.73 19.465-19.462 19.465-10.74 0-19.47-8.72-19.47-19.46s8.73-19.46 19.46-19.46 19.46 8.73 19.46 19.464"/>
  <circle cx="424.031" cy="215.248" r="129.752" fill="#66b245"/>
  <path fill="#fff" d="M424.457 83.432l.426.002.425.004.425.005.425.006h.425l.424.01.423.01.424.01.423.01.423.01.422.01.422.01.422.01.422.02.42.02.422.02.42.02.42.02.42.03.42.03.418.03.42.03.417.03.418.03.418.03.42.03.42.03.42.03.42.04.42.04.42.04.42.04.42.05.42.04.41.04.42.05.42.05.42.05.41.05.41.05.42.05.41.05.41.06.41.06.41.06.41.06.41.06.41.07.41.06.41.07.41.07.41.07.41.07.41.07.41.07.41.07.41.07.41.07.4.08.4.07.4.08.41.08.4.08.4.08.4.08.4.08.4.09.4.09.4.09.4.09.4.09.39.09.4.09.4.09.4.1.4.1.4.1.4.1.4.1.4.1.39.1.39.11.39.1.39.11.4.11.4.11.39.11.39.11.39.11.39.12.39.12.39.12.39.12.39.12.38.12.39.12.39.12.39.12.39.12.39.12.39.13.38.13.38.13.38.13.38.13.38.13.38.14.38.13.38.13.38.13.38.14.38.14.38.14.38.14.38.14.38.14.38.15.37.15.37.15.37.15.38.15.37.15.37.15.37.15.37.15.37.16.37.15.37.16.37.16.37.16.37.16.37.16.37.16.37.17.37.16.36.16.36.17.37.16.37.17.37.17.36.17.36.17.36.17.36.17.36.17.35.17.36.17.36.17.36.18.36.18.35.18.35.18.36.18.35.19.36.19.35.18.36.19.35.19.35.19.35.19.35.19.35.19.35.19.35.19.34.2.35.19.34.19.35.2.35.2.34.2.34.2.34.2.35.21.34.2.34.21.34.21.34.21.33.21.34.21.33.21.34.21.33.21.34.22.33.21.33.22.33.22.33.22.33.22.33.22.33.22.33.22.33.23.32.22.32.22.33.22.33.23.32.23.32.23.32.22.32.23.32.23.32.24.32.23.32.24.32.24.32.23.32.23.31.24.32.24.31.24.32.24.32.24.31.25.31.24.32.24.31.25.31.25.31.25.31.25.31.25.3.25.31.25.31.25.3.26.31.25.3.25.3.26.3.26.3.25.3.26.3.26.3.26.3.26.3.26.29.27.3.27.3.26.29.27.3.27.29.26.3.26.29.27.29.26.29.27.29.27.29.27.29.27.28.27.28.27.29.27.29.27.28.28.28.28.29.28.28.28.28.28.28.28.27.28.28.28.28.28.27.28.28.28.27.29.27.28.28.29.27.29.27.29.27.29.27.29.27.29.27.29.27.29.26.3.26.3.27.3.26.3.26.29.26.3.26.3.25.3.25.3.26.3.25.3.26.3.25.3.25.3.25.3.26.31.25.31.25.31.25.3.25.31.25.31.24.31.25.31.25.31.25.32.24.31.24.32.24.31.24.32.23.32.24.32.24.32.24.32.23.32.23.32.24.32.23.32.23.32.24.32.23.32.23.32.23.32.23.32.22.32.22.32.22.33.23.33.22.33.22.33.22.33.22.33.21.34.22.33.22.33.22.33.22.33.22.33.21.33.21.33.21.33.21.34.21.34.21.34.2.34.21.34.2.34.21.34.2.34.2.34.2.35.2.35.2.34.2.34.2.34.2.35.19.35.19.35.19.35.19.35.19.35.19.35.19.35.19.35.19.35.18.35.18.35.18.36.18.35.18.36.17.36.18.36.18.36.18.36.17.35.18.36.18.36.17.36.17.36.17.36.17.37.16.36.16.36.16.36.16.36.16.37.16.37.16.36.16.37.16.37.16.37.16.37.16.37.16.37.15.37.15.37.15.38.15.37.15.37.14.38.15.37.15.37.15.38.15.37.14.37.14.38.14.38.14.38.14.38.14.37.14.38.13.38.13.38.13.38.13.38.13.38.13.38.13.39.13.39.13.38.12.38.13.38.12.39.12.39.12.39.12.39.11.39.12.39.11.39.11.39.11.39.11.39.11.39.11.39.11.39.11.39.1.39.1.4.11.39.11.39.1.39.1.4.1.4.1.39.1.4.1.39.09.4.1.4.09.4.09.4.09.4.09.4.09.4.09.4.09.4.09.4.08.4.09.4.08.4.08.4.08.41.08.4.08.41.08.41.07.41.07.41.07.41.07.41.07.41.06.41.07.41.06.41.06.41.06.41.06.41.06.41.06.41.05.41.06.41.05.42.05.41.05.41.05.41.05.41.05.41.05.42.04.41.05.41.04.41.04.42.04.42.04.42.04.42.04.42.04.41.03.42.03.42.03.42.03.42.03.42.02.42.02.42.03.42.03.42.02.42.02.42.02.42.02.42.02.43.01.43.02.42.02.42.01.42.01.43v.42l.01.42v.42l.01.43.01.43v1.7l-.01.43-.01.42v.42l-.01.43-.01.42-.01.42-.01.42-.01.42-.01.43-.01.42-.02.42-.02.42-.02.42-.02.42-.02.42-.02.42-.02.42-.03.42-.03.42-.03.42-.03.42-.03.42-.03.41-.03.42-.03.41-.04.41-.04.41-.04.41-.04.42-.05.42-.04.42-.04.42-.04.42-.05.41-.05.41-.05.41-.05.41-.06.41-.05.41-.05.41-.06.41-.06.41-.06.41-.06.41-.06.41-.06.41-.06.41-.07.41-.07.41-.07.41-.07.4-.07.41-.07.41-.07.41-.07.41-.07.4-.08.41-.08.41-.08.4-.08.4-.08.41-.08.4-.08.4-.09.4-.09.4-.08.4-.09.4-.09.4-.09.4-.1.4-.1.4-.1.4-.1.39-.1.4-.1.4-.1.39-.1.39-.1.4-.1.39-.1.4-.11.39-.11.39-.11.39-.11.39-.11.39-.11.39-.11.39-.11.39-.11.39-.12.39-.12.38-.12.39-.12.39-.12.39-.12.38-.13.39-.13.38-.13.39-.12.39-.13.38-.13.38-.13.38-.13.38-.13.38-.13.38-.14.38-.14.38-.14.38-.13.38-.14.38-.14.38-.14.38-.14.38-.15.37-.14.38-.14.37-.15.38-.15.37-.15.37-.15.38-.15.37-.15.37-.15.37-.15.37-.16.37-.16.37-.16.37-.16.37-.16.37-.16.36-.16.37-.16.36-.17.36-.17.37-.16.36-.17.36-.17.37-.17.37-.17.36-.18.36-.17.36-.17.36-.18.36-.17.36-.18.36-.18.36-.18.36-.18.35-.18.36-.18.35-.18.36-.19.36-.18.35-.19.35-.19.35-.19.35-.19.35-.19.35-.19.35-.19.35-.2.35-.19.35-.2.34-.2.35-.2.35-.2.34-.2.34-.2.34-.2.34-.2.34-.2.34-.2.34-.2.34-.21.34-.21.34-.21.34-.21.34-.21.34-.21.34-.21.34-.21.33-.21.33-.22.33-.22.33-.22.33-.22.33-.22.33-.22.33-.22.33-.23.32-.22.33-.22.33-.23.33-.23.32-.23.32-.23.32-.23.32-.23.32-.23.32-.23.32-.24.32-.23.32-.24.32-.24.32-.24.32-.23.32-.24.32-.24.31-.24.31-.25.31-.24.31-.25.31-.24.31-.24.32-.25.31-.25.31-.25.31-.25.31-.25.31-.25.3-.25.31-.26.3-.25.3-.25.31-.25.3-.26.3-.26.3-.26.3-.26.3-.25.3-.26.29-.26.3-.26.3-.26.29-.27.3-.27.29-.26.29-.27.29-.27.29-.26.29-.27.29-.27.29-.27.29-.27.29-.27.28-.27.29-.27.29-.28.29-.28.28-.28.28-.28.28-.28.28-.27.28-.28.28-.28.28-.28.28-.29.27-.29.28-.28.27-.29.27-.28.27-.29.27-.29.27-.29.27-.29.27-.29.27-.29.26-.29.27-.29.27-.29.27-.3.26-.29.27-.29.26-.29.26-.3.26-.29.26-.3.26-.3.26-.3.26-.3.26-.3.26-.31.25-.3.25-.3.25-.3.26-.31.25-.3.25-.31.25-.31.25-.31.25-.31.25-.31.24-.31.24-.31.24-.31.24-.32.24-.31.24-.31.24-.32.24-.32.24-.32.24-.32.24-.32.23-.32.24-.32.23-.32.23-.32.24-.32.23-.32.23-.32.23-.32.23-.33.23-.33.22-.32.23-.32.23-.33.22-.33.22-.33.23-.33.22-.33.22-.33.22-.33.21-.33.21-.34.22-.33.22-.34.21-.34.22-.33.21-.34.21-.33.21-.33.21-.34.21-.34.2-.34.2-.34.21-.34.21-.34.2-.34.2-.34.2-.34.2-.35.2-.34.2-.35.2-.34.2-.35.19-.35.2-.35.19-.35.19-.35.19-.35.19-.35.19-.35.19-.36.19-.36.19-.35.18-.36.18-.35.18-.35.18-.35.18-.35.18-.36.18-.36.18-.36.18-.36.17-.36.18-.36.17-.36.17-.36.17-.36.17-.36.17-.36.17-.36.17-.37.17-.37.16-.37.16-.37.16-.37.16-.37.16-.37.16-.37.16-.37.16-.37.16-.37.15-.37.15-.37.15-.37.15-.37.15-.37.15-.38.15-.37.15-.37.14-.38.15-.37.14-.37.14-.38.14-.37.14-.38.14-.38.14-.38.13-.38.13-.38.14-.38.13-.38.13-.38.13-.38.13-.39.13-.38.13-.39.13-.39.13-.39.12-.38.12-.39.13-.39.12-.38.12-.39.12-.39.11-.38.12-.39.11-.39.12-.39.11-.39.11-.39.11-.39.11-.39.11-.39.11-.39.11-.4.11-.4.1-.39.1-.39.1-.39.1-.4.1-.4.09-.39.1-.4.1-.4.1-.4.09-.4.09-.4.09-.4.09-.4.08-.4.08-.4.09-.4.08-.41.08-.4.08-.4.08-.4.08-.41.08-.4.07-.4.08-.4.07-.41.07-.4.07-.41.07-.41.07-.41.06-.41.07-.41.06-.41.06-.4.06-.41.06-.41.06-.41.06-.41.06-.41.05-.41.05-.41.05-.41.05-.41.05-.41.05-.42.05-.41.05-.42.05-.42.05-.41.05-.42.04-.41.04-.42.04-.42.04-.41.03-.42.04-.42.04-.42.04-.42.03-.42.03-.42.03-.42.03-.42.03-.42.02-.42.03-.42.03-.42.02-.42.02-.42.02-.42.01-.42.02-.42.02-.42.01-.42.02-.43.01-.42.01-.42.01-.43.01-.42.01-.42.01h-2.99l-.43-.01-.42-.01-.43-.01-.43-.01-.42-.01-.42-.01-.42-.01-.42-.02-.42-.02-.42-.02-.42-.02-.42-.02-.42-.03-.42-.02-.42-.03-.42-.02-.42-.03-.42-.03-.42-.03-.42-.03-.42-.03-.42-.03-.42-.04-.42-.04-.41-.03-.41-.04-.42-.04-.41-.04-.41-.04-.42-.04-.41-.05-.42-.05-.41-.05-.42-.05-.41-.05-.41-.05-.42-.05-.41-.05-.41-.06-.41-.06-.41-.06-.41-.06-.41-.06-.41-.06-.41-.07-.41-.06-.4-.07-.41-.07-.41-.07-.41-.07-.41-.07-.41-.07-.41-.07-.4-.08-.4-.07-.4-.08-.41-.08-.4-.08-.4-.08-.41-.08-.4-.08-.41-.08-.4-.08-.4-.09-.4-.09-.4-.09-.4-.09-.4-.09-.4-.09-.4-.1-.39-.1-.4-.1-.4-.1-.4-.1-.4-.1-.39-.1-.4-.1-.39-.11-.39-.11-.39-.1-.39-.11-.39-.11-.39-.11-.39-.11-.39-.11-.39-.12-.39-.11-.39-.12-.39-.12-.39-.12-.39-.12-.39-.12-.38-.12-.39-.12-.38-.12-.39-.12-.38-.13-.39-.13-.38-.13-.38-.13-.38-.13-.38-.13-.38-.13-.38-.13-.38-.13-.38-.13-.38-.14-.38-.14-.38-.14-.38-.14-.38-.14-.38-.14-.38-.15-.37-.14-.38-.15-.37-.15-.37-.14-.37-.15-.37-.15-.37-.15-.37-.16-.37-.15-.37-.15-.37-.16-.37-.15-.37-.16-.37-.16-.37-.16-.37-.16-.37-.16-.37-.17-.36-.16-.36-.16-.36-.17-.37-.16-.36-.17-.36-.17-.36-.17-.36-.17-.36-.17-.36-.18-.36-.18-.36-.17-.36-.17-.36-.18-.35-.18-.35-.18-.36-.18-.35-.18-.36-.18-.35-.19-.35-.18-.35-.19-.36-.19-.35-.19-.35-.19-.35-.19-.35-.2-.35-.19-.34-.19-.35-.19-.35-.2-.34-.2-.35-.19-.34-.2-.34-.2-.34-.2-.35-.2-.34-.21-.34-.21-.34-.21-.34-.2-.34-.21-.34-.21-.34-.21-.34-.21-.34-.21-.34-.21-.34-.21-.34-.21-.33-.22-.33-.21-.34-.22-.33-.22-.33-.22-.33-.22-.33-.22-.33-.22-.33-.23-.33-.23-.32-.22-.33-.23-.33-.22-.32-.23-.32-.23-.32-.23-.32-.23-.32-.23-.32-.23-.32-.23-.32-.23-.32-.24-.32-.23-.32-.24-.32-.24-.31-.24-.31-.24-.31-.24-.32-.25-.31-.24-.32-.25-.31-.24-.31-.24-.31-.25-.31-.24-.31-.25-.31-.25-.31-.25-.3-.25-.3-.25-.31-.26-.3-.25-.3-.26-.3-.25-.3-.26-.3-.26-.3-.26-.3-.26-.3-.26-.3-.26-.29-.26-.3-.26-.29-.26-.29-.26-.29-.27-.29-.27-.29-.27-.29-.26-.29-.27-.29-.27-.29-.27-.29-.27-.29-.27-.29-.28-.28-.28-.29-.27-.28-.27-.29-.27-.29-.28-.28-.27-.28-.27-.28-.28-.28-.28-.28-.28-.28-.28-.27-.28-.28-.28-.27-.28-.28-.29-.28-.29-.27-.29-.27-.29-.27-.29-.27-.29-.27-.29-.27-.29-.27-.29-.27-.29-.26-.29-.27-.3-.26-.3-.26-.3-.26-.3-.26-.3-.26-.3-.26-.3-.26-.3-.26-.3-.26-.3-.25-.3-.26-.3-.25-.3-.25-.31-.25-.31-.25-.31-.25-.31-.25-.31-.25-.31-.25-.31-.24-.31-.25-.31-.25-.31-.24-.31-.24-.31-.24-.31-.24-.31-.24-.32-.24-.31-.24-.32-.24-.32-.24-.32-.24-.32-.24-.32-.23-.32-.23-.32-.23-.32-.23-.32-.23-.32-.23-.33-.23-.33-.23-.32-.23-.32-.23-.33-.23-.33-.22-.33-.22-.33-.22-.33-.22-.33-.22-.33-.22-.33-.22-.33-.21-.33-.21-.33-.22-.33-.21-.33-.21-.34-.21-.34-.21-.34-.21-.33-.21-.34-.21-.34-.21-.34-.21-.34-.2-.34-.2-.34-.21-.34-.2-.34-.2-.35-.2-.34-.2-.34-.19-.34-.2-.34-.19-.35-.19-.35-.19-.35-.19-.35-.19-.34-.19-.35-.19-.35-.19-.35-.19-.35-.19-.36-.18-.35-.19-.35-.19-.35-.18-.36-.18-.36-.18-.35-.18-.36-.18-.36-.18-.36-.18-.36-.17-.36-.17-.36-.17-.36-.17-.36-.17-.36-.17-.36-.17-.37-.17-.36-.17-.37-.17-.36-.16-.37-.16-.36-.16-.37-.16-.37-.16-.37-.16-.37-.16-.37-.16-.37-.15-.37-.16-.37-.15-.37-.15-.38-.15-.37-.15-.37-.15-.38-.15-.37-.15-.38-.14-.38-.15-.37-.14-.37-.14-.38-.14-.38-.14-.38-.14-.38-.14-.37-.13-.38-.14-.38-.14-.38-.14-.38-.13-.39-.13-.38-.13-.38-.13-.38-.13-.39-.13-.38-.13-.39-.12-.38-.12-.39-.12-.39-.12-.39-.12-.39-.12-.39-.12-.39-.12-.39-.11-.39-.11-.39-.11-.39-.11-.39-.11-.39-.11-.39-.11-.39-.1-.39-.11-.39-.1-.39-.11-.4-.11-.39-.1-.4-.1-.4-.1-.4-.09-.4-.1-.39-.1-.4-.09-.4-.09-.4-.09-.4-.09-.4-.09-.4-.09-.4-.08-.4-.09-.4-.09-.4-.08-.4-.08-.4-.08-.41-.08-.41-.08-.4-.08-.4-.07-.41-.07-.4-.08-.41-.07-.4-.07-.41-.07-.41-.07-.41-.06-.41-.07-.4-.06-.41-.06-.41-.06-.41-.06-.41-.06-.41-.06-.41-.06-.41-.06-.41-.06-.41-.05-.41-.05-.41-.05-.41-.05-.41-.05-.42-.05-.41-.05-.41-.04-.41-.05-.42-.04-.41-.04-.41-.04-.42-.04-.42-.03-.41-.04-.42-.04-.42-.03-.42-.03-.42-.03-.42-.03-.42-.03-.42-.02-.42-.02-.42-.03-.42-.02-.42-.02-.42-.02-.42-.02-.43-.01-.42-.02-.43-.01-.42-.02-.42-.01-.42-.01-.42-.01-.42v-.4l-.01-.43-.01-.43v-2.5l.01-.42.01-.42v-.42l.01-.42.01-.43.01-.43.01-.43.01-.42.02-.42.02-.43.02-.42.02-.42.02-.42.02-.42.02-.42.02-.42.02-.42.03-.42.03-.42.03-.42.03-.42.03-.41.03-.41.03-.41.04-.42.04-.42.04-.42.04-.42.04-.42.04-.41.04-.42.05-.41.04-.41.05-.41.05-.42.05-.42.06-.42.05-.41.05-.41.05-.41.06-.41.06-.41.06-.41.06-.41.07-.41.07-.41.06-.41.07-.41.07-.41.07-.41.07-.41.07-.4.07-.4.07-.41.07-.41.07-.41.08-.4.08-.4.08-.4.08-.4.08-.4.08-.4.09-.4.09-.41.09-.4.09-.4.09-.4.09-.4.09-.4.1-.4.09-.4.1-.4.09-.4.1-.4.1-.4.1-.4.1-.4.1-.4.1-.4.1-.4.11-.39.11-.4.11-.39.11-.39.11-.39.11-.39.12-.39.11-.39.11-.39.12-.39.12-.39.12-.39.12-.38.12-.39.12-.38.12-.38.12-.38.13-.38.13-.38.13-.39.13-.38.13-.38.13-.39.14-.38.14-.38.14-.38.14-.38.13-.38.14-.38.14-.38.14-.38.14-.38.14-.37.14-.37.15-.38.15-.38.15-.37.15-.37.15-.37.15-.37.15-.38.15-.37.16-.37.15-.37.16-.37.15-.37.16-.36.16-.37.16-.37.16-.37.17-.37.17-.37.17-.37.17-.36.17-.37.17-.36.17-.37.17-.37.17-.36.17-.36.17-.36.17-.36.18-.36.18-.36.18-.36.18-.36.18-.35.18-.36.18-.36.18-.35.18-.36.19-.36.18-.35.19-.36.19-.35.19-.35.19-.35.19-.35.19-.35.19-.35.19-.35.19-.35.2-.34.2-.34.2-.35.2-.34.2-.35.2-.34.2-.34.21-.34.2-.34.21-.34.2-.34.21-.34.21-.34.21-.34.21-.34.21-.34.21-.33.22-.34.22-.33.21-.34.22-.33.22-.33.22-.33.22-.33.22-.33.22-.33.22-.33.22-.33.22-.33.23-.33.22-.33.23-.32.22-.33.23-.32.23-.32.23-.33.23-.33.24-.32.23-.32.23-.32.23-.32.24-.32.24-.32.24-.32.24-.31.24-.31.24-.31.24-.31.24-.31.24-.31.25-.31.25-.31.25-.31.25-.31.25-.31.25-.31.25-.3.25-.31.25-.3.25-.3.25-.3.26-.3.26-.3.25-.3.25-.3.26-.3.26-.3.26-.3.26-.3.27-.3.26-.3.26-.29.26-.3.26-.29.27-.3.27-.29.27-.29.27-.29.27-.29.27-.29.27-.29.27-.29.27-.28.27-.28.278-.28.28-.28.28-.28.28-.29.28-.28.28-.28.28-.28.28-.28.28-.28.28-.27.286-.28.28-.28.28-.28.28-.27.29-.28.29-.27.29-.27.29-.27.29-.27.29-.27.29-.27.29-.26.3-.27.3-.27.3-.26.3-.26.29-.26.3-.26.29-.26.3-.26.3-.26.3-.26.3-.26.3-.26.3-.26.31-.26.3-.25.3-.25.3-.25.3-.25.31-.25.31-.25.31-.25.31-.24.31-.24.31-.25.31-.24.31-.25.31-.24.31-.24.32-.24.31-.24.32-.24.31-.24.31-.24.32-.24.32-.24.32-.24.32-.23.32-.23.32-.23.32-.23.32-.23.32-.23.33-.23.33-.22.32-.227.33-.23.32-.22.32-.22.33-.22.33-.22.33-.22.33-.22.33-.22.33-.22.33-.217.33-.21.33-.21.34-.21.34-.22.34-.21.34-.21.33-.21.33-.21.34-.21.34-.21.34-.21.34-.2.34-.2.35-.2.34-.21.34-.2.34-.2.34-.2.35-.19.35-.2.35-.2.34-.19.35-.19.34-.2.35-.19.35-.19.35-.19.35-.19.35-.18.35-.19.35-.19.35-.18.35-.19.35-.18.36-.18.36-.18.36-.18.36-.18.36-.18.36-.18.36-.17.36-.17.36-.17.36-.17.36-.17.36-.17.37-.17.36-.17.36-.16.36-.16.37-.17.36-.16.37-.16.36-.16.37-.16.37-.16.37-.16.37-.15.37-.15.37-.15.37-.15.37-.15.37-.15.37-.15.37-.15.37-.15.38-.15.38-.14.37-.15.38-.15.38-.14.37-.14.38-.14.37-.14.38-.13.38-.14.38-.13.38-.13.38-.13.38-.13.38-.14.39-.13.38-.13.38-.13.38-.12.39-.12.38-.12.39-.13.39-.12.39-.12.39-.12.39-.12.39-.12.39-.12.39-.12.39-.11.39-.11.39-.12.39-.11.39-.11.39-.11.39-.1.39-.11.39-.1.4-.1.4-.1.4-.1.4-.1.4-.1.39-.1.4-.09.4-.09.4-.09.4-.09.4-.09.4-.09.4-.09.4-.09.4-.08.4-.09.4-.08.4-.09.41-.08.4-.08.41-.08.4-.08.4-.08.4-.08.41-.07.4-.07.41-.07.4-.07.41-.07.41-.07.4-.06.41-.07.41-.07.41-.06.41-.06.41-.06.41-.06.41-.06.41-.05.41-.06.42-.06.41-.06.41-.05.41-.05.41-.05.41-.05.42-.05.41-.04.41-.04.414-.05.42-.04.42-.04.42-.04.42-.04.42-.04.41-.04.42-.03.41-.03.42-.03.41-.03.42-.03.42-.03.42-.02.42-.03.42-.03.42-.02.42-.02.42-.02.42-.02.42-.02.42-.01.42-.01.42-.01.42-.01.43-.01.43-.01h.42l.43-.01.42-.01.43-.01h1.28zm-.84 4.13h-.41l-.413.004-.412.005-.412.01-.41.01-.412.01-.41.01-.41.01-.412.02-.41.02-.41.02-.408.02-.408.02-.41.02-.407.02-.408.03-.407.02-.407.03-.4.03-.4.03-.4.03-.4.03-.4.03-.4.03-.4.03-.4.04-.4.04-.4.04-.4.04-.4.04-.4.04-.4.04-.4.04-.4.04-.4.05-.4.05-.4.05-.4.05-.4.05-.4.05-.4.06-.4.05-.39.05-.4.05-.39.06-.4.06-.39.06-.4.06-.4.06-.39.06-.39.06-.4.07-.4.07-.39.07-.39.07-.39.07-.39.07-.39.07-.39.08-.39.08-.39.08-.39.08-.39.08-.39.08-.39.08-.39.09-.38.08-.39.08-.39.09-.38.09-.38.09-.39.09-.38.09-.38.1-.38.09-.38.09-.38.09-.38.1-.38.1-.38.1-.39.1-.38.1-.38.1-.38.11-.38.1-.38.1-.38.11-.37.11-.38.11-.38.11-.37.11-.37.12-.38.12-.37.12-.38.11-.38.12-.37.12-.38.12-.37.12-.37.12-.37.12-.37.13-.37.13-.37.13-.37.13-.37.13-.37.13-.36.13-.37.13-.37.14-.36.13-.37.13-.36.14-.36.13-.36.14-.36.14-.36.14-.36.14-.36.14-.36.15-.36.14-.36.14-.36.15-.36.15-.36.15-.36.15-.36.15-.36.16-.36.15-.36.16-.35.16-.36.15-.36.16-.35.16-.36.16-.35.16-.35.17-.35.16-.35.17-.35.17-.35.16-.35.16-.35.17-.35.17-.35.17-.35.17-.35.17-.35.17-.35.18-.34.18-.34.18-.34.18-.34.18-.35.18-.34.18-.34.18-.34.19-.34.19-.34.18-.34.19-.34.19-.34.19-.34.19-.33.19-.33.19-.34.19-.33.19-.33.19-.34.19-.33.19-.33.2-.33.2-.34.2-.33.2-.33.2-.33.2-.33.2-.33.2-.32.21-.32.2-.33.21-.32.21-.33.21-.32.21-.32.21-.32.21-.32.21-.32.21-.32.21-.32.21-.32.22-.32.21-.32.22-.32.22-.32.22-.32.21-.31.22-.31.22-.31.22-.31.22-.31.22-.31.23-.31.23-.31.22-.31.23-.31.23-.31.23-.3.23-.3.23-.3.24-.31.23-.31.24-.3.24-.3.24-.3.23-.3.24-.3.24-.3.24-.3.24-.3.24-.29.24-.29.24-.3.24-.3.25-.29.25-.29.24-.29.24-.3.25-.29.25-.29.24-.29.25-.29.25-.29.25-.28.25-.29.25-.29.26-.29.26-.28.25-.28.26-.28.26-.28.26-.28.26-.28.26-.28.26-.28.26-.28.26-.28.26-.28.26-.28.27-.27.27-.27.26-.28.26-.27.27-.27.27-.27.27-.27.27-.27.28-.27.28-.27.28-.27.27-.26.28-.26.27-.26.27-.26.28-.27.27-.26.28-.26.28-.26.28-.26.29-.26.28-.26.28-.26.29-.25.29-.25.28-.25.29-.25.28-.25.29-.25.29-.25.29-.25.29-.25.29-.25.29-.25.29-.25.29-.25.29-.24.3-.24.3-.24.3-.25.3-.24.3-.24.3-.24.3-.24.3-.24.3-.24.3-.23.3-.24.3-.23.3-.23.3-.23.31-.23.31-.23.31-.23.31-.23.31-.23.31-.23.31-.23.31-.22.31-.22.31-.22.32-.22.31-.22.31-.22.32-.22.31-.22.32-.22.31-.21.32-.22.32-.22.32-.22.32-.22.32-.21.32-.21.32-.21.33-.21.32-.21.33-.2.32-.2.33-.2.32-.2.32-.2.32-.2.33-.2.33-.2.33-.2.33-.2.33-.2.33-.2.33-.19.33-.19.33-.2.33-.2.33-.19.34-.2.33-.19.34-.19.34-.19.34-.19.34-.18.33-.18.34-.19.34-.19.34-.18.34-.18.34-.18.34-.18.34-.18.34-.18.35-.18.35-.18.34-.17.35-.17.34-.18.35-.17.35-.17.35-.17.35-.17.35-.17.35-.17.35-.17.35-.16.35-.17.35-.16.35-.16.35-.16.35-.16.35-.16.36-.16.36-.16.36-.16.36-.16.36-.15.35-.15.36-.15.36-.15.36-.15.36-.14.36-.14.36-.15.36-.15.36-.14.36-.14.36-.14.36-.14.36-.14.36-.14.36-.14.37-.14.36-.13.37-.13.36-.13.37-.13.37-.13.37-.13.37-.13.37-.13.37-.13.37-.12.37-.12.37-.12.37-.12.37-.12.37-.12.38-.12.37-.11.37-.12.37-.11.38-.11.38-.11.38-.11.38-.11.38-.11.38-.11.38-.11.38-.11.38-.1.38-.1.38-.11.38-.1.38-.1.38-.1.38-.1.38-.1.38-.1.38-.09.38-.09.39-.09.38-.09.38-.09.38-.09.38-.09.39-.09.39-.08.39-.09.39-.08.39-.08.39-.08.39-.08.39-.08.39-.08.39-.07.39-.08.4-.07.39-.07.39-.07.39-.07.4-.07.39-.06.39-.06.4-.06.39-.06.39-.06.4-.06.39-.06.4-.06.4-.05.4-.06.4-.05.4-.05.4-.06.4-.05.39-.05.4-.05.4-.05.4-.04.4-.04.4-.04.4-.04.4-.04.4-.04.4-.04.4-.04.4-.04.4-.04.41-.03.4-.03.41-.03.41-.03.4-.03.4-.03.4-.02.41-.02.41-.02.4-.02.41-.02.41-.02.41-.02.41-.02.41-.02.4-.02.41-.02.41-.01.41-.01.41-.01.41-.01.41-.01.42-.01.41v2.88l.01.41v.41l.01.41.01.41.01.41.01.41.01.41.01.41.02.41.02.41.02.41.02.41.02.41.02.41.02.41.02.4.03.41.02.4.02.41.03.4.03.4.03.41.03.4.04.4.04.41.03.4.04.4.04.4.04.41.04.41.04.4.04.4.05.4.05.4.05.4.05.4.05.4.05.4.06.39.06.4.06.4.06.4.06.4.06.39.06.4.06.4.06.39.06.4.06.39.06.39.07.4.07.4.07.39.07.39.07.4.08.39.07.39.07.39.08.39.08.39.08.39.08.39.08.39.08.39.08.39.08.39.09.39.09.38.08.39.09.39.09.38.09.39.09.38.1.38.1.39.1.38.09.39.1.38.1.38.1.38.1.38.1.38.11.38.11.38.11.38.11.38.11.38.11.37.11.37.12.38.11.38.12.37.12.37.12.38.12.38.12.38.12.38.12.38.13.37.12.37.13.37.13.37.13.37.13.37.13.37.13.37.13.37.13.37.13.37.14.36.14.36.14.37.14.37.14.36.14.36.14.36.14.37.14.36.14.36.15.36.14.36.15.36.15.36.15.36.15.36.15.36.15.36.15.36.16.36.16.35.16.35.16.35.16.35.16.36.16.35.16.35.16.35.17.35.17.35.16.35.17.35.17.35.17.35.17.35.17.35.17.35.17.34.17.34.18.34.18.34.18.34.18.34.18.34.18.34.18.34.18.34.18.34.19.34.18.34.18.34.18.33.19.33.19.33.19.33.19.33.2.33.2.33.19.33.2.33.2.33.19.33.2.33.2.33.2.33.2.33.2.33.21.33.21.33.2.32.21.32.21.32.21.32.21.33.21.32.21.32.21.32.22.32.21.32.21.32.22.32.22.32.21.32.22.31.22.32.22.32.22.31.23.32.22.31.22.31.23.31.23.31.23.31.23.31.23.31.23.31.23.31.24.3.23.31.23.31.23.3.24.3.24.31.24.3.24.3.23.3.24.3.24.3.24.29.24.3.25.3.25.29.24.29.24.3.24.29.25.3.25.29.25.29.25.29.25.29.25.29.26.28.26.29.25.29.25.29.26.28.25.28.26.29.26.28.26.28.26.28.26.28.26.28.26.28.26.28.26.28.26.28.26.28.26.28.27.28.27.27.27.27.27.28.27.27.27.27.27.27.28.27.27.27.27.27.27.26.28.27.27.26.28.27.28.26.28.26.28.26.28.26.28.26.28.26.29.26.29.26.28.26.28.25.29.25.29.26.29.25.29.26.29.25.29.25.29.25.29.25.29.25.29.25.29.24.29.25.3.24.3.24.29.24.29.24.3.24.3.24.3.24.3.24.3.24.3.23.3.24.3.24.31.23.3.23.31.23.31.23.31.23.31.23.31.23.3.23.31.23.31.22.31.23.31.22.31.22.31.22.31.22.32.22.32.22.31.22.32.21.31.22.32.22.31.22.32.21.32.22.32.21.32.21.32.21.33.21.32.2.32.21.33.21.32.2.33.21.33.2.33.2.33.2.33.2.33.2.33.2.33.2.33.2.33.2.33.19.33.19.33.19.34.2.34.19.34.19.34.19.33.19.34.19.34.19.34.18.34.19.34.19.34.18.34.18.34.18.35.18.34.18.34.17.34.18.35.18.34.17.34.18.35.17.34.17.35.17.35.17.35.17.35.17.35.16.35.16.35.17.35.16.35.16.36.16.35.16.36.16.36.15.36.16.36.15.36.15.36.16.36.16.36.15.36.15.36.15.36.15.36.14.36.15.36.14.36.15.36.14.36.14.36.14.37.14.36.14.36.13.37.13.37.14.36.13.37.13.36.13.37.13.37.13.37.13.37.13.37.12.37.13.37.13.37.12.38.12.37.12.37.12.37.12.37.12.38.11.38.11.37.12.37.12.38.11.38.11.37.11.38.11.38.11.38.1.38.11.38.1.38.1.38.1.39.1.38.1.38.1.39.1.38.09.38.09.39.09.38.09.38.09.38.09.39.09.39.08.39.08.39.09.38.08.39.08.39.08.39.08.39.08.39.08.39.08.39.08.39.07.39.07.39.07.4.07.39.07.39.07.4.07.39.07.39.07.4.06.4.06.39.06.4.06.4.06.4.06.39.06.4.05.4.05.4.06.4.05.4.05.4.05.4.05.4.04.4.05.4.04.4.04.4.04.41.04.41.04.4.04.4.03.41.04.4.03.4.03.4.03.41.03.41.03.4.03.41.03.4.02.41.03.4.03.41.02.41.02.41.02.4.02.41.02.41.01.41.02.41.02.41.01.41.01.41.01h.41l.41.01h2.4l.41-.01h1.24l.41-.01.41-.01.41-.01.41-.01.41-.01.41-.01.41-.01.41-.02.41-.02.41-.02.41-.02.41-.03.41-.02.4-.03.41-.03.41-.03.41-.03.4-.03.41-.03.4-.03.4-.03.41-.03.41-.04.41-.03.4-.04.4-.04.41-.04.4-.05.4-.05.4-.05.4-.05.4-.05.4-.05.4-.05.4-.05.4-.06.4-.05.4-.05.4-.06.4-.06.4-.05.39-.06.4-.06.4-.07.4-.06.4-.07.4-.07.39-.07.39-.07.39-.07.4-.07.39-.07.39-.07.39-.07.39-.08.39-.08.39-.08.39-.08.39-.08.39-.08.39-.08.38-.08.39-.08.39-.09.39-.09.38-.09.39-.09.38-.09.39-.09.38-.09.39-.1.38-.1.38-.1.38-.1.39-.1.38-.1.38-.1.38-.1.38-.1.38-.1.38-.1.38-.11.38-.11.38-.11.38-.11.38-.11.37-.11.38-.11.38-.11.38-.12.38-.12.37-.12.37-.12.37-.12.38-.12.37-.13.37-.12.37-.13.37-.13.37-.12.37-.13.37-.12.36-.13.36-.13.37-.13.36-.14.37-.13.37-.14.36-.13.36-.14.36-.14.37-.14.36-.14.37-.15.36-.15.36-.14.36-.15.36-.15.36-.15.36-.15.36-.15.36-.15.36-.15.36-.15.35-.16.36-.16.35-.16.36-.15.35-.16.36-.16.36-.16.36-.16.35-.16.36-.17.35-.17.35-.17.35-.17.35-.17.34-.17.35-.17.35-.17.35-.17.35-.18.35-.17.34-.17.34-.18.34-.17.34-.18.34-.18.34-.18.34-.18.34-.18.34-.18.34-.18.34-.18.34-.18.34-.19.34-.19.34-.19.34-.19.33-.19.34-.19.33-.19.33-.19.33-.19.33-.2.33-.2.33-.2.33-.2.33-.2.33-.2.33-.2.33-.21.33-.2.33-.2.32-.2.33-.21.33-.2.32-.21.32-.21.32-.21.32-.21.32-.21.32-.21.32-.21.32-.21.32-.22.32-.22.32-.22.32-.22.31-.22.32-.22.31-.22.32-.23.31-.22.31-.23.31-.23.31-.22.31-.23.31-.23.31-.23.31-.23.31-.23.31-.23.31-.23.31-.23.3-.23.31-.23.31-.23.3-.24.3-.24.3-.24.3-.24.3-.24.3-.24.3-.24.29-.25.3-.25.29-.25.29-.25.29-.24.29-.24.29-.25.29-.25.29-.25.29-.25.29-.25.29-.25.29-.25.28-.26.29-.25.29-.26.28-.26.28-.25.29-.26.28-.26.28-.26.28-.26.28-.26.28-.26.28-.27.28-.26.27-.26.28-.26.27-.27.27-.27.27-.26.27-.27.27-.27.28-.27.27-.27.27-.27.27-.27.27-.27.27-.28.26-.27.26-.28.26-.28.26-.28.26-.28.27-.28.26-.28.26-.28.26-.28.26-.28.26-.28.26-.28.25-.29.26-.28.25-.28.25-.29.25-.29.26-.29.25-.29.25-.29.25-.29.25-.29.25-.29.24-.29.25-.3.24-.29.24-.3.25-.3.25-.29.24-.29.24-.3.24-.3.24-.3.24-.3.23-.3.24-.3.24-.3.23-.3.23-.3.23-.31.23-.31.23-.31.23-.31.23-.3.23-.31.22-.31.23-.31.23-.31.22-.31.23-.32.23-.32.22-.31.22-.31.22-.31.22-.31.22-.31.22-.31.22-.31.22-.32.22-.32.21-.31.21-.32.21-.33.21-.32.21-.32.21-.33.21-.32.21-.32.21-.32.2-.32.2-.33.2-.33.2-.33.2-.33.2-.33.2-.33.2-.33.2-.33.19-.33.2-.33.19-.33.2-.33.19-.33.19-.33.19-.34.19-.34.19-.33.19-.33.19-.34.19-.34.18-.34.19-.34.18-.34.18-.34.18-.34.18-.34.18-.34.18-.35.18-.35.18-.34.17-.34.17-.34.17-.35.18-.35.17-.35.17-.35.17-.35.17-.35.17-.35.17-.35.17-.35.16-.35.16-.35.16-.35.16-.36.16-.36.16-.36.15-.35.16-.36.15-.35.15-.36.15-.36.15-.35.15-.36.15-.36.15-.36.15-.36.15-.36.15-.36.15-.37.14-.36.14-.36.14-.36.14-.36.14-.36.14-.37.14-.36.13-.36.14-.37.13-.37.13-.36.13-.36.13-.37.13-.36.13-.37.12-.37.13-.37.12-.37.12-.37.13-.37.12-.37.12-.37.12-.38.12-.37.12-.38.12-.37.12-.37.11-.38.11-.37.11-.37.11-.38.11-.37.11-.38.11-.38.11-.38.11-.38.1-.38.1-.38.1-.38.1-.38.1-.39.1-.38.09-.39.11-.36.09-.38.09-.38.09-.38.09-.39.09-.38.09-.38.09-.39.09-.38.08-.39.09-.39.08-.39.09-.39.08-.39.08-.39.08-.39.08-.39.08-.39.08-.39.07-.39.07-.4.07-.4.07-.39.07-.39.07-.39.06-.4.07-.4.06-.39.06-.4.06-.39.06-.4.06-.4.06-.4.06-.4.06-.4.05-.4.05-.4.05-.4.05-.4.05-.4.04-.4.05-.4.05-.4.05-.4.04-.4.04-.41.04-.4.04-.4.04-.4.04-.4.03-.41.03-.4.03-.4.03-.4.03-.41.03-.4.03-.41.03-.41.03-.41.03-.41.02-.41.02-.41.02-.41.02-.41.02-.41.02-.41.01-.41.01-.41.01-.41.01-.41.01-.41.01-.41v-.41l.01-.41v-2.46l-.01-.41v-.41l-.01-.41-.01-.41-.01-.41-.01-.41-.01-.41-.02-.41-.01-.41-.01-.41-.02-.41-.02-.41-.02-.41-.02-.41-.02-.4-.02-.41-.03-.41-.02-.41-.03-.4-.03-.4-.03-.41-.03-.41-.03-.4-.04-.41-.03-.4-.03-.4-.04-.4-.04-.41-.04-.4-.04-.4-.04-.4-.04-.4-.05-.4-.05-.4-.04-.4-.05-.4-.05-.4-.05-.4-.05-.4-.05-.4-.05-.4-.05-.4-.05-.4-.06-.4-.06-.4-.06-.4-.06-.4-.06-.39-.06-.4-.06-.4-.06-.39-.07-.39-.07-.39-.07-.4-.07-.39-.07-.39-.08-.39-.07-.39-.08-.39-.08-.39-.08-.39-.08-.39-.08-.39-.08-.39-.09-.39-.09-.39-.09-.38-.09-.38-.09-.39-.09-.38-.09-.39-.09-.39-.1-.38-.09-.39-.09-.38-.1-.38-.09-.38-.1-.38-.1-.38-.1-.38-.1-.38-.11-.38-.1-.38-.1-.38-.11-.38-.11-.38-.1-.37-.11-.38-.11-.37-.11-.38-.11-.38-.11-.37-.11-.37-.12-.38-.12-.37-.11-.37-.12-.37-.12-.38-.12-.37-.13-.38-.12-.37-.12-.37-.12-.37-.12-.37-.13-.37-.13-.37-.13-.37-.13-.37-.13-.37-.13-.37-.13-.37-.13-.37-.14-.36-.14-.37-.14-.37-.14-.36-.14-.36-.14-.37-.15-.36-.14-.36-.15-.36-.15-.36-.14-.36-.15-.36-.15-.36-.15-.36-.15-.36-.15-.352-.15-.35-.15-.36-.16-.36-.16-.36-.15-.36-.16-.35-.16-.35-.16-.36-.16-.35-.16-.35-.16-.35-.16-.35-.17-.35-.17-.35-.17-.35-.17-.35-.17-.35-.17-.34-.17-.35-.18-.34-.18-.35-.18-.35-.18-.34-.18-.34-.18-.35-.18-.34-.18-.34-.18-.34-.19-.34-.18-.34-.18-.34-.19-.34-.19-.34-.19-.33-.19-.34-.19-.33-.19-.34-.19-.33-.19-.33-.19-.34-.2-.33-.2-.33-.19-.33-.2-.33-.2-.33-.2-.33-.2-.33-.2-.33-.21-.33-.21-.33-.2-.32-.21-.32-.21-.33-.2-.32-.21-.32-.21-.32-.21-.32-.21-.32-.21-.32-.21-.32-.22-.32-.3-.32-.22-.32-.21-.31-.22-.32-.22-.32-.22-.31-.22-.32-.22-.31-.22-.31-.22-.31-.23-.31-.23-.31-.22-.31-.22-.31-.23-.31-.23-.31-.23-.31-.23-.3-.23-.31-.23-.31-.23-.3-.23-.31-.24-.3-.23-.3-.24-.3-.23-.3-.24-.3-.24-.3-.24-.3-.24-.3-.25-.3-.24-.3-.25-.3-.25-.3-.24-.29-.25-.29-.24-.3-.25-.29-.25-.3-.25-.29-.25-.29-.25-.29-.25-.29-.25-.29-.26-.29-.26-.29-.26-.29-.25-.28-.26-.28-.26-.28-.26-.28-.26-.28-.26-.28-.26-.28-.26-.28-.26-.28-.26-.28-.27-.27-.27-.28-.27-.27-.27-.28-.27-.27-.27-.27-.27-.27-.27-.27-.27-.27-.27-.27-.28-.27-.27-.27-.27-.27-.27-.263-.28-.26-.27-.27-.28-.26-.28-.26-.28-.26-.28-.26-.28-.26-.28-.26-.28-.26-.29-.26-.28-.26-.28-.26-.3-.26-.29-.25-.29-.25-.29-.26-.29-.25-.29-.25-.29-.25-.29-.25-.295-.25-.29-.24-.3-.25-.3-.25-.3-.25-.29-.25-.29-.25-.29-.25-.3-.24-.29-.24-.3-.24-.3-.24-.3-.24-.3-.24-.3-.24-.3-.23-.3-.23-.3-.23-.31-.23-.31-.23-.31-.23-.31-.23-.31-.23-.31-.23-.3-.23-.31-.22-.31-.23-.31-.23-.31-.22-.32-.23-.32-.22-.31-.22-.31-.22-.32-.22-.31-.22-.32-.22-.32-.22-.32-.21-.32-.22-.32-.22-.32-.21-.32-.21-.33-.21-.33-.21-.32-.21-.33-.2-.32-.2-.32-.21-.33-.2-.33-.21-.33-.2-.33-.2-.33-.2-.33-.2-.33-.2-.33-.19-.33-.2-.33-.2-.33-.19-.33-.19-.33-.2-.34-.19-.33-.19-.33-.19-.33-.19-.33-.19-.34-.19-.33-.19-.34-.19-.34-.18-.34-.19-.34-.18-.34-.18-.343-.18-.34-.18-.34-.18-.34-.17-.34-.18-.35-.17-.35-.18-.35-.18-.35-.17-.35-.17-.34-.17-.35-.17-.35-.17-.35-.17-.35-.17-.35-.16-.35-.16-.36-.16-.35-.16-.35-.16-.35-.16-.35-.16-.36-.16-.36-.16-.35-.16-.36-.15-.35-.16-.36-.16-.36-.15-.36-.15-.36-.15-.36-.15-.36-.15-.36-.14-.36-.14-.36-.14-.36-.14-.37-.14-.36-.14-.36-.14-.36-.14-.37-.14-.37-.13-.365-.14-.37-.13-.36-.13-.36-.132-.37-.13-.37-.13-.37-.13-.37-.13-.37-.12-.37-.13-.37-.12-.37-.13-.37-.12-.38-.12-.37-.12-.37-.12-.376-.12-.38-.12-.37-.12-.37-.12-.38-.11-.37-.11-.38-.11-.38-.11-.37-.11-.38-.11-.38-.11-.38-.11-.38-.1-.38-.11-.38-.1-.38-.1-.38-.1-.39-.1-.38-.1-.38-.1-.38-.09-.39-.09-.39-.09-.38-.09-.38-.09-.38-.09-.39-.09-.38-.09-.39-.09-.39-.08-.39-.09-.39-.08-.39-.08-.39-.08-.39-.08-.39-.08-.39-.08-.39-.08-.39-.07-.39-.07-.39-.074-.39-.07-.4-.07-.39-.07-.39-.06-.39-.06-.39-.06-.39-.07-.4-.07-.4-.06-.4-.06-.4-.06-.4-.05-.4-.06-.4-.06-.4-.05-.39-.05-.4-.05-.4-.05-.39-.05-.4-.05-.4-.05-.4-.05-.4-.05-.4-.04-.4-.04-.4-.04-.41-.04-.4-.04-.4-.03-.4-.03-.41-.03-.4-.03-.4-.03-.4-.03-.41-.03-.4-.03-.41-.03-.4-.02-.41-.02-.41-.02-.41-.02-.41-.02-.41-.02-.41-.02-.41-.02-.41-.02-.41-.02-.41-.01-.41-.01-.41-.01-.41-.01h-.41l-.41-.01h-.41l-.41-.01-.41-.01h-.83z"/>
  <circle cx="246.271" cy="479.825" r="106.161" fill="#66b245"/>
  <path fill="#fff" d="M246.62 371.6l.35.002.35.003.348.003.35.005.347.007.35.007.346.008.35.01.35.01.35.01.35.014.35.01.35.01.35.01.35.01.35.02.35.01.35.02.35.02.35.02.34.02.35.02.35.02.35.03.34.03.34.03.34.03.34.03.34.03.34.03.34.03.34.03.35.04.34.04.34.04.34.04.34.04.33.04.34.04.34.04.34.04.34.04.34.04.34.05.34.05.34.05.34.05.34.05.34.05.34.05.33.05.34.06.33.05.33.06.33.06.34.06.33.06.33.06.33.06.34.06.33.06.33.06.33.07.33.06.33.07.33.07.33.07.33.07.33.07.33.07.32.07.33.08.33.07.32.08.33.08.33.08.33.08.33.08.33.08.32.08.32.08.33.08.32.09.33.09.32.09.32.09.32.09.32.09.32.09.32.09.32.09.32.1.32.1.32.1.32.1.32.09.32.1.32.1.31.1.31.1.31.11.31.1.32.11.32.11.32.11.31.11.31.11.31.11.31.11.31.11.31.11.31.11.31.12.31.12.31.12.31.12.31.12.31.12.31.12.31.12.31.12.3.12.3.13.3.13.31.13.31.12.3.13.31.13.3.13.3.13.3.13.3.13.3.13.3.14.3.13.3.14.3.14.3.13.3.14.3.14.3.14.29.15.3.14.3.14.3.14.3.15.3.15.29.15.29.15.3.15.29.15.29.15.29.15.29.15.29.15.29.15.29.15.29.15.29.16.29.16.29.16.29.16.29.15.29.16.29.16.28.16.29.16.28.16.29.16.28.16.28.17.28.17.28.17.28.17.28.17.28.17.28.17.28.17.28.17.27.18.27.18.28.17.28.18.27.18.27.18.27.18.27.18.27.18.27.18.27.18.27.18.27.18.27.18.27.18.27.18.27.18.27.19.27.19.26.19.26.19.26.19.26.19.27.19.26.19.26.19.26.19.26.19.26.19.26.2.26.2.26.2.26.2.26.2.26.2.26.2.26.2.26.2.26.2.25.2.25.21.26.2.25.21.25.2.25.21.25.21.25.21.25.21.25.21.25.21.24.21.25.22.25.21.25.21.25.21.25.21.25.21.24.22.24.22.24.22.24.22.24.22.23.22.24.22.24.22.23.22.23.22.23.22.23.22.23.22.24.23.24.23.23.22.23.23.23.23.23.22.23.23.23.23.22.23.23.24.23.24.23.23.22.23.22.24.22.24.22.24.22.24.22.23.22.24.22.23.22.24.22.24.22.24.22.24.22.24.21.24.22.24.21.24.22.25.21.25.21.24.21.25.21.25.21.25.21.25.21.25.21.25.21.25.2.25.2.25.2.25.21.25.2.25.2.25.2.25.2.25.2.25.2.25.2.26.2.25.2.26.19.26.19.26.2.26.2.26.2.26.19.26.19.26.19.26.2.26.19.27.19.26.19.27.18.26.18.26.19.27.18.27.18.27.18.27.19.27.19.27.18.27.18.27.18.28.18.27.18.27.18.27.17.27.18.27.18.27.18.28.17.28.18.28.17.28.17.28.17.28.17.28.17.28.17.28.17.28.17.28.16.28.17.28.16.28.16.28.16.29.16.29.16.29.16.28.16.29.16.28.15.29.16.29.15.28.15.29.16.29.15.29.15.29.15.29.15.29.15.29.15.3.15.3.15.3.15.3.15.29.14.29.14.3.14.29.14.3.15.3.14.29.13.3.14.3.14.3.13.3.14.3.14.3.13.3.14.3.13.3.13.3.13.3.13.31.13.3.13.3.13.31.12.3.13.31.12.3.12.31.12.3.13.3.12.31.12.31.11.31.12.3.12.31.11.31.12.31.11.31.11.31.11.32.12.31.11.31.11.31.11.31.11.32.11.31.11.32.1.32.1.31.1.31.1.32.1.32.1.32.1.32.1.32.1.32.1.32.09.32.1.32.09.32.09.32.09.33.09.32.09.32.09.32.09.33.09.33.08.33.09.33.08.33.08.32.08.32.08.33.08.33.08.33.07.32.08.32.08.33.07.33.07.33.07.33.07.33.07.33.07.33.07.33.07.33.07.33.06.33.06.33.06.33.07.33.06.33.06.33.06.33.06.33.06.33.06.33.05.33.05.33.06.33.05.34.05.34.05.34.05.34.04.33.05.34.05.34.05.34.05.34.04.34.05.33.04.34.04.34.04.34.03.34.04.34.03.34.03.34.03.34.03.34.03.34.03.34.03.35.03.34.03.35.03.34.02.35.02.34.02.35.02.35.02.34.02.34.01.34.02.35.02.34.02.34.01.35.01.35.01.35.01.35.01.35.01.35.01.35.01.35.01.34v3.16l-.01.35-.01.35-.01.35-.01.35-.01.35-.01.35-.01.34-.01.35-.01.35-.01.35-.02.34-.02.34-.02.35-.02.34-.02.34-.02.34-.02.35-.02.34-.02.35-.03.34-.03.34-.03.34-.03.35-.03.34-.04.34-.03.34-.03.34-.04.34-.04.34-.04.34-.04.34-.04.34-.04.34-.04.33-.04.34-.04.34-.05.33-.04.34-.05.33-.05.34-.05.34-.05.33-.05.33-.06.34-.05.33-.06.33-.06.34-.06.34-.06.33-.06.33-.06.33-.06.34-.06.33-.06.33-.06.33-.06.33-.06.33-.07.33-.07.33-.07.33-.07.33-.07.33-.07.33-.07.33-.07.33-.07.33-.07.32-.07.33-.08.33-.08.32-.08.33-.08.32-.08.32-.08.33-.08.32-.09.32-.09.32-.09.33-.08.32-.09.32-.09.32-.09.32-.09.32-.1.32-.09.32-.09.32-.09.32-.1.32-.1.32-.1.32-.1.32-.1.32-.1.31-.1.31-.11.32-.1.32-.1.31-.1.31-.11.32-.1.31-.11.31-.11.31-.11.31-.11.31-.11.31-.11.31-.12.31-.12.31-.11.31-.12.31-.11.31-.12.31-.12.31-.12.3-.12.3-.12.31-.12.31-.13.31-.12.3-.12.3-.13.31-.13.3-.13.3-.13.31-.13.3-.13.3-.13.3-.14.3-.14.3-.13.3-.13.3-.13.3-.13.3-.14.29-.14.3-.14.3-.14.3-.14.29-.14.3-.14.29-.14.3-.14.29-.15.29-.15.29-.15.29-.15.29-.15.29-.15.29-.15.29-.15.3-.16.29-.16.29-.15.29-.16.29-.15.28-.16.29-.15.29-.16.29-.16.29-.16.28-.16.29-.16.28-.17.29-.16.28-.16.28-.16.28-.16.28-.17.28-.16.28-.17.28-.17.28-.17.28-.17.28-.17.28-.17.28-.17.28-.17.28-.17.27-.17.27-.18.27-.17.28-.17.27-.18.27-.18.27-.18.27-.18.27-.18.27-.18.27-.19.27-.18.27-.19.26-.18.27-.19.27-.18.26-.19.26-.19.27-.19.27-.19.26-.19.26-.2.26-.2.26-.2.26-.19.26-.19.26-.2.26-.19.26-.2.26-.2.26-.2.26-.2.26-.2.26-.2.25-.2.26-.21.26-.2.25-.2.25-.21.25-.2.25-.21.25-.21.25-.2.25-.21.25-.21.25-.21.25-.21.24-.21.25-.21.24-.21.25-.21.25-.21.24-.22.24-.21.24-.22.24-.22.24-.22.24-.22.24-.22.24-.22.24-.22.24-.22.24-.22.24-.22.23-.22.23-.22.23-.23.23-.22.24-.22.23-.23.23-.23.23-.22.23-.23.23-.23.23-.23.22-.23.23-.23.23-.23.23-.24.22-.23.23-.24.22-.23.23-.24.23-.24.22-.24.22-.24.22-.24.22-.24.22-.24.22-.24.22-.25.21-.24.22-.25.22-.24.21-.24.21-.24.21-.25.22-.25.21-.25.22-.25.21-.25.21-.25.21-.25.2-.25.21-.25.21-.25.21-.25.2-.25.21-.25.21-.25.21-.25.2-.26.2-.25.2-.26.2-.25.2-.26.2-.26.2-.26.2-.26.2-.26.19-.26.2-.26.19-.26.2-.26.19-.26.19-.26.19-.27.19-.27.19-.27.19-.26.19-.27.19-.27.19-.26.19-.27.19-.27.19-.27.18-.27.18-.27.19-.27.18-.27.18-.27.18-.27.18-.27.18-.27.18-.28.18-.27.18-.27.18-.27.17-.28.17-.28.18-.28.17-.28.17-.28.17-.27.17-.28.17-.28.17-.28.17-.28.16-.28.16-.29.16-.29.16-.28.17-.29.16-.29.16-.28.16-.29.16-.29.16-.29.16-.29.16-.29.16-.29.15-.29.15-.29.16-.29.15-.29.15-.29.15-.29.15-.29.15-.3.15-.29.15-.3.14-.29.14-.29.15-.3.15-.3.15-.3.14-.3.14-.29.14-.29.14-.3.14-.3.14-.3.13-.3.13-.3.14-.3.13-.3.14-.3.13-.3.13-.3.13-.3.13-.3.13-.31.12-.3.13-.3.13-.31.12-.3.13-.31.12-.31.12-.3.12-.31.13-.31.12-.31.12-.31.12-.31.12-.31.12-.31.11-.31.11-.31.11-.31.12-.31.11-.31.11-.31.11-.32.11-.31.11-.31.11-.31.1-.31.11-.31.11-.32.1-.32.1-.32.1-.32.1-.32.1-.32.1-.32.09-.32.09-.32.1-.32.09-.32.1-.32.09-.32.09-.32.09-.32.09-.32.09-.32.08-.33.09-.32.09-.32.09-.32.09-.32.08-.32.09-.33.08-.33.08-.32.08-.33.08-.33.07-.33.08-.33.07-.32.08-.33.07-.33.07-.33.07-.33.07-.33.07-.33.07-.33.07-.33.06-.33.07-.34.06-.33.06-.33.06-.33.06-.33.06-.33.06-.33.06-.33.06-.33.06-.33.05-.34.05-.34.05-.34.05-.33.05-.33.05-.34.05-.34.05-.34.05-.34.05-.34.04-.33.04-.34.04-.34.04-.34.04-.34.04-.34.04-.34.04-.34.04-.34.04-.34.04-.34.03-.35.03-.34.03-.34.03-.34.03-.35.02-.34.03-.34.02-.35.03-.34.02-.34.02-.35.02-.34.02-.34.02-.34.02-.35.02-.35.01-.34.01-.35.02-.34.01-.34.01-.35.01-.35.01-.35.01-.35.01-.35.01H245l-.35-.01-.35-.01-.35-.01-.343-.01-.35-.01-.35-.01-.35-.01-.35-.01-.35-.01-.34-.01-.35-.01-.347-.02-.35-.02-.34-.02-.346-.02-.35-.03-.345-.02-.34-.02-.35-.02-.34-.03-.35-.03-.34-.03-.35-.03-.34-.03-.34-.03-.35-.03-.34-.03-.34-.03-.34-.03-.34-.04-.34-.04-.34-.04-.34-.04-.34-.04-.34-.04-.34-.04-.34-.05-.34-.04-.34-.04-.34-.05-.34-.05-.34-.05-.34-.05-.34-.05-.33-.05-.33-.06-.34-.05-.33-.06-.34-.06-.33-.06-.34-.05-.34-.06-.33-.06-.33-.06-.34-.07-.33-.06-.33-.06-.33-.07-.33-.06-.33-.07-.33-.07-.33-.07-.33-.07-.33-.07-.33-.07-.33-.08-.33-.07-.33-.08-.33-.07-.33-.07-.33-.08-.33-.08-.33-.08-.33-.08-.33-.08-.32-.09-.33-.08-.33-.08-.33-.09-.32-.08-.32-.09-.32-.09-.32-.09-.33-.09-.32-.09-.32-.09-.32-.09-.32-.1-.32-.1-.32-.1-.32-.1-.32-.1-.32-.1-.32-.1-.32-.1-.32-.1-.31-.1-.32-.11-.31-.11-.32-.1-.32-.11-.31-.11-.32-.11-.32-.11-.31-.11-.31-.11-.31-.11-.31-.11-.31-.11-.31-.11-.31-.12-.31-.11-.31-.12-.31-.12-.31-.12-.31-.12-.31-.12-.31-.12-.31-.12-.3-.13-.31-.13-.31-.13-.31-.13-.31-.13-.3-.13-.3-.13-.3-.13-.3-.13-.3-.13-.3-.14-.3-.14-.3-.13-.3-.13-.3-.13-.3-.14-.3-.14-.3-.14-.29-.14-.3-.14-.3-.14-.3-.14-.29-.14-.3-.15-.29-.14-.29-.14-.29-.14-.29-.15-.3-.15-.29-.15-.29-.15-.29-.15-.29-.15-.29-.15-.29-.15-.29-.16-.29-.16-.29-.16-.29-.16-.29-.16-.29-.16-.28-.16-.28-.16-.28-.16-.29-.16-.28-.16-.28-.17-.28-.17-.29-.16-.28-.16-.28-.17-.28-.17-.28-.17-.28-.17-.27-.17-.28-.17-.28-.18-.27-.18-.28-.17-.27-.18-.28-.17-.27-.18-.27-.17-.27-.18-.27-.18-.27-.18-.27-.18-.27-.18-.27-.18-.27-.18-.27-.18-.27-.19-.27-.19-.26-.19-.26-.18-.27-.19-.26-.19-.27-.19-.26-.19-.26-.19-.27-.19-.26-.19-.26-.19-.26-.19-.26-.19-.26-.19-.26-.19-.26-.19-.25-.2-.26-.19-.26-.2-.26-.2-.26-.2-.25-.2-.25-.2-.25-.2-.26-.2-.25-.21-.25-.21-.25-.21-.25-.21-.25-.21-.25-.21-.25-.21-.25-.2-.25-.21-.25-.21-.25-.21-.25-.21-.25-.21-.25-.21-.25-.21-.24-.21-.25-.22-.24-.21-.24-.22-.24-.22-.24-.22-.24-.22-.24-.22-.24-.22-.24-.22-.24-.22-.24-.22-.24-.23-.24-.22-.24-.22-.24-.22-.24-.23-.24-.23-.23-.23-.23-.23-.23-.23-.23-.23-.23-.23-.23-.23-.23-.24-.22-.23-.22-.23-.22-.24-.22-.23-.22-.24-.22-.23-.23-.24-.22-.24-.22-.24-.22-.24-.22-.24-.22-.24-.22-.24-.22-.24-.22-.24-.21-.24-.21-.25-.22-.24-.22-.246-.21-.25-.21-.24-.21-.24-.21-.24-.21-.25-.21-.25-.21-.25-.21-.25-.2-.25-.21-.25-.21-.26-.2-.25-.21-.26-.2-.25-.2-.257-.21-.25-.2-.26-.2-.26-.2-.26-.2-.26-.2-.26-.2-.26-.2-.26-.19-.26-.2-.26-.19-.26-.19-.26-.19-.26-.19-.26-.19-.27-.19-.26-.19-.26-.19-.26-.19-.27-.19-.26-.19-.27-.19-.27-.19-.27-.19-.27-.19-.27-.19-.27-.18-.27-.18-.27-.18-.27-.18-.27-.18-.27-.18-.28-.18-.27-.18-.27-.18-.28-.17-.27-.17-.27-.17-.28-.17-.28-.18-.28-.17-.28-.17-.28-.17-.28-.17-.28-.17-.28-.17-.28-.16-.28-.17-.28-.16-.28-.17-.28-.16-.29-.16-.28-.16-.28-.16-.29-.16-.29-.16-.29-.16-.29-.16-.29-.15-.29-.16-.29-.16-.29-.15-.29-.16-.29-.15-.29-.15-.29-.15-.29-.15-.29-.15-.29-.15-.3-.15-.29-.14-.3-.14-.3-.14-.3-.15-.3-.14-.3-.14-.3-.14-.3-.14-.3-.14-.3-.13-.3-.13-.3-.14-.3-.13-.3-.14-.3-.13-.3-.13-.3-.13-.3-.13-.3-.13-.3-.13-.3-.13-.31-.13-.31-.12-.3-.13-.31-.12-.31-.12-.3-.12-.3-.12-.3-.12-.31-.12-.3-.12-.31-.11-.31-.12-.31-.12-.31-.12-.31-.11-.31-.11-.31-.12-.31-.11-.32-.11-.31-.11-.31-.11-.31-.11-.32-.11-.31-.1-.32-.11-.31-.1-.32-.1-.32-.1-.32-.1-.31-.1-.32-.1-.32-.1-.32-.1-.32-.1-.32-.1-.32-.09-.32-.1-.32-.1-.32-.09-.32-.09-.32-.09-.32-.09-.32-.09-.32-.08-.33-.09-.32-.08-.32-.08-.33-.09-.32-.08-.32-.08-.33-.08-.32-.08-.32-.08-.33-.07-.33-.07-.33-.08-.326-.07-.33-.07-.33-.07-.33-.07-.32-.07-.33-.07-.33-.07-.33-.07-.33-.07-.33-.07-.33-.06-.33-.07-.33-.06-.34-.06-.33-.06-.33-.06-.33-.06-.34-.06-.33-.05-.33-.06-.33-.05-.33-.05-.33-.05-.34-.06-.34-.05-.34-.05-.34-.04-.34-.05-.34-.04-.34-.04-.34-.05-.34-.04-.34-.04-.34-.04-.34-.04-.34-.04-.34-.04-.34-.04-.34-.03-.34-.04-.34-.03-.34-.03-.35-.03-.34-.03-.34-.03-.34-.03-.34-.02-.34-.02-.34-.03-.34-.02-.34-.03-.343-.02-.34-.02-.34-.02-.35-.02-.34-.01-.35-.01-.34-.02-.34-.02-.35-.02-.35-.01-.35-.01-.35-.01-.35-.01-.35-.01-.35-.01-.35-.01-.35v-2l.01-.35v-1.04l.01-.35.01-.35.01-.35.01-.35.01-.35.01-.35.01-.35.02-.35.02-.35.02-.34.02-.34.02-.34.02-.35.02-.34.02-.34.03-.34.03-.34.03-.34.03-.35.03-.35.03-.34.03-.34.03-.34.04-.34.03-.34.03-.34.04-.34.03-.34.03-.34.04-.34.04-.34.04-.34.04-.34.04-.33.04-.34.05-.34.04-.33.05-.34.05-.34.05-.34.05-.34.05-.33.05-.34.05-.34.05-.34.05-.33.06-.34.06-.334.06-.33.06-.34.06-.34.06-.33.07-.33.06-.33.07-.33.07-.33.07-.33.07-.33.07-.33.07-.33.07-.33.07-.33.07-.33.07-.32.08-.33.07-.33.07-.33.08-.33.08-.33.08-.33.08-.32.08-.32.09-.33.08-.32.08-.33.08-.32.08-.33.09-.32.09-.32.09-.32.09-.32.09-.32.09-.32.1-.32.09-.32.09-.32.1-.32.1-.32.1-.31.1-.32.1-.32.1-.32.1-.32.1-.31.1-.31.11-.32.1-.32.1-.31.11-.31.11-.32.11-.31.11-.32.11-.31.11-.32.11-.31.12-.31.11-.31.12-.31.12-.31.12-.31.12-.31.12-.31.12-.31.12-.31.12-.31.12-.3.12-.3.13-.3.13-.31.12-.31.13-.31.13-.3.13-.3.13-.31.13-.3.13-.3.13-.3.14-.31.13-.3.14-.3.13-.3.14-.3.14-.3.14-.3.14-.3.14-.3.14-.3.14-.3.14-.3.14-.29.15-.29.15-.3.15-.29.15-.3.15-.3.15-.29.15-.29.15-.29.15-.29.16-.29.15-.29.15-.29.15-.29.15-.29.16-.29.16-.29.16-.29.16-.28.16-.29.16-.28.16-.28.16-.28.17-.28.16-.29.16-.29.16-.28.17-.28.16-.28.17-.28.17-.28.17-.28.17-.28.17-.28.17-.28.17-.28.17-.27.18-.27.18-.27.18-.27.18-.28.18-.27.18-.27.18-.27.18-.27.18-.27.18-.27.18-.27.18-.27.19-.27.19-.26.19-.27.19-.26.18-.27.19-.27.19-.27.19-.26.19-.26.19-.27.2-.26.19-.26.19-.26.19-.26.2-.26.2-.26.2-.26.2-.26.2-.26.2-.26.2-.26.2-.26.2-.25.21-.26.2-.26.21-.26.2-.26.21-.26.21-.25.21-.25.21-.25.21-.25.21-.25.21-.25.21-.25.21-.24.21-.24.21-.24.21-.25.21-.24.22-.24.22-.24.21-.24.22-.24.21-.24.22-.24.22-.24.22-.24.22-.24.22-.24.22-.24.22-.23.22-.24.22-.24.22-.23.23-.24.23-.23.23-.23.22-.24.23-.23.23-.23.23-.23.23-.23.23-.23.23-.23.23-.23.23-.23.24-.23.23-.22.23-.23.23-.22.23-.22.23-.22.24-.22.24-.22.24-.22.24-.22.24-.22.24-.21.24-.22.24-.21.24-.22.24-.21.25-.22.24-.21.24-.21.24-.21.25-.21.25-.22.25-.21.25-.21.25-.21.25-.21.25-.21.25-.21.25-.21.25-.2.25-.21.25-.2.25-.21.26-.21.25-.2.26-.2.25-.2.25-.2.26-.2.26-.19.26-.19.26-.2.26-.19.26-.2.27-.19.26-.2.27-.19.26-.19.27-.19.26-.19.26-.19.26-.19.26-.19.27-.19.27-.18.27-.19.27-.18.27-.18.27-.19.27-.18.27-.18.27-.18.27-.18.27-.18.27-.17.27-.18.28-.17.27-.17.27-.18.28-.18.28-.17.27-.17.28-.17.28-.17.28-.17.28-.17.28-.17.28-.16.28-.16.28-.17.28-.17.29-.16.28-.16.28-.16.29-.16.28-.16.29-.16.29-.16.29-.16.29-.16.29-.15.29-.15.28-.16.29-.15.29-.16.29-.15.29-.15.29-.16.3-.15.29-.15.29-.15.29-.14.29-.15.3-.15.3-.14.3-.14.3-.14.3-.14.3-.14.3-.14.3-.14.29-.13.3-.14.3-.13.3-.13.3-.14.3-.14.3-.14.3-.14.31-.13.31-.13.3-.13.3-.13.31-.12.3-.13.31-.12.3-.12.3-.12.3-.12.31-.12.3-.13.31-.12.31-.12.3-.12.31-.12.31-.12.31-.11.31-.11.31-.11.31-.11.31-.11.31-.11.31-.11.31-.11.31-.11.32-.11.32-.11.32-.11.31-.1.32-.1.31-.11.32-.1.32-.1.31-.1.32-.1.32-.1.32-.1.32-.1.32-.1.32-.09.32-.1.32-.09.32-.09.33-.09.32-.09.33-.09.33-.08.33-.08.33-.09.32-.09.32-.08.32-.08.33-.09.33-.08.33-.08.33-.08.33-.08.33-.07.32-.08.33-.08.33-.07.33-.07.33-.07.33-.07.33-.07.33-.07.33-.07.33-.06.33-.06.33-.06.33-.06.33-.06.33-.07.33-.06.33-.06.33-.06.34-.06.33-.06.33-.05.34-.05.34-.06.34-.05.33-.05.33-.05.34-.05.34-.05.33-.05.34-.04.34-.05.34-.044.33-.05.34-.04.34-.04.34-.04.34-.04.34-.04.34-.03.34-.04.34-.04.34-.04.34-.03.35-.04.34-.03.34-.03.35-.03.34-.03.34-.03.34-.02.34-.02.34-.03.34-.02.35-.03.34-.02.34-.02.35-.02.34-.01.34-.02.35-.02.34-.02.35-.01.35-.01.35-.02.35-.01h.35l.35-.01.35-.01.35-.01.35-.01h1.38zm-.686 4.13h-.336l-.336.003-.336.004-.336.004-.335.01-.335.01-.335.01-.335.01-.334.01-.334.01-.334.02-.333.02-.333.02-.333.02-.34.02-.34.02-.33.02-.33.02-.34.02-.33.02-.33.02-.33.02-.33.03-.33.03-.33.02-.33.03-.33.03-.33.03-.33.03-.33.03-.33.04-.33.04-.33.04-.33.04-.33.04-.33.04-.33.04-.33.04-.33.04-.33.05-.33.04-.33.05-.32.05-.33.05-.32.05-.33.05-.33.05-.32.05-.32.05-.32.06-.32.05-.33.05-.32.06-.32.06-.32.06-.32.06-.32.06-.32.05-.32.06-.32.06-.32.07-.32.06-.32.06-.32.07-.32.07-.32.07-.32.07-.32.07-.32.07-.32.07-.32.08-.32.08-.32.07-.32.07-.31.08-.31.08-.31.08-.31.08-.32.08-.31.08-.31.08-.31.08-.31.08-.31.09-.31.08-.31.09-.31.09-.31.09-.31.09-.31.09-.31.09-.31.09-.31.1-.31.09-.3.1-.3.09-.31.1-.3.1-.31.1-.3.1-.31.1-.3.1-.31.1-.31.1-.3.1-.3.11-.3.1-.31.11-.3.11-.3.11-.3.11-.3.11-.3.11-.29.11-.3.11-.29.12-.3.11-.3.12-.29.11-.3.11-.29.12-.3.12-.3.12-.29.12-.3.12-.29.12-.29.12-.3.13-.29.13-.29.13-.29.13-.29.13-.29.13-.28.13-.29.13-.29.13-.29.13-.29.14-.28.14-.29.13-.28.14-.29.14-.29.14-.29.14-.28.14-.29.14-.29.14-.29.14-.28.14-.28.14-.28.14-.28.15-.28.14-.28.15-.28.15-.28.14-.27.15-.28.15-.28.15-.28.15-.28.16-.28.15-.28.16-.28.15-.27.15-.27.16-.27.15-.28.15-.27.16-.27.16-.27.16-.27.16-.27.16-.27.16-.27.16-.26.16-.27.16-.27.17-.26.17-.27.17-.27.17-.27.17-.27.17-.27.17-.26.17-.27.17-.26.17-.26.17-.26.17-.26.18-.26.17-.26.18-.26.18-.26.17-.26.18-.26.18-.26.18-.26.19-.26.18-.26.18-.25.18-.26.18-.26.19-.25.18-.25.18-.25.19-.25.18-.25.18-.25.19-.25.19-.24.19-.25.19-.25.19-.25.2-.25.19-.25.19-.24.19-.25.19-.24.2-.25.19-.25.2-.24.2-.24.19-.24.2-.24.2-.24.2-.24.2-.24.2-.24.21-.23.2-.24.2-.24.2-.24.21-.24.21-.23.21-.23.21-.23.2-.23.21-.23.21-.24.21-.23.21-.23.21-.23.21-.23.21-.23.21-.23.22-.22.22-.23.22-.23.22-.23.22-.22.21-.23.22-.22.22-.22.22-.22.22-.22.22-.22.23-.22.23-.22.22-.22.23-.22.22-.21.23-.21.23-.21.23-.21.22-.21.22-.22.23-.22.23-.21.23-.21.23-.21.23-.21.23-.21.23-.21.24-.21.23-.21.24-.21.23-.2.23-.2.24-.2.24-.21.24-.21.23-.2.24-.2.24-.2.24-.2.24-.2.24-.19.25-.2.24-.2.25-.2.24-.19.24-.2.24-.2.25-.19.25-.2.25-.19.24-.19.25-.19.25-.19.25-.19.25-.19.25-.19.25-.19.25-.19.26-.19.25-.19.25-.18.25-.18.25-.18.26-.18.26-.19.26-.18.25-.18.25-.18.26-.17.26-.18.26-.18.26-.18.26-.18.26-.18.26-.17.26-.18.26-.17.26-.17.27-.17.26-.17.27-.17.26-.16.27-.17.27-.17.27-.16.27-.17.27-.16.27-.17.27-.16.27-.16.27-.16.27-.16.27-.16.27-.16.27-.16.27-.16.28-.15.27-.15.27-.15.28-.16.28-.15.27-.15.27-.15.28-.15.27-.15.27-.15.28-.15.27-.15.28-.15.28-.15.28-.14.28-.15.28-.14.28-.14.28-.14.28-.14.28-.14.28-.14.28-.14.29-.14.28-.14.29-.13.29-.14.29-.14.28-.13.28-.14.29-.13.28-.13.29-.13.29-.13.29-.13.29-.13.29-.13.29-.13.29-.12.29-.13.29-.12.29-.13.29-.12.29-.12.3-.12.3-.12.29-.12.29-.11.29-.12.3-.11.3-.12.29-.11.3-.12.3-.11.29-.11.3-.11.3-.11.29-.1.3-.11.3-.11.3-.11.3-.11.31-.1.3-.1.31-.1.31-.1.3-.1.3-.1.3-.1.31-.1.31-.09.31-.1.31-.1.3-.09.31-.09.31-.09.3-.09.31-.09.31-.09.3-.09.31-.09.31-.09.31-.08.31-.08.31-.08.31-.08.31-.08.31-.08.31-.08.32-.08.31-.08.31-.07.31-.08.32-.08.32-.07.31-.08.32-.08.31-.07.32-.07.32-.07.32-.07.31-.07.32-.07.32-.07.32-.07.32-.07.32-.06.32-.06.31-.06.32-.06.32-.06.32-.05.32-.06.32-.05.32-.06.32-.05.32-.05.32-.05.32-.05.32-.05.32-.05.32-.05.33-.05.33-.05.32-.05.33-.05.33-.04.33-.04.32-.04.32-.04.32-.04.33-.04.33-.04.32-.03.33-.03.32-.03.33-.03.33-.03.32-.03.33-.03.33-.03.33-.02.33-.03.32-.03.33-.03.33-.02.33-.03.33-.02.33-.02.33-.02.33-.02.33-.02.33-.02.34-.02.33-.01.33-.01.34-.01.33-.01.34-.01.34-.01.33-.01.34-.01.33v.33l-.01.34-.01.34v1.69l.01.33v.67l.01.34v.68l.01.34.01.33.01.34.01.33.01.34.01.33.01.33.01.33.02.33.02.33.02.34.02.33.03.33.03.33.02.33.02.33.02.33.02.33.03.33.03.33.03.33.03.33.03.33.03.33.03.33.04.33.04.32.03.33.04.33.04.32.04.33.04.32.05.33.04.33.04.32.05.33.05.32.05.33.05.32.05.33.05.32.05.32.05.32.05.32.05.32.05.32.05.32.06.32.06.32.06.32.06.32.06.32.06.32.06.32.06.32.07.32.07.31.07.32.07.32.07.32.07.32.07.32.07.31.07.31.07.32.08.32.07.32.07.31.08.31.08.31.08.31.08.31.08.31.08.31.09.31.08.31.08.31.08.31.08.31.09.31.09.31.09.31.09.31.09.31.09.3.09.31.09.31.09.31.1.3.1.3.1.3.1.3.1.31.1.31.1.3.11.3.1.3.1.3.11.3.11.3.11.3.11.3.11.3.11.3.11.3.11.3.11.3.11.3.11.3.11.3.12.29.12.29.12.3.11.29.12.29.12.29.12.29.12.29.12.29.12.29.12.29.13.29.12.29.13.29.12.29.13.29.13.29.13.29.13.29.13.28.13.29.13.29.13.29.14.29.13.29.14.29.13.29.14.28.14.29.14.28.14.29.14.28.15.28.14.28.14.28.15.28.14.28.15.28.15.28.15.28.14.28.15.28.15.28.15.27.15.27.15.27.16.27.15.27.16.28.16.27.16.27.16.27.16.28.15.27.16.27.17.27.16.27.16.27.16.27.17.27.17.27.17.26.17.27.17.27.17.26.17.26.17.27.17.26.17.26.17.27.18.26.17.26.17.26.17.26.17.26.18.26.17.26.18.26.17.26.18.26.18.26.18.26.18.25.18.26.18.25.19.25.18.25.19.25.19.25.19.25.19.25.19.25.19.25.19.25.19.25.2.25.19.25.19.25.2.25.19.24.19.24.2.25.2.24.19.24.2.24.2.24.19.24.2.24.2.24.21.24.2.24.2.24.21.24.2.24.21.23.2.24.21.24.21.24.21.23.21.23.21.23.21.23.21.24.21.23.21.23.21.23.21.23.21.22.22.23.22.23.22.22.22.23.22.23.22.22.22.22.22.22.22.22.22.23.22.22.22.22.23.22.22.21.22.22.23.22.22.22.23.21.23.22.22.21.23.22.23.21.23.21.23.21.23.21.23.22.23.21.23.21.23.21.23.21.23.2.24.21.23.21.24.2.24.2.24.21.24.2.24.21.24.2.24.2.24.2.24.2.24.2.24.2.24.2.24.2.24.19.24.2.24.2.25.19.25.19.25.2.25.19.25.19.25.19.25.19.25.19.25.19.25.19.25.18.25.19.25.19.25.18.25.18.25.18.25.18.26.18.25.18.25.18.25.18.26.18.26.18.26.18.26.18.26.17.26.17.26.17.26.18.26.17.26.17.26.17.26.17.26.17.27.17.27.17.27.17.27.17.27.17.26.17.27.16.27.16.27.16.27.16.27.16.27.16.27.16.28.16.27.15.27.16.28.16.28.15.27.15.27.15.28.15.28.15.28.15.28.15.28.15.28.14.28.15.27.15.28.15.28.14.28.14.28.15.28.14.28.14.29.14.28.14.28.14.29.14.28.14.28.13.29.13.28.14.29.13.29.13.28.14.29.13.29.13.29.13.29.13.29.13.29.13.29.12.29.13.29.12.29.12.3.13.29.12.29.12.29.12.3.12.29.12.29.12.3.12.29.11.29.12.3.12.3.11.3.11.29.11.3.11.29.11.3.11.3.11.3.1.3.11.3.11.3.11.3.1.3.1.3.1.3.11.31.1.31.1.31.09.31.1.31.09.3.1.3.1.31.09.31.09.31.09.305.09.31.09.31.09.31.09.31.09.31.09.31.08.31.09.31.08.31.08.31.08.31.08.31.08.32.08.31.07.31.08.32.08.31.08.32.08.32.08.31.07.31.07.31.07.32.07.31.07.32.07.32.06.31.07.32.07.32.06.32.06.32.06.32.06.32.06.32.06.32.05.32.05.32.06.32.06.32.06.32.06.32.05.32.05.32.05.32.05.33.05.33.05.33.04.33.05.32.04.32.04.32.04.33.04.33.04.33.04.33.04.33.04.33.04.33.03.33.03.33.03.33.03.33.03.33.03.33.03.33.03.33.03.33.03.33.02.33.03.33.02.33.02.33.02.33.02.33.02.34.02.34.02.33.01.34.02.33.02.34.01.34.01.336.01.34.01.34.01.33.01.34.01.34.01h2.4l.34-.01.33-.01.337-.01h.33l.33-.01.34-.01.34-.01.33-.01.33-.01.33-.01.34-.02.33-.02.33-.01.33-.02.33-.02.33-.02.33-.02.33-.03.33-.02.33-.03.33-.02.33-.02.33-.02.33-.03.33-.03.33-.03.33-.03.33-.03.32-.03.32-.04.32-.04.33-.04.33-.04.32-.04.325-.04.32-.04.33-.04.33-.04.33-.04.32-.04.32-.04.32-.04.33-.04.33-.05.33-.05.32-.05.33-.05.32-.05.32-.05.32-.05.32-.06.32-.06.32-.06.32-.06.32-.06.32-.06.32-.06.32-.06.32-.06.32-.06.31-.07.32-.07.32-.07.32-.07.32-.07.32-.07.32-.07.32-.07.31-.07.31-.07.31-.07.31-.08.32-.07.32-.08.32-.08.31-.08.31-.08.31-.08.31-.08.31-.08.31-.09.31-.09.31-.09.31-.09.3-.09.31-.09.31-.09.31-.09.31-.09.3-.09.31-.09.3-.1.3-.09.3-.1.31-.09.3-.1.3-.1.3-.1.3-.1.31-.1.3-.11.3-.11.3-.1.3-.11.3-.11.3-.1.3-.11.3-.11.3-.11.3-.11.3-.11.3-.11.3-.11.3-.11.3-.11.3-.11.3-.12.3-.12.29-.12.29-.12.29-.12.3-.12.3-.12.29-.12.29-.13.29-.13.29-.13.29-.13.29-.13.29-.13.29-.13.28-.13.29-.13.29-.13.29-.13.29-.14.28-.13.28-.13.29-.14.28-.13.29-.14.28-.14.28-.14.29-.14.28-.14.29-.14.28-.14.28-.14.28-.14.28-.14.28-.14.28-.14.28-.15.28-.15.28-.15.28-.15.28-.15.28-.15.28-.15.28-.15.27-.15.28-.15.27-.16.27-.16.28-.15.27-.15.27-.16.27-.16.27-.16.27-.16.27-.16.27-.16.27-.16.27-.16.27-.16.27-.17.26-.17.26-.17.27-.17.26-.17.27-.17.26-.17.26-.17.26-.17.26-.17.26-.17.26-.17.26-.18.26-.17.26-.17.26-.18.26-.18.26-.18.26-.18.26-.18.25-.18.25-.18.26-.18.25-.19.26-.18.25-.18.25-.19.25-.18.25-.19.26-.19.25-.19.25-.18.25-.19.24-.19.25-.19.25-.2.25-.19.24-.2.24-.19.25-.19.25-.19.24-.19.25-.2.24-.19.24-.2.24-.2.24-.2.24-.2.24-.2.24-.2.24-.2.24-.2.24-.2.24-.21.24-.21.23-.2.23-.21.23-.21.24-.21.23-.2.23-.21.23-.21.23-.21.23-.21.23-.21.23-.21.23-.22.23-.21.23-.21.23-.22.23-.22.22-.21.22-.22.22-.22.22-.22.22-.22.22-.22.22-.22.22-.22.22-.22.22-.22.22-.22.22-.23.22-.22.21-.23.21-.22.22-.23.21-.23.22-.23.21-.23.21-.23.21-.23.21-.23.21-.23.21-.23.21-.23.2-.23.21-.24.21-.23.21-.23.21-.24.2-.24.2-.24.21-.24.2-.24.2-.24.21-.24.2-.23.2-.24.2-.24.2-.24.19-.24.2-.25.19-.24.2-.24.2-.25.19-.24.19-.25.2-.24.19-.24.19-.25.19-.25.19-.25.19-.25.19-.25.19-.25.19-.25.19-.25.19-.25.18-.25.18-.25.18-.26.19-.25.18-.26.18-.26.18-.25.18-.25.18-.26.18-.26.18-.26.18-.26.17-.26.17-.26.18-.26.17-.26.17-.26.17-.26.17-.26.17-.26.17-.26.17-.27.16-.27.17-.27.17-.26.17-.27.17-.27.17-.27.17-.27.16-.27.16-.27.16-.27.16-.27.16-.27.16-.27.16-.27.15-.28.16-.27.15-.27.16-.27.15-.28.16-.27.15-.27.15-.28.15-.27.15-.27.15-.27.15-.28.14-.28.15-.28.14-.28.14-.28.15-.28.14-.28.14-.28.14-.28.14-.28.14-.28.14-.29.14-.29.13-.28.14-.28.14-.28.14-.29.13-.28.13-.29.14-.28.13-.29.13-.29.13-.29.13-.29.13-.29.13-.29.12-.29.13-.29.13-.29.12-.29.12-.29.12-.29.12-.3.12-.3.12-.29.12-.3.12-.29.12-.3.12-.29.11-.3.11-.3.11-.3.11-.29.11-.3.11-.3.11-.3.11-.3.11-.3.1-.3.11-.3.11-.3.1-.3.11-.3.1-.3.1-.3.1-.3.1-.31.1-.31.1-.3.1-.3.1-.31.09-.31.09-.31.09-.3.09-.31.09-.3.09-.31.09-.31.09-.31.08-.31.08-.31.09-.31.09-.3.09-.31.08-.31.08-.31.08-.31.08-.31.08-.31.08-.31.07-.32.08-.31.07-.31.08-.32.07-.31.07-.31.07-.31.07-.31.07-.32.07-.32.07-.32.07-.32.06-.32.07-.31.07-.32.06-.32.06-.32.06-.31.06-.32.06-.32.06-.32.06-.32.06-.32.05-.32.06-.32.06-.33.05-.32.05-.32.05-.32.05-.32.05-.32.05-.32.04-.32.05-.32.043-.32.05-.33.05-.33.04-.32.04-.33.04-.32.04-.32.04-.33.04-.33.04-.33.04-.33.03-.33.03-.33.03-.33.03-.33.03-.33.03-.33.03-.33.03-.33.02-.33.03-.33.02-.33.02-.33.03-.33.02-.33.02-.33.02-.33.02-.34.01-.33.01-.33.02-.33.01-.33.01-.33.01-.33.01-.33.01-.34.01-.33.01-.33.01-.33.01-.34.004-.33.01-.34v-1.01l-.01-.33v-1.34l-.01-.34v-.34l-.01-.33-.01-.34-.01-.33-.01-.34-.02-.33-.01-.33-.01-.33-.02-.33-.02-.33-.02-.33-.02-.33-.02-.33-.02-.33-.02-.33-.02-.33-.03-.33-.02-.33-.03-.34-.01-.4-.03-.33-.03-.33-.03-.33-.03-.33-.03-.33-.04-.33-.04-.33-.03-.33-.04-.32-.03-.33-.04-.32-.04-.33-.04-.33-.04-.33-.04-.32-.04-.32-.04-.32-.04-.32-.05-.33-.05-.32-.05-.32-.05-.33-.05-.32-.05-.32-.05-.32-.05-.32-.05-.32-.06-.32-.06-.32-.06-.32-.06-.32-.06-.32-.06-.31-.06-.32-.06-.31-.06-.32-.07-.32-.07-.31-.06-.31-.07-.32-.07-.31-.06-.32-.07-.31-.07-.31-.07-.31-.07-.31-.07-.31-.07-.31-.07-.31-.08-.31-.08-.31-.08-.32-.08-.31-.08-.31-.08-.31-.08-.31-.08-.31-.09-.31-.09-.31-.09-.31-.09-.31-.09-.3-.09-.31-.09-.31-.09-.31-.09-.31-.09-.3-.09-.3-.09-.31-.1-.31-.1-.3-.1-.31-.1-.31-.1-.3-.1-.3-.1-.31-.1-.3-.1-.3-.1-.3-.11-.3-.11-.3-.11-.3-.11-.3-.11-.3-.11-.3-.11-.3-.11-.3-.11-.3-.12-.3-.12-.3-.12-.29-.11-.3-.12-.3-.12-.29-.12-.3-.12-.29-.12-.29-.12-.3-.12-.29-.12-.29-.12-.29-.12-.29-.13-.29-.13-.29-.12-.29-.13-.29-.13-.29-.13-.29-.13-.29-.13-.29-.13-.29-.14-.29-.14-.29-.13-.28-.14-.29-.13-.28-.13-.29-.14-.28-.14-.29-.14-.28-.14-.28-.14-.28-.14-.28-.14-.28-.14-.28-.15-.28-.15-.28-.15-.28-.15-.28-.15-.28-.15-.28-.15-.28-.15-.28-.15-.28-.15-.28-.15-.28-.15-.27-.1-.29-.16-.27-.15-.27-.16-.27-.16-.27-.16-.27-.16-.27-.16-.27-.16-.27-.16-.27-.16-.27-.16-.27-.16-.26-.16-.27-.17-.27-.17-.27-.17-.27-.17-.27-.16-.27-.17-.26-.17-.27-.17-.26-.17-.26-.17-.26-.17-.26-.17-.26-.18-.26-.18-.26-.17-.26-.17-.26-.18-.26-.18-.26-.18-.26-.18-.25-.18-.25-.18-.25-.18-.25-.18-.25-.18-.26-.19-.25-.19-.25-.19-.25-.19-.25-.19-.25-.19-.25-.19-.25-.19-.25-.19-.24-.19-.25-.19-.25-.2-.25-.19-.25-.197-.25-.2-.24-.2-.24-.2-.24-.2-.25-.2-.24-.2-.24-.2-.24-.2-.24-.2-.24-.2-.24-.2-.24-.2-.24-.2-.24-.21-.24-.2-.23-.21-.23-.21-.23-.21-.24-.21-.24-.21-.24-.21-.23-.21-.23-.21-.23-.21-.23-.21-.23-.22-.23-.21-.23-.21-.22-.21-.23-.22-.22-.21-.23-.21-.23-.22-.22-.22-.22-.21-.23-.22-.22-.22-.22-.22-.22-.22-.22-.22-.22-.22-.22-.23-.22-.22-.22-.22-.21-.22-.21-.22-.22-.22-.22-.23-.22-.23-.21-.22-.21-.23-.21-.23-.22-.23-.21-.23-.21-.23-.21-.23-.21-.23-.21-.23-.21-.23-.21-.23-.21-.23-.21-.23-.2-.23-.21-.24-.2-.24-.2-.24-.2-.24-.2-.24-.2-.24-.2-.24-.2-.24-.2-.25-.2-.25-.2-.24-.194-.24-.2-.24-.19-.25-.2-.25-.2-.25-.19-.25-.2-.25-.2-.24-.19-.25-.19-.25-.19-.25-.19-.25-.19-.25-.19-.25-.19-.254-.18-.25-.19-.25-.19-.25-.18-.25-.18-.26-.18-.25-.19-.25-.18-.26-.18-.25-.17-.26-.18-.26-.17-.26-.18-.26-.18-.26-.17-.26-.18-.26-.18-.26-.18-.26-.18-.26-.18-.26-.17-.27-.17-.27-.17-.27-.17-.26-.17-.27-.17-.27-.16-.26-.17-.27-.16-.27-.17-.27-.16-.27-.16-.27-.16-.27-.16-.27-.16-.27-.16-.27-.16-.27-.16-.28-.15-.27-.16-.27-.16-.275-.15-.28-.16-.28-.15-.28-.15-.28-.15-.28-.16-.28-.15-.27-.15-.28-.15-.28-.15-.28-.15-.28-.15-.28-.14-.28-.14-.28-.14-.28-.14-.28-.14-.28-.15-.28-.14-.28-.14-.29-.14-.28-.14-.28-.14-.29-.14-.28-.13-.29-.13-.29-.13-.29-.13-.28-.13-.29-.13-.28-.13-.29-.13-.29-.13-.29-.13-.29-.12-.29-.13-.29-.13-.29-.13-.29-.13-.29-.12-.29-.12-.29-.12-.29-.12-.3-.12-.29-.12-.3-.11-.3-.11-.29-.11-.3-.11-.3-.12-.3-.11-.29-.11-.3-.11-.3-.11-.3-.11-.3-.11-.3-.1-.3-.11-.3-.1-.3-.1-.3-.1-.3-.11-.3-.1-.3-.1-.3-.1-.31-.1-.3-.1-.3-.1-.305-.09-.3-.09-.31-.1-.31-.09-.31-.09-.31-.1-.31-.09-.31-.09-.31-.09-.31-.08-.31-.09-.31-.08-.31-.09-.31-.09-.31-.08-.31-.08-.31-.08-.31-.08-.31-.08-.31-.08-.31-.08-.31-.08-.31-.07-.31-.08-.32-.07-.31-.08-.32-.07-.31-.07-.32-.07-.31-.07-.31-.07-.32-.06-.31-.07-.32-.07-.32-.07-.32-.06-.32-.06-.32-.06-.32-.06-.32-.06-.32-.06-.32-.06-.32-.054-.33-.05-.32-.06-.32-.05-.32-.06-.32-.05-.32-.05-.32-.05-.32-.05-.32-.05-.33-.044-.32-.04-.33-.05-.32-.05-.32-.04-.32-.04-.33-.04-.33-.04-.33-.04-.33-.04-.32-.04-.33-.04-.33-.04-.33-.04-.33-.04-.33-.03-.33-.03-.33-.03-.33-.03-.33-.03-.33-.02-.33-.02-.33-.02-.33-.02-.33-.03-.33-.02-.34-.02-.34-.02-.33-.02-.33-.02-.33-.02-.33-.02-.33-.013-.34-.01-.33-.01-.33-.01-.34-.01-.33-.01-.33-.01H248l-.33-.01h-.33l-.33-.01h-1.32z"/>
  <circle cx="158.865" cy="84.788" r="70.774" fill="#66b245"/>
  <path fill="#fff" d="M159.335 11.952l.47.004.47.007.468.01.468.014.47.017.47.02.47.02.47.026.47.028.47.03.47.035.47.036.46.04.46.04.46.04.46.05.46.05.46.05.46.05.46.06.46.06.45.06.45.06.45.07.45.07.45.07.45.08.45.08.45.08.45.08.44.09.45.09.44.09.44.1.44.1.44.1.44.1.44.11.44.11.43.11.44.11.43.12.43.12.43.12.43.13.43.13.43.13.43.14.42.14.43.14.42.14.43.14.42.14.42.15.42.15.42.16.42.16.42.16.41.16.41.16.41.17.41.17.41.17.41.18.4.17.41.18.4.18.41.18.4.18.4.19.4.19.4.19.4.19.4.2.39.2.39.2.39.21.39.2.39.21.39.21.39.22.38.21.38.22.38.22.38.22.38.23.37.23.38.23.38.23.37.24.37.24.37.24.37.24.36.24.36.24.36.24.36.25.36.25.36.25.36.25.36.26.36.25.35.26.35.26.35.27.35.26.35.27.34.27.34.27.34.28.34.27.34.28.34.28.34.28.33.28.33.29.33.29.32.29.32.29.32.29.32.3.32.3.32.3.31.3.31.31.31.31.31.31.31.31.31.31.3.32.3.32.3.31.3.32.3.32.3.32.29.33.29.33.29.33.29.33.28.33.28.33.28.34.28.33.27.34.28.34.27.34.27.34.27.34.27.34.27.35.27.35.26.35.26.35.26.35.25.36.26.35.25.36.25.36.24.37.24.36.25.37.24.37.23.37.23.37.23.37.23.37.23.38.23.37.22.38.23.38.22.38.22.38.22.38.22.38.21.38.21.39.21.39.2.39.2.39.2.4.2.39.19.4.19.4.19.4.19.4.19.4.18.41.18.4.18.41.17.4.17.41.18.41.17.41.17.41.17.41.16.42.16.42.15.41.15.41.15.42.15.42.15.42.14.43.14.42.14.42.14.42.13.43.13.43.13.43.13.43.12.43.12.43.12.44.11.43.12.43.11.43.11.44.1.44.1.44.1.44.1.44.1.44.09.44.09.45.09.45.09.44.08.45.08.45.08.45.08.45.07.45.07.45.07.46.06.46.06.45.06.45.06.45.05.46.05.46.04.46.04.46.04.46.04.46.03.47.03.46.03.46.03.46.02.46.02.46.02.47.02.46.01.47.01.47.01.47v1.88l-.01.47-.02.46-.02.47-.02.47-.02.46-.03.46-.02.47-.03.46-.04.46-.04.46-.04.46-.05.46-.05.46-.05.46-.05.46-.05.45-.06.46-.06.46-.07.45-.07.45-.06.46-.07.45-.08.45-.08.45-.08.45-.08.45-.09.45-.09.45-.09.45-.09.44-.1.45-.1.44-.1.44-.1.44-.11.44-.11.44-.11.44-.11.44-.12.44-.12.44-.12.43-.12.43-.13.43-.13.43-.13.42-.13.43-.14.43-.14.42-.14.42-.14.42-.15.42-.15.42-.15.42-.15.41-.16.42-.16.41-.16.41-.17.41-.17.41-.17.41-.17.41-.17.41-.17.41-.18.4-.18.4-.19.4-.19.4-.19.4-.19.4-.2.4-.2.39-.19.4-.2.39-.2.39-.2.39-.21.39-.21.39-.21.38-.22.39-.22.38-.22.39-.22.38-.22.38-.23.38-.23.37-.23.37-.23.37-.23.37-.23.37-.24.37-.24.37-.24.37-.25.37-.24.37-.25.36-.25.36-.25.36-.26.36-.25.36-.26.36-.26.35-.26.35-.26.35-.27.34-.27.34-.27.34-.28.34-.27.34-.28.34-.28.33-.28.33-.28.33-.28.33-.29.33-.29.33-.29.32-.29.32-.29.32-.3.32-.3.32-.3.32-.3.32-.3.32-.31.32-.31.31-.31.31-.31.3-.31.3-.31.3-.32.3-.32.3-.32.29-.32.29-.33.29-.33.29-.33.29-.33.29-.33.29-.34.28-.34.28-.34.28-.34.28-.34.27-.34.27-.34.27-.35.27-.35.27-.35.26-.35.26-.35.26-.35.26-.35.26-.36.26-.36.25-.36.25-.36.25-.36.24-.36.24-.37.24-.37.24-.37.24-.37.24-.37.24-.37.23-.38.23-.38.23-.37.22-.38.22-.38.22-.38.22-.39.22-.38.21-.39.21-.39.21-.39.2-.39.2-.39.2-.39.2-.39.2-.4.19-.4.19-.4.19-.4.19-.4.19-.41.19-.4.18-.4.18-.41.18-.4.17-.41.17-.41.17-.41.17-.41.16-.42.17-.42.16-.42.16-.41.15-.42.15-.42.15-.42.15-.42.15-.42.14-.43.14-.42.14-.42.13-.43.13-.43.13-.43.13-.43.13-.43.12-.44.12-.44.12-.43.11-.44.12-.44.11-.44.11-.44.1-.44.1-.44.09-.45.09-.45.09-.44.09-.44.08-.45.08-.45.08-.45.08-.45.08-.45.07-.45.07-.45.07-.45.06-.46.06-.46.06-.45.06-.46.06-.45.05-.46.05-.46.04-.46.04-.46.04-.46.03-.46.04-.46.03-.46.03-.47.02-.47.02-.47.02-.47.01-.47.01-.47.01h-.47l-.47.01h-.94l-.47-.01h-.47l-.47-.01-.47-.02-.47-.01-.47-.02-.46-.02-.47-.03-.47-.03-.46-.03-.47-.04-.46-.04-.46-.04-.46-.05-.46-.04-.46-.05-.45-.05-.45-.06-.46-.06-.45-.06-.46-.06-.45-.07-.45-.07-.45-.07-.45-.08-.45-.08-.45-.08-.44-.08-.44-.08-.44-.09-.44-.09-.44-.09-.44-.09-.44-.1-.44-.1-.44-.1-.44-.11-.44-.1-.43-.11-.43-.11-.44-.12-.43-.12-.43-.12-.43-.13-.43-.12-.43-.13-.43-.13-.42-.14-.43-.13-.42-.14-.42-.14-.43-.14-.42-.14-.42-.15-.42-.15-.42-.16-.42-.16-.42-.15-.41-.17-.41-.16-.41-.17-.41-.17-.41-.17-.41-.18-.41-.17-.41-.18-.41-.18-.4-.18-.4-.19-.4-.19-.4-.19-.4-.19-.39-.19-.39-.2-.39-.2-.4-.2-.39-.2-.39-.21-.38-.21-.38-.21-.39-.22-.39-.22-.38-.22-.39-.22-.38-.23-.37-.22-.38-.23-.37-.23-.37-.23-.37-.24-.37-.24-.37-.24-.37-.24-.36-.24-.36-.24-.36-.24-.36-.25-.36-.25-.36-.26-.35-.26-.35-.26-.35-.26-.35-.26-.35-.26-.35-.27-.35-.27-.34-.27-.34-.27-.34-.28-.34-.28-.34-.28-.34-.28-.33-.28-.33-.28-.33-.29-.33-.29-.32-.29-.32-.29-.32-.3-.32-.29-.32-.3-.32-.3-.32-.3-.32-.3-.31-.31-.31-.31-.31-.31-.31-.31-.3-.31-.31-.31-.3-.31-.3-.31-.3-.32-.3-.32-.3-.32-.3-.32-.29-.33-.29-.33-.29-.33-.29-.33-.29-.33-.28-.33-.28-.34-.27-.34-.27-.34-.28-.34-.27-.34-.27-.34-.27-.35-.27-.35-.27-.35-.26-.36-.26-.36-.26-.35-.25-.36-.26-.35-.25-.36-.25-.36-.24-.37-.24-.36-.24-.37-.24-.37-.24-.37-.24-.37-.24-.37-.23-.37-.23-.38-.23-.38-.22-.38-.22-.38-.22-.38-.22-.38-.21-.38-.21-.39-.21-.39-.21-.39-.21-.39-.2-.39-.21-.39-.2-.39-.2-.4-.2-.4-.19-.4-.19-.4-.19-.4-.18-.4-.19-.4-.18-.4-.18-.4-.18-.41-.18-.41-.17-.41-.17-.41-.16-.41-.17-.41-.16-.42-.16-.42-.15-.41-.16-.42-.16-.42-.15-.42-.14-.43-.15-.42-.14-.42-.14-.43-.13-.42-.14-.43-.13-.43-.13-.43-.12-.43-.12-.43-.12-.44-.12-.44-.12-.43-.12-.44-.11-.44-.11-.44-.11-.44-.1-.44-.1-.44-.09-.44-.09-.44-.09-.45-.09-.45-.09-.45-.08-.45-.08-.45-.08-.45-.08-.45-.07-.45-.07-.45-.07-.45-.06-.46-.06-.45-.06-.46-.06-.45-.06-.46-.05-.46-.05-.46-.04-.46-.05-.46-.04-.46-.04-.46-.03-.46-.03-.46-.03-.46-.03-.46-.02-.47-.02-.46-.01-.47-.01-.47-.01-.46-.01-.47-.01-.47v-1.4l.01-.47.01-.47.01-.47.02-.47.02-.46.03-.47.02-.46.03-.47.03-.47.04-.46.04-.46.04-.46.04-.46.04-.46.05-.46.05-.46.06-.45.05-.46.06-.46.06-.45.07-.45.06-.45.07-.45.07-.45.07-.45.08-.45.08-.45.08-.44.09-.44.09-.45.09-.44.1-.44.1-.44.1-.44.1-.44.1-.44.11-.44.11-.43.12-.43.12-.43.12-.43.12-.43.13-.44.13-.43.13-.43.13-.43.14-.43.14-.43.14-.42.14-.42.14-.42.15-.42.15-.42.15-.42.16-.42.16-.42.16-.42.16-.41.17-.41.17-.41.17-.41.17-.41.18-.4.18-.41.18-.41.18-.4.18-.4.19-.4.19-.4.19-.4.2-.4.2-.39.19-.4.2-.4.21-.39.21-.39.21-.39.21-.39.21-.39.21-.38.22-.39.22-.38.22-.38.23-.38.23-.38.23-.38.23-.37.23-.37.23-.37.24-.37.23-.37.24-.37.24-.36.25-.37.24-.36.25-.36.25-.36.26-.35.25-.36.25-.35.26-.36.26-.35.26-.35.27-.34.26-.35.27-.35.27-.34.28-.34.28-.34.28-.34.28-.34.28-.33.28-.33.29-.33.29-.33.29-.33.29-.33.29-.33.29-.33.3-.32.3-.32.3-.31.3-.32.3-.32.31-.31.31-.31.31-.31.31-.3.31-.31.32-.3.32-.3.32-.3.32-.3.33-.3.32-.29.33-.29.33-.29.33-.29.33-.28.33-.28.33-.28.34-.28.34-.28.34-.28.34-.27.34-.27.34-.27.35-.27.35-.26.35-.27.35-.26.36-.26.35-.26.36-.26.35-.26.36-.25.36-.25.36-.25.36-.25.37-.25.36-.24.37-.24.37-.24.37-.23.38-.24.37-.23.38-.22.38-.22.38-.22.38-.22.38-.22.39-.22.38-.21.39-.21.39-.21.39-.21.39-.21.39-.2.39-.2.4-.2.39-.2.39-.19.4-.19.4-.19.4-.18.4-.19.4-.18.4-.18.41-.18.41-.17.41-.18.41-.17.41-.16.42-.16.41-.16.42-.16.42-.16.42-.15.42-.15.42-.15.42-.15.42-.14.43-.14.43-.14.43-.14.43-.13.43-.13.43-.13.43-.13.43-.12.43-.12.44-.12.44-.11.44-.11.44-.11.44-.11.44-.1.44-.11.44-.1.44-.1.44-.1.44-.09.45-.09.45-.08.45-.08.45-.08.45-.08.45-.08.45-.07.45-.07.45-.06.45-.06.46-.06.46-.06.45-.05.46-.06.45-.05.45-.05.46-.04.46-.04.46-.04.46-.04.46-.04.46-.04.46-.03.46-.03.47-.02.46-.02.47-.02.46-.01.47-.01.47-.01h1.41zm-.914 4.128l-.44.004-.44.007-.44.01-.44.02-.44.02-.44.02-.44.02-.44.03-.43.03-.43.03-.43.03-.43.04-.43.04-.43.04-.43.05-.43.05-.44.05-.43.05-.43.05-.43.06-.43.06-.42.06-.42.07-.42.07-.42.07-.42.07-.42.08-.42.08-.42.08-.42.08-.42.09-.41.08-.42.09-.42.09-.42.1-.41.1-.41.1-.41.1-.41.1-.41.11-.41.11-.41.11-.4.12-.4.12-.4.12-.41.12-.4.13-.4.13-.4.13-.4.13-.4.14-.4.14-.4.14-.39.14-.39.14-.4.15-.39.15-.39.15-.39.16-.39.16-.39.16-.38.16-.39.16-.38.17-.38.16-.38.17-.38.17-.38.18-.38.18-.38.18-.37.18-.38.18-.37.19-.37.19-.37.19-.37.19-.37.19-.36.19-.37.19-.36.2-.36.2-.36.21-.36.21-.36.21-.36.21-.36.22-.35.22-.35.22-.35.22-.35.22-.35.22-.34.22-.35.23-.34.23-.34.23-.35.23-.34.24-.34.24-.34.24-.34.24-.33.25-.33.25-.33.25-.33.25-.33.25-.32.25-.32.26-.33.26-.32.26-.32.26-.32.26-.31.26-.32.26-.31.27-.31.27-.31.27-.31.27-.31.28-.31.28-.3.28-.3.28-.3.28-.3.29-.3.28-.3.29-.3.29-.3.29-.29.29-.29.29-.29.3-.29.29-.28.3-.28.3-.28.31-.28.3-.27.31-.27.31-.27.31-.27.31-.27.32-.26.31-.27.32-.26.32-.26.32-.26.32-.25.32-.26.32-.26.33-.26.33-.25.33-.25.33-.25.33-.25.33-.24.34-.24.34-.24.34-.24.34-.24.34-.23.34-.23.35-.23.35-.22.35-.22.35-.22.35-.22.35-.22.35-.22.35-.21.35-.21.36-.21.36-.21.36-.21.36-.21.36-.2.37-.2.37-.2.36-.19.37-.19.37-.19.37-.19.37-.19.38-.18.37-.18.38-.18.37-.18.37-.18.38-.17.38-.17.38-.17.38-.17.38-.17.38-.16.38-.16.39-.16.39-.16.39-.15.39-.15.39-.15.39-.15.4-.14.39-.14.4-.14.39-.14.4-.13.4-.13.4-.13.4-.13.4-.12.4-.12.4-.12.41-.11.41-.12.41-.11.41-.11.41-.11.41-.1.41-.1.42-.1.41-.09.42-.09.41-.09.41-.09.42-.09.42-.09.42-.08.42-.08.42-.08.43-.08.43-.07.42-.07.42-.06.42-.06.42-.06.43-.06.43-.06.43-.05.43-.05.43-.05.44-.04.43-.04.43-.04.43-.04.43-.04.43-.03.44-.03.43-.03.44-.02.44-.02.44-.02.44-.02.44-.01.44-.01.44-.01.44v.89l.01.45.01.45.01.44.01.44.01.45.01.44.02.44.02.44.02.44.03.43.03.44.03.44.04.44.04.44.04.44.04.43.04.44.05.44.05.43.05.43.06.43.06.42.06.43.06.43.06.42.07.43.07.42.08.42.07.42.08.42.08.42.09.42.09.42.09.41.09.41.09.42.1.41.1.41.1.42.11.41.1.41.11.41.11.41.12.41.12.41.12.4.12.41.12.4.12.4.13.4.13.4.13.4.14.39.14.4.14.4.15.4.15.39.15.39.15.39.15.39.16.39.15.39.16.39.16.39.17.39.17.39.17.38.17.38.17.38.17.38.18.38.18.38.18.38.19.37.18.37.19.37.19.37.19.37.2.36.2.36.2.36.2.36.2.36.2.36.21.36.21.36.22.35.21.35.22.35.22.35.22.35.22.35.23.35.22.35.23.35.23.34.23.34.24.34.24.34.24.34.24.34.25.33.25.33.25.33.24.33.25.33.26.33.26.32.26.32.26.33.26.32.27.32.27.32.26.32.27.32.27.31.27.31.27.31.27.31.27.31.28.31.28.3.28.3.28.3.28.3.29.3.29.3.29.3.29.29.29.29.3.29.3.28.3.28.3.28.31.28.3.28.3.28.31.27.31.27.31.27.31.27.32.27.31.27.32.26.32.26.32.26.32.26.33.26.32.25.33.25.33.25.33.25.33.25.33.24.34.25.34.24.34.24.34.24.34.24.34.23.34.23.35.23.35.23.35.23.35.22.35.22.35.22.36.21.36.21.36.21.36.21.36.21.36.21.36.21.36.2.36.2.37.19.37.19.37.19.37.19.37.19.38.18.37.18.38.18.38.18.37.17.38.18.38.17.38.17.39.17.39.16.38.16.39.16.39.16.39.16.39.15.39.15.39.15.39.15.39.14.4.14.4.14.4.14.4.14.4.14.4.13.4.13.41.13.4.12.41.12.4.12.41.12.41.12.41.12.41.11.41.11.41.11.41.1.41.1.41.1.42.1.41.09.42.09.42.09.42.09.42.08.42.08.42.08.42.08.42.07.43.07.42.07.42.06.43.06.43.06.43.05.43.05.43.05.43.05.43.04.43.04.43.04.44.04.44.03.43.03.44.03.44.03.44.02.44.02.44.02.44.02.44.02.44.01.45.01h1.34l.44-.01h.44l.45-.01.44-.01.44-.01.44-.02.44-.03.44-.03.44-.03.44-.03.44-.03.44-.03.43-.04.43-.04.43-.04.43-.04.43-.04.43-.05.43-.06.43-.06.43-.06.43-.06.43-.06.42-.06.43-.07.42-.07.42-.07.42-.08.42-.08.42-.08.42-.09.42-.09.42-.09.42-.09.41-.1.42-.1.42-.1.41-.1.42-.1.41-.11.41-.11.41-.12.41-.11.41-.12.41-.12.4-.12.41-.12.4-.13.41-.13.4-.13.4-.14.4-.14.4-.14.39-.14.4-.14.4-.15.39-.15.39-.15.39-.16.39-.16.39-.16.39-.16.39-.16.39-.16.38-.17.38-.17.38-.17.38-.17.38-.18.38-.18.38-.18.37-.19.37-.18.37-.19.37-.19.37-.19.37-.19.37-.19.36-.2.36-.2.36-.2.36-.2.36-.21.36-.21.36-.21.36-.21.36-.21.35-.21.35-.22.35-.22.35-.22.35-.23.34-.23.34-.23.34-.23.34-.23.34-.24.34-.23.34-.24.34-.24.33-.25.33-.24.34-.25.33-.25.33-.25.33-.25.33-.26.33-.26.33-.26.32-.26.32-.26.32-.26.32-.27.31-.27.31-.27.31-.27.31-.28.31-.28.31-.27.31-.28.3-.28.3-.28.3-.28.3-.29.29-.28.29-.29.29-.29.29-.3.29-.29.29-.3.28-.3.28-.3.28-.3.28-.3.28-.3.28-.31.28-.31.27-.31.27-.31.27-.31.26-.31.27-.31.26-.32.26-.32.26-.32.26-.32.26-.32.25-.33.25-.32.25-.33.25-.33.25-.33.24-.33.24-.34.24-.34.24-.34.23-.34.24-.34.23-.34.23-.34.23-.35.23-.35.23-.34.22-.35.22-.35.21-.35.22-.35.22-.35.21-.36.21-.36.2-.36.21-.36.21-.36.2-.36.2-.36.2-.37.19-.37.2-.37.19-.37.19-.37.19-.37.18-.37.18-.38.18-.37.18-.38.17-.38.17-.38.17-.38.17-.38.17-.39.16-.38.16-.39.16-.39.15-.39.16-.39.15-.39.15-.39.15-.39.15-.39.15-.4.14-.39.14-.4.13-.4.13-.4.13-.4.13-.4.13-.41.12-.4.12-.4.12-.41.12-.41.12-.41.11-.41.11-.41.11-.41.11-.41.1-.41.1-.42.1-.41.1-.41.09-.41.09-.42.09-.42.09-.42.08-.42.08-.42.08-.43.08-.42.07-.43.07-.43.07-.43.07-.43.06-.43.06-.43.06-.43.06-.43.05-.43.05-.43.04-.43.04-.43.04-.43.04-.43.03-.44.03-.43.03-.44.02-.44.02-.44.02-.44.02-.44.02-.44.01-.44.01-.44.01-.44.01-.44v-.89l-.01-.44v-.44l-.01-.44-.02-.44-.02-.44-.02-.44-.02-.44-.03-.44-.02-.44-.03-.43-.03-.44-.03-.43-.04-.43-.04-.43-.04-.43-.05-.43-.05-.43-.05-.43-.05-.43-.06-.43-.06-.43-.06-.43-.06-.43-.07-.43-.07-.42-.07-.42-.07-.43-.08-.42-.08-.42-.08-.42-.08-.42-.09-.42-.09-.41-.09-.41-.09-.42-.09-.42-.1-.42-.1-.42-.1-.41-.11-.41-.11-.41-.11-.41-.11-.4-.12-.41-.12-.41-.12-.4-.12-.4-.13-.4-.13-.4-.13-.4-.13-.4-.14-.4-.14-.4-.14-.39-.14-.4-.14-.39-.15-.4-.15-.39-.15-.39-.16-.39-.15-.39-.16-.39-.16-.39-.16-.39-.17-.38-.17-.38-.17-.38-.18-.38-.18-.38-.18-.38-.18-.37-.18-.38-.18-.38-.19-.37-.19-.37-.19-.37-.2-.37-.19-.37-.2-.37-.2-.36-.2-.36-.2-.36-.21-.36-.2-.36-.21-.36-.21-.36-.21-.35-.22-.35-.22-.35-.22-.35-.22-.35-.23-.35-.23-.35-.23-.35-.23-.34-.23-.34-.23-.34-.24-.34-.23-.34-.24-.33-.24-.34-.25-.33-.25-.33-.24-.33-.25-.33-.25-.33-.26-.32-.25-.32-.26-.32-.26-.32-.27-.32-.26-.32-.27-.31-.27-.31-.27-.32-.27-.31-.27-.31-.28-.31-.27-.3-.27-.3-.28-.3-.28-.3-.28-.3-.28-.3-.29-.3-.29-.3-.29-.29-.29-.29-.29-.29-.29-.29-.3-.28-.3-.29-.3-.28-.3-.28-.3-.28-.31-.28-.31-.27-.31-.27-.31-.27-.31-.27-.31-.27-.31-.27-.31-.27-.32-.26-.32-.26-.33-.25-.32-.25-.32-.25-.33-.25-.33-.25-.33-.25-.33-.25-.33-.24-.34-.25-.34-.24-.33-.24-.34-.23-.34-.24-.34-.23-.34-.23-.34-.23-.34-.22-.35-.23-.35-.22-.35-.22-.35-.22-.35-.21-.35-.22-.36-.21-.36-.21-.36-.21-.36-.21-.36-.21-.36-.2-.37-.2-.37-.2-.37-.19-.37-.2-.37-.19-.37-.19-.37-.19-.38-.18-.37-.18-.37-.18-.38-.17-.38-.17-.38-.17-.39-.17-.38-.17-.39-.17-.38-.17-.39-.16-.38-.16-.39-.16-.39-.15-.39-.15-.39-.15-.39-.15-.39-.14-.4-.14-.4-.14-.4-.14-.4-.14-.4-.13-.4-.13-.41-.13-.41-.13-.4-.13-.41-.12-.41-.12-.4-.12-.41-.11-.41-.11-.41-.11-.41-.1-.41-.11-.41-.1-.41-.1-.41-.09-.41-.1-.42-.09-.42-.09-.42-.09-.42-.08-.42-.08-.42-.08-.42-.07-.42-.08-.42-.07-.42-.07-.43-.07-.43-.06-.42-.06-.43-.06-.43-.06-.43-.05-.43-.05-.43-.05-.43-.05-.43-.04-.43-.04-.43-.03-.43-.03-.44-.04-.44-.03-.44-.03-.44-.02-.44-.02-.44-.02-.44-.01-.44-.01-.44-.01-.45-.01-.44-.01h-.89z"/>
</svg>
