<svg xmlns="http://www.w3.org/2000/svg" viewBox="0 0 391 202">
  <path fill="#00618a" stroke-width=".871" d="M.738 183.828H13.58v-50.71l19.88 44.207c2.347 5.35 5.558 7.244 11.854 7.244 6.298 0 9.385-1.9 11.732-7.25l19.88-44.21v50.71H89.77V133.2c0-4.94-1.978-7.327-6.052-8.56-9.755-3.047-16.3-.413-19.264 6.173l-19.51 43.63-18.892-43.63c-2.84-6.586-9.508-9.22-19.263-6.174-4.08 1.23-6.06 3.62-6.06 8.56v50.62zm99.708-41.276h12.838v27.938c-.12 1.518.487 5.08 7.522 5.19 3.59.057 27.7 0 27.925 0v-33.264h12.87c.06 0-.01 45.364-.01 45.557.07 11.188-13.88 13.618-20.31 13.806h-40.55v-8.64c.07 0 40.52 0 40.62-.01 8.27-.88 7.29-4.98 7.29-6.37v-3.36h-27.3c-12.7-.12-20.78-5.66-20.88-12.04-.01-.59.28-28.54 0-28.82z"/>
  <path fill="#e48e00" stroke-width=".871" d="M171.496 183.828h36.92c4.322 0 8.52-.905 11.855-2.47 5.56-2.55 8.28-6.008 8.28-10.537v-9.38c0-3.7-3.08-7.16-9.14-9.46-3.21-1.23-7.16-1.89-10.99-1.89h-15.56c-5.18 0-7.65-1.56-8.27-5.02-.12-.41-.12-.74-.12-1.15v-5.84c0-.33 0-.66.13-1.07.62-2.63 1.98-3.37 6.55-3.79.37 0 .87-.08 1.24-.08h36.68v-8.56H193c-5.185 0-7.9.33-10.37 1.07-7.657 2.39-10.99 6.18-10.99 12.76v7.49c0 5.77 6.544 10.71 17.533 11.86 1.237.08 2.47.17 3.705.17h13.33c.493 0 .99 0 1.36.087 4.07.33 5.8 1.07 7.036 2.55.74.74.99 1.486.99 2.31v7.49c0 .905-.62 2.06-1.85 3.045-1.115.988-2.967 1.647-5.437 1.81-.49 0-.86.08-1.36.08H171.5v8.56zm137.16-14.9c0 8.808 6.544 13.748 19.757 14.736 1.234.082 2.47.164 3.704.164h33.464v-8.56h-33.71c-7.53 0-10.37-1.895-10.37-6.422v-44.29h-12.84v44.372zm-71.916.45v-30.523c0-7.754 5.445-12.457 16.21-13.942 1.113-.164 2.35-.247 3.464-.247h24.376c1.237 0 2.352.083 3.59.247 10.764 1.485 16.208 6.188 16.208 13.942v30.522c0 6.29-2.312 9.658-7.64 11.852l12.65 11.41h-14.912l-10.234-9.24-10.303.65h-13.74c-2.35 0-4.83-.33-7.55-1.08-8.17-2.23-12.13-6.52-12.13-13.62zm13.86-.743c0 .413.124.825.248 1.32.742 3.547 4.083 5.527 9.156 5.527h11.667l-10.71-9.675h14.91l9.35 8.438c1.72-.918 2.86-2.322 3.25-4.125.13-.412.13-.825.13-1.237v-29.285c0-.33 0-.743-.12-1.156-.74-3.3-4.08-5.196-9.03-5.196h-19.43c-5.69 0-9.4 2.475-9.4 6.352v29.037z"/>
  <path fill="#00618a" stroke-width=".871" d="M376.88 110.354c-7.895-.214-13.925.52-19.08 2.694-1.465.618-3.8.634-4.04 2.47.805.844.93 2.104 1.57 3.142 1.23 1.992 3.31 4.66 5.163 6.06 2.026 1.53 4.114 3.166 6.286 4.49 3.86 2.356 8.17 3.7 11.89 6.06 2.19 1.392 4.37 3.144 6.51 4.714 1.05.776 1.76 1.983 3.14 2.47v-.225c-.72-.92-.91-2.19-1.57-3.15l-2.92-2.92c-2.86-3.79-6.48-7.12-10.33-9.88-3.07-2.21-9.94-5.18-11.23-8.76l-.23-.23c2.17-.25 4.72-1.04 6.73-1.57 3.37-.91 6.39-.67 9.87-1.57l4.714-1.35v-.9c-1.76-1.81-3.02-4.2-4.94-5.84-5.024-4.28-10.51-8.56-16.16-12.12-3.13-1.98-7.004-3.27-10.324-4.94-1.12-.57-3.08-.86-3.82-1.8-1.742-2.23-2.692-5.04-4.04-7.63-2.815-5.43-5.582-11.36-8.08-17.06-1.7-3.9-2.813-7.73-4.936-11.23-10.196-16.76-21.167-26.87-38.16-36.81-3.618-2.11-7.97-2.95-12.57-4.04l-7.41-.45c-1.507-.63-3.075-2.47-4.49-3.368-5.63-3.556-20.07-11.293-24.24-1.12-2.633 6.42 3.935 12.684 6.284 15.94 1.65 2.28 3.76 4.84 4.94 7.405.774 1.69.91 3.38 1.57 5.165 1.63 4.4 3.05 9.18 5.16 13.25 1.07 2.05 2.24 4.22 3.59 6.06.83 1.124 2.247 1.62 2.47 3.363-1.385 1.94-1.464 4.95-2.243 7.41-3.51 11.06-2.187 24.81 2.916 32.994 1.566 2.512 5.254 7.902 10.325 5.835 4.43-1.803 3.44-7.402 4.71-12.34.282-1.12.11-1.944.67-2.694v.226l4.04 8.08c2.99 4.816 8.295 9.85 12.792 13.245 2.332 1.76 4.17 4.807 7.183 5.837v-.224h-.225c-.587-.91-1.5-1.29-2.247-2.02-1.76-1.723-3.71-3.864-5.166-5.84-4.09-5.55-7.7-11.63-10.993-17.954-1.577-3.02-2.94-6.35-4.27-9.428-.51-1.182-.507-2.974-1.57-3.59-1.454 2.255-3.59 4.077-4.716 6.737-1.8 4.25-2.03 9.434-2.694 14.81-.4.14-.22.046-.45.226-3.13-.757-4.23-3.97-5.39-6.736-2.94-6.98-3.487-18.22-.9-26.26.67-2.08 3.69-8.63 2.47-10.55-.586-1.913-2.514-3.02-3.59-4.49-1.34-1.81-2.67-4.19-3.595-6.28-2.404-5.448-3.527-11.56-6.06-17.06-1.21-2.63-3.256-5.295-4.937-7.63-1.86-2.595-3.948-4.5-5.39-7.637-.51-1.11-1.21-2.89-.45-4.04.243-.77.584-1.09 1.35-1.34 1.3-1.006 4.926.332 6.282.895 3.6 1.496 6.6 2.92 9.65 4.94 1.463.97 2.943 2.847 4.71 3.367h2.02c3.16.727 6.7.226 9.654 1.123 5.22 1.585 9.895 4.05 14.14 6.733 12.94 8.17 23.52 19.8 30.754 33.67 1.16 2.235 1.668 4.367 2.69 6.736 2.07 4.78 4.677 9.694 6.735 14.37 2.053 4.66 4.055 9.36 6.96 13.24 1.525 2.04 7.42 3.134 10.1 4.265 1.88.79 4.954 1.62 6.733 2.69 3.4 2.05 6.69 4.49 9.878 6.735 1.59 1.12 6.49 3.58 6.73 5.61z"/>
  <path fill="#00618a" fill-rule="evenodd" stroke-width=".871" d="M276.545 24.833c-1.646-.03-2.81.18-4.04.448v.23h.224c.78 1.62 2.17 2.65 3.14 4.04l2.24 4.72.22-.22c1.39-.98 2.02-2.54 2.02-4.94-.56-.58-.64-1.32-1.13-2.02-.64-.93-1.89-1.46-2.7-2.24z"/>
  <path fill="#e48e00" fill-rule="evenodd" d="M371.61 175.023c0 5.654 4.466 9.464 9.463 9.464 4.997 0 9.464-3.81 9.464-9.464 0-5.653-4.467-9.463-9.464-9.463-4.997 0-9.464 3.81-9.464 9.463zm16.807 0c0 4.29-3.28 7.496-7.344 7.496-4.113 0-7.344-3.21-7.344-7.5s3.23-7.5 7.34-7.5c4.06 0 7.34 3.2 7.34 7.49zm-4.794 5.4h2.12l-3.104-4.743c1.66-.177 2.92-.985 2.92-2.953 0-2.196-1.39-3.104-4.06-3.104h-4.22v10.8h1.81v-4.668h1.69l2.83 4.67zm-4.518-6.182v-3.1h2.094c1.08 0 2.39.2 2.39 1.47 0 1.52-1.19 1.64-2.55 1.64h-1.94z"/>
</svg>
