<svg xmlns="http://www.w3.org/2000/svg" viewBox="0 0 432.071 445.383">
  <g fill="none" stroke="#FFF" stroke-width="12.465" stroke-linecap="round" stroke-linejoin="round">
    <path fill="#000" stroke="#000" stroke-width="37.395" d="M323.205 324.227c2.833-23.6 1.984-27.062 19.563-23.24l4.463.393c13.52.615 31.2-2.174 41.59-7 22.36-10.376 35.62-27.7 13.57-23.148-50.29 10.376-53.75-6.655-53.75-6.655 53.11-78.803 75.32-178.836 56.15-203.322C352.52-5.535 262.04 26.05 260.53 26.87l-.482.084c-9.937-2.062-21.06-3.294-33.553-3.496-22.76-.374-40.03 5.967-53.132 15.904 0 0-161.407-66.498-153.9 83.628 1.6 31.936 45.78 241.655 98.47 178.31 19.26-23.163 37.873-42.748 37.873-42.748 9.24 6.14 20.305 9.272 31.91 8.147l.897-.77c-.28 2.87-.158 5.69.36 9.02-13.574 15.16-9.586 17.83-36.725 23.41-27.456 5.66-11.325 15.73-.796 18.36 12.766 3.19 42.303 7.713 62.266-20.227l-.794 3.19c5.33 4.26 4.97 30.62 5.72 49.45.76 18.834 2.02 36.41 5.86 46.77 3.84 10.36 8.37 37.05 44.036 29.407 29.81-6.39 52.6-15.58 54.676-101.107" stroke-linecap="butt" stroke-linejoin="miter"/>
    <path fill="#336791" stroke="none" d="M402.395 271.23c-50.302 10.376-53.76-6.655-53.76-6.655 53.11-78.808 75.313-178.843 56.153-203.326-52.27-66.79-142.752-35.2-144.262-34.38l-.486.08c-9.938-2.07-21.06-3.29-33.56-3.5-22.76-.38-40.026 5.96-53.127 15.9 0 0-161.41-66.5-153.904 83.63 1.59 31.94 45.77 241.66 98.47 178.31 19.26-23.17 37.87-42.75 37.87-42.75 9.24 6.14 20.3 9.27 31.9 8.14l.9-.767c-.28 2.877-.15 5.69.36 9.02-13.58 15.167-9.59 17.83-36.73 23.416-27.46 5.66-11.33 15.735-.8 18.37 12.77 3.19 42.304 7.713 62.263-20.227l-.794 3.19c5.32 4.26 9.053 27.71 8.427 48.97-.624 21.256-1.04 35.85 3.15 47.25 4.19 11.4 8.37 37.05 44.043 29.405 29.81-6.39 45.26-22.946 47.408-50.56 1.52-19.63 4.972-16.73 5.19-34.28l2.77-8.31c3.193-26.61.51-35.193 18.873-31.2l4.466.393c13.518.614 31.21-2.175 41.59-7 22.36-10.377 35.62-27.7 13.575-23.15z"/>
    <path d="M215.866 286.484c-1.385 49.516.348 99.377 5.193 111.495 4.84 12.11 15.22 35.68 50.9 28.04 29.8-6.39 40.65-18.76 45.35-46.05 3.46-20.09 10.15-75.86 11-87.28M173.1 38.25S11.58-27.767 19.09 122.36c1.597 31.936 45.78 241.662 98.47 178.314 19.26-23.163 36.67-41.33 36.67-41.33M260.35 26.206c-5.592 1.75 89.847-34.89 144.086 34.416 19.16 24.484-3.043 124.52-56.153 203.33"/>
    <path d="M348.282 263.953s3.46 17.036 53.764 6.653c22.04-4.552 8.776 12.774-13.577 23.155-18.35 8.52-59.48 10.7-60.15-1.06-1.73-30.35 21.64-21.13 19.96-28.74-1.53-6.85-11.98-13.57-18.9-30.33-6.04-14.63-82.8-126.85 21.28-110.18 3.81-.79-27.15-99-124.56-100.6-97.385-1.592-94.19 119.767-94.19 119.767" stroke-linejoin="bevel"/>
    <path d="M188.604 274.334c-13.577 15.166-9.584 17.83-36.723 23.417-27.45 5.66-11.32 15.74-.79 18.37 12.77 3.2 42.31 7.72 62.27-20.23 6.08-8.51-.03-22.08-8.38-25.54-4.03-1.67-9.43-3.76-16.36 4z"/>
    <path d="M187.715 274.07c-1.368-8.918 2.93-19.53 7.536-31.943 6.93-18.626 22.9-37.255 10.12-96.34-9.52-44.028-73.39-9.162-73.43-3.192-.04 5.968 2.89 30.26-1.06 58.548-5.16 36.913 23.49 68.132 56.48 64.938"/>
    <path fill="#FFF" stroke-width="4.155" d="M172.517 141.7c-.288 2.04 3.733 7.48 8.976 8.207 5.234.73 9.714-3.522 9.998-5.56.29-2.038-3.73-4.284-8.97-5.014-5.23-.73-9.72.333-9.99 2.367z" stroke-linecap="butt" stroke-linejoin="miter"/>
    <path fill="#FFF" stroke-width="2.078" d="M331.94 137.543c.285 2.04-3.73 7.48-8.975 8.207-5.238.73-9.718-3.522-10.005-5.56-.277-2.038 3.74-4.284 8.98-5.014 5.238-.73 9.717.333 10 2.368z" stroke-linecap="butt" stroke-linejoin="miter"/>
    <path d="M350.676 123.432c.863 15.994-3.445 26.888-3.988 43.914-.804 24.748 11.8 53.074-7.19 81.435"/>
  </g>
</svg>
