<svg xmlns="http://www.w3.org/2000/svg" fill-rule="evenodd" stroke-miterlimit="1.414" viewBox="0 0 527 144" clip-rule="evenodd" stroke-linejoin="round">
  <clipPath id="a">
    <path d="M27.594 140.333l-2.996-.992s.382-15.16-5.086-16.22c-3.607-4.18.555-178.49 13.656-.59 0 0-4.484 2.25-5.333 6.08-.85 3.827-.24 11.74-.24 11.74z"/>
  </clipPath>
  <g clip-path="url(#a)">
    <path fill="url(#b)" fill-rule="nonzero" d="M27.595 140.333l-2.996-.992s.38-15.16-5.09-16.22c-3.61-4.18.55-178.49 13.65-.59 0 0-4.49 2.25-5.34 6.08-.85 3.827-.24 11.74-.24 11.74"/>
  </g>
  <clipPath id="c">
    <path d="M29.21 125.69s26.034-17.15 19.935-52.76C43.27 47.06 29.403 38.555 27.913 35.308c-1.64-2.298-3.293-6.37-3.293-6.37l1.107 72.085s-2.29 22.01 3.483 24.666z"/>
  </clipPath>
  <g clip-path="url(#c)">
    <path fill="url(#d)" fill-rule="nonzero" d="M29.21 125.69s26.034-17.15 19.935-52.76C43.27 47.06 29.403 38.555 27.913 35.308c-1.64-2.298-3.293-6.37-3.293-6.37l1.107 72.085s-2.29 22.01 3.483 24.666"/>
  </g>
  <clipPath id="e">
    <path d="M23.074 126.648S-1.346 109.988.058 80.593c1.406-29.395 18.654-43.848 22.014-46.47 2.17-2.315 2.26-3.207 2.43-5.49 1.52 3.27 1.268 48.84 1.43 54.168.625 20.74-1.15 39.94-2.858 43.85z"/>
  </clipPath>
  <g clip-path="url(#e)">
    <path fill="url(#f)" fill-rule="nonzero" d="M23.074 126.648S-1.346 109.988.058 80.593c1.406-29.395 18.654-43.848 22.014-46.47 2.172-2.315 2.26-3.207 2.43-5.49 1.52 3.27 1.268 48.84 1.43 54.168.625 20.74-1.15 39.94-2.858 43.85"/>
  </g>
  <path fill="#c0bdba" fill-rule="nonzero" d="M413.61 109.357c2.244 1.796 6.735 2.535 10.693 2.535 5.133 0 10.158-.952 15.076-5.385 5.02-4.543 8.44-11.512 8.44-22.6 0-10.667-4.07-19.326-12.41-24.395-4.71-2.957-10.8-4.118-17.75-4.118-2.03 0-4.07.106-5.24.633-.32.21-.97 1.056-.97 1.48-.22 1.9-.22 16.367-.22 24.92 0 8.766 0 21.016.21 22.495.11 1.267.74 3.485 2.14 4.435h.03zm-21.344-58.715c1.817 0 8.724.316 11.934.316 5.988 0 10.157-.316 21.384-.316 9.41 0 17.325 2.534 22.99 7.392 6.846 5.914 10.48 14.15 10.48 24.183 0 14.256-6.52 22.493-13.043 27.14-6.52 4.857-14.97 7.603-27.05 7.603-6.41 0-17.43-.21-26.63-.315h-.12c-.42-.847.79-4.14 1.54-4.225 2.49-.282 3.16-.377 4.32-.852 1.94-.8 2.4-1.788 2.62-5.274.32-6.546.22-14.36.22-23.232 0-6.336.11-18.692-.11-22.6-.32-3.273-1.71-4.117-4.49-4.752-1.39-.316-3.31-.633-5.99-.95-.21-.633 1.44-3.485 1.97-4.118m95.11 5.175c-.42.106-.96 1.162-.96 1.69-.1 3.8-.21 13.727-.21 20.59 0 .212.32.53.54.53 1.39.106 4.81.21 7.7.21 4.06 0 6.42-.528 7.7-1.162 3.42-1.688 5.02-5.385 5.02-9.397 0-9.188-6.41-12.673-15.93-12.673-.64 0-2.46 0-3.85.212h-.01zm24.28 42.24c0-9.292-6.84-14.572-19.35-14.572-.53 0-4.49-.106-5.45.106-.32.11-.64.32-.64.53 0 6.66-.11 17.32.21 21.54.22 1.8 1.5 4.33 3.1 5.07 1.72.95 5.56 1.17 8.24 1.17 7.38 0 13.9-4.12 13.9-13.83l-.01-.01zm-43.59-47.414c.97 0 3.81.316 11.08.316 6.85 0 12.41-.21 19.04-.21 8.24 0 19.57 2.95 19.57 15.2 0 6.02-4.28 10.87-9.84 13.2-.32.1-.32.31 0 .42 7.91 2 14.86 6.86 14.86 16.15 0 9.08-5.66 14.78-13.9 18.37-5.02 2.21-11.22 2.95-17.54 2.95-4.81 0-17.7-.53-24.87-.42-.75-.32.69-3.7 1.33-4.23 1.72-.11 3.04-.23 4.85-.76 2.57-.63 2.87-1.46 3.19-5.26.22-3.27.22-15 .22-23.34 0-11.41.11-19.12 0-22.92-.11-2.96-1.18-3.91-3.21-4.44-1.6-.32-4.27-.63-6.41-.95-.53-.53 1.11-3.7 1.65-4.12"/>
  <path fill="#fff" fill-rule="nonzero" d="M85.517 116.914c-.18-.284-.367-1.124-.327-2.135.03-.77.18-1.26.326-1.43 2.016-.32 2.97-.54 4.104-.84 1.89-.47 2.603-1.49 2.715-3.91.31-5.7.328-16.38.214-23.89v-.22c.01-.81.02-1.91-.99-2.69-1.49-.98-3.34-1.79-5.67-2.49-.9-.27-1.4-.74-1.37-1.29.03-.53.59-1.2 1.75-1.43 3.09-.32 11.21-2.26 14.4-3.72.19.23.48.72.43 1.51l-.09 1.04c-.09 1.06-.2 2.26-.2 3.46 0 .35.38.69.79.69.2 0 .39-.08.55-.24 6.07-4.75 11.5-6.45 14.29-6.45 4.59 0 8.17 2.19 10.93 6.7.16.24.38.36.62.36.23 0 .45-.12.58-.31 5.58-4.23 11.12-6.76 14.81-6.76 8.75 0 13.98 6.54 13.98 17.5 0 3.15-.03 7.14-.06 10.86-.03 3.27-.05 6.33-.05 8.46 0 .51.69 1.94 1.73 2.22 1.28.62 3.13.94 5.46 1.34l.09.02c.17.62-.2 3.07-.55 3.57-.58-.01-1.39-.05-2.38-.1-1.82-.09-4.31-.22-7.21-.22-5.82 0-8.86.12-11.76.3-.22-.73-.3-3.07-.03-3.56 1.69-.32 2.53-.53 3.54-.83 1.85-.61 2.38-1.45 2.49-3.91.04-1.75.38-17.12-.22-20.77-.55-3.78-3.41-8.21-9.65-8.21-2.32 0-6.06.96-9.62 3.66-.23.21-.35.63-.35.9v.07c.42 1.97.42 4.27.42 7.74 0 1.98-.01 4.09-.02 6.17-.03 4.24-.05 8.24.02 11.27 0 2.06 1.25 2.55 2.25 2.95.55.12.98.22 1.41.33.84.2 1.71.41 3 .61.17.41.19 1.62-.05 2.66-.14.57-.29.82-.37.91-3.23-.11-6.55-.21-11.34-.21-1.45 0-3.82.06-5.91.12-1.7.04-3.3.09-4.22.09-.13-.21-.32-.88-.32-1.84 0-.9.16-1.53.33-1.72.45-.08.88-.16 1.29-.23 1.12-.2 2.09-.37 3.02-.6 1.58-.48 2.18-1.36 2.29-3.38.31-4.7.55-18.23-.11-21.62-1.13-5.44-4.23-8.2-9.22-8.2-2.92 0-6.6 1.4-9.62 3.66-.5.37-.88 1.31-.88 2.17 0 1.61-.01 3.53-.01 5.59-.03 6.8-.05 15.26.12 18.92.1 1.12.49 2.46 2.62 2.96.46.13 1.26.26 2.19.42.54.09 1.12.18 1.72.29.22.58.08 2.86-.29 3.57-.93-.01-2.07-.06-3.38-.12-2-.09-4.49-.2-7.33-.2-3.34 0-5.67.11-7.54.2-1.26.06-2.34.11-3.43.12m106.08-39.49c-1.95 0-3.77.51-5.12 1.43-3.71 2.25-5.6 6.76-5.6 13.37 0 12.39 6.21 21.04 15.1 21.04 2.62 0 4.76-.76 6.54-2.31 2.73-2.23 4.18-6.78 4.18-13.14 0-12.21-6.07-20.41-15.1-20.41l-.01.01zm1.71 40.44c-16.07 0-21.79-11.77-21.79-22.78 0-7.7 3.15-13.71 9.37-17.88 4.42-2.71 9.69-4.27 14.46-4.27 12.26 0 20.83 8.8 20.83 21.41 0 8.58-3.43 15.34-9.9 19.57-3.1 1.9-8.49 3.96-12.96 3.96m164.65-40.43c-1.95 0-3.77.51-5.12 1.43-3.71 2.26-5.6 6.76-5.6 13.38 0 12.39 6.21 21.04 15.1 21.04 2.62 0 4.76-.76 6.54-2.31 2.73-2.23 4.18-6.77 4.18-13.14 0-12.21-6.07-20.41-15.1-20.41v.01zm1.71 40.44c-16.07 0-21.79-11.77-21.79-22.79 0-7.69 3.15-13.71 9.37-17.88 4.42-2.71 9.69-4.27 14.45-4.27 12.26 0 20.83 8.8 20.83 21.41 0 8.58-3.42 15.34-9.9 19.57-3.1 1.9-8.49 3.96-12.96 3.96M304.2 77c-4.95 0-8.15 3.906-8.15 9.95 0 6.1 2.76 13.226 10.51 13.226 1.33 0 3.75-.59 4.94-1.91 1.81-1.652 2.98-5.07 2.98-8.676 0-7.887-3.84-12.594-10.27-12.594l-.01.004zm-.64 41.71c-1.86 0-3.21.54-4.02.994-3.92 2.51-5.73 5.017-5.73 7.903 0 2.722 1.06 4.884 3.33 6.807 2.75 2.33 6.46 3.463 11.35 3.463 9.61 0 13.91-5.158 13.91-10.27 0-3.557-1.78-5.942-5.46-7.29-2.83-1.035-7.56-1.607-13.36-1.607h-.01zm.64 24.5c-5.77 0-9.92-1.214-13.47-3.942-3.46-2.663-5-6.61-5-9.34 0-.783.18-2.81 1.89-4.748 1-1.14 3.33-3.278 8.71-6.97.16-.064.28-.227.28-.425 0-.22-.14-.398-.34-.44-4.43-1.695-5.77-4.476-6.17-5.985l-.05-.232c-.13-.592-.25-1.15.55-1.726.62-.44 1.62-1.03 2.68-1.652 1.56-.92 3.32-1.96 4.3-2.798.16-.15.22-.373.18-.594-.03-.224-.16-.408-.36-.502-6.56-2.2-9.86-7.067-9.86-14.478 0-4.784 2.21-9.108 6.06-11.865 2.64-2.08 9.26-4.584 13.55-4.584h.25c4.42.1 6.9 1.02 10.34 2.3 1.87.69 3.64.97 6.12.97 3.65 0 5.25-1.16 6.62-2.49.08.16.26.68.35 1.89.09 1.22-.25 3.04-1.19 4.33-.75 1.03-2.48 1.78-4.11 1.78-.17 0-.33-.01-.48-.03-1.68-.17-2.48-.41-2.48-.42l-.41.14c-.13.19-.04.4.06.66.03.06.06.12.07.16.21.85.59 3.35.59 4.05 0 7.77-3.07 11.16-6.39 13.66-3.17 2.39-6.87 3.82-11.04 4.26-.086 0-.48.03-1.28.1-.513.05-1.152.1-1.25.1l-.09.01c-.72.2-2.6 1.09-2.6 2.76 0 1.38.86 3.09 4.92 3.4.82.06 1.71.12 2.63.18 5.37.37 12.07.84 15.23 1.91 4.34 1.58 7.04 5.46 7.04 10.13 0 6.97-4.97 13.53-13.28 17.54-4.04 1.89-8.13 2.82-12.56 2.82m-26.37-30.02c-2.35-.32-4.06-.64-6.093-1.59-.32-.21-.75-1.16-.75-1.48-.21-3.28-.21-12.78-.21-19.01 0-5.07-.86-9.51-3-12.68-2.57-3.59-6.2-5.7-10.91-5.7-4.17 0-9.73 2.85-14.33 6.76-.11.1-.82.77-.8-.27.02-1.04.18-3.15.27-4.48.1-1.33-.7-1.96-.7-1.96-3 1.48-11.43 3.48-14.54 3.8-2.28.44-2.85 2.62-.43 3.38 2.42.76.02 0 .03.01 2.54.76 4.24 1.57 5.52 2.42.96.73.86 1.79.86 2.64.1 7.07.1 17.95-.22 23.86-.11 2.33-.75 3.17-2.46 3.59l.15-.05c-1.28.32-2.35.53-3.96.74-.54.53-.54 3.59 0 4.23 1.07 0 6.52-.32 11.01-.32 6.2 0 9.41.32 11.02.32.64-.74.86-3.6.43-4.23-1.81-.1-3.1-.32-4.38-.63-1.71-.42-2.14-1.26-2.24-3.16-.22-4.97-.22-15.53-.22-22.71 0-2.01.54-2.96 1.18-3.49 2.14-1.9 5.67-3.17 8.77-3.17 2.99 0 5.03.95 6.52 2.21 2.04 1.69 2.78 4.12 3 5.92.43 4.01.32 12.04.32 19.01 0 3.8-.32 4.75-1.71 5.17-.64.31-2.35.63-4.38.84-.64.63-.43 3.59 0 4.22 2.78 0 5.99-.32 10.69-.32 5.89 0 9.63.32 11.12.32.64-.74.86-3.49.43-4.23"/>
  <defs>
    <linearGradient id="b" x2="1" gradientUnits="userSpaceOnUse" gradientTransform="rotate(-161.4 3302.2 1320.9) scale(6604.4)">
      <stop offset="0%" stop-color="#929669"/>
      <stop offset="23%" stop-color="#929669"/>
      <stop offset="100%" stop-color="#fdfcf1"/>
    </linearGradient>
    <linearGradient id="d" x2="1" gradientUnits="userSpaceOnUse" gradientTransform="rotate(-104.5 4266.9 17541.7) scale(23705)">
      <stop offset="0%" stop-color="#45aa3a"/>
      <stop offset="100%" stop-color="#3d9439"/>
    </linearGradient>
    <linearGradient id="f" x2="1" gradientUnits="userSpaceOnUse" gradientTransform="matrix(42.3 -9.6 -9.6 -42.3 2180.7 6606.9)">
      <stop offset="0%" stop-color="#41a83b"/>
      <stop offset="100%" stop-color="#5ebc44"/>
    </linearGradient>
  </defs>
</svg>
