<svg xmlns="http://www.w3.org/2000/svg" id="Layer_1" viewBox="0 0 564.8 332">
  <style>
    .st0{fill:#606060;} .st1{fill:url(#SVGID_1_);} .st2{fill:url(#SVGID_2_);} .st3{fill:url(#SVGID_3_);} .st4{fill:url(#SVGID_4_);}
  </style>
  <path d="M0 325.2l4.4-5.3c4 3.5 8.1 5.4 13.2 5.4 4.5 0 7.4-2.2 7.4-5.3 0-3-1.7-4.6-9.5-6.4-8.9-2.2-13.9-4.8-13.9-12.5v-.1c0-7.2 6-12.1 14.3-12.1 6.1 0 10.9 1.9 15.2 5.3l-3.9 5.6c-3.8-2.8-7.5-4.3-11.4-4.3-4.3 0-6.8 2.2-6.8 5v.1c0 3.2 1.9 4.7 10 6.6 8.9 2.2 13.4 5.3 13.4 12.3v.1c0 7.8-6.2 12.5-15 12.5-6.3-.2-12.4-2.4-17.4-6.9zm58.7-11.6v-24.1H66v23.8c0 7.8 4 11.9 10.6 11.9 6.5 0 10.5-3.9 10.5-11.6v-24.1h7.4v23.8c0 12.5-7.1 18.8-18 18.8-10.9-.1-17.8-6.4-17.8-18.5zm64.9-24.2h16.5c9.8 0 15.9 5.6 15.9 14v.1c0 9.4-7.5 14.3-16.8 14.3h-8.3v13.5h-7.4v-41.9zm15.9 21.8c5.6 0 9-3.1 9-7.5v-.1c0-4.9-3.5-7.5-9-7.5h-8.6v15.1h8.6zm42.2-21.8h31.1v6.6H189v10.9h21v6.6h-21v11.3h24v6.6h-31.3v-42zm58.7 0h18.7c5.3 0 9.4 1.6 12.1 4.2 2.2 2.3 3.5 5.4 3.5 9v.1c0 6.9-4.1 11-9.9 12.7l11.3 15.9h-8.7L257 316.7h-9.2v14.6h-7.4v-41.9zm18.1 20.8c5.3 0 8.6-2.8 8.6-7v-.1c0-4.5-3.2-6.9-8.7-6.9h-10.7v14.1h10.8zm41 .3v-.1c0-11.7 9-21.7 21.6-21.7 7.3 0 11.8 2 16.1 5.7l-4.7 5.6c-3.2-2.8-6.4-4.5-11.7-4.5-7.7 0-13.6 6.8-13.6 14.8v.1c0 8.6 5.7 15 14.2 15 4 0 7.5-1.3 10.1-3.2v-7.8h-10.7V308h17.8v17.6c-4.1 3.5-10.1 6.5-17.5 6.5-13-.1-21.6-9.4-21.6-21.6zm68-21.1h7.4v41.9h-7.4v-41.9zm51-.3h6.8l18.4 42.2h-7.8l-4.2-10.1h-19.8l-4.3 10.1H400l18.5-42.2zm10.5 25.6l-7.2-16.8-7.2 16.8H429zm39.9-25.3h6.8l22.4 29v-29h7.2v41.9h-6.2L476 301.5v29.8h-7.2v-41.9zm75.2 6.9h-13.3v-6.8h34v6.8h-13.3v35.1h-7.4v-35.1z" class="st0"/>
  <radialGradient id="SVGID_1_" cx="223.052" cy="15.409" r="224.137" gradientUnits="userSpaceOnUse">
    <stop offset="0" stop-color="#E2007F"/>
    <stop offset=".145" stop-color="#DB0083"/>
    <stop offset=".347" stop-color="#C9008D"/>
    <stop offset=".585" stop-color="#AB009D"/>
    <stop offset=".846" stop-color="#8200B5"/>
    <stop offset="1" stop-color="#6600C4"/>
  </radialGradient>
  <path d="M393.1 103.1c-13.2 13.2-32.7 25.6-55.9 34.6-22 8.5-43.6 12.5-61.6 12.2-1 2.8-3.1 5.1-6.1 6.3-5.4 2.1-11.4-.6-13.5-6-.4-.9-.6-1.9-.7-2.9-12.1-3.2-20.7-9.2-24.1-18.1-9.2-23.8 23.4-58.6 72.7-77.7 22.7-8.8 45-12.7 63.4-12.1-2.8-3.3-5.8-6.4-8.9-9.3-17.8 2.2-37.3 7.1-57.1 14.7-30.2 11.7-55.5 27.6-72.4 44.3.2.3.3.6.4.9 1.3 3.3-.3 6.9-3.6 8.2-1.7.7-3.5.5-5-.2-12.6 15.2-17.9 30.5-13 43.1 11.2 28.8 71.2 32.5 134.1 8.1 19.4-7.5 36.7-16.8 51.2-26.8.5-6.4.6-12.8.1-19.3z" class="st1"/>
  <radialGradient id="SVGID_2_" cx="223.053" cy="15.406" r="224.14" gradientUnits="userSpaceOnUse">
    <stop offset="0" stop-color="#E2007F"/>
    <stop offset=".145" stop-color="#DB0083"/>
    <stop offset=".347" stop-color="#C9008D"/>
    <stop offset=".585" stop-color="#AB009D"/>
    <stop offset=".846" stop-color="#8200B5"/>
    <stop offset="1" stop-color="#6600C4"/>
  </radialGradient>
  <path d="M312.6 62.9c-21.4 8.3-38.5 19.9-46.8 30.5.7.7 1.3 1.6 1.7 2.6 1.5 3.9-.4 8.3-4.3 9.8-.9.4-1.9.5-2.8.5 0 1.2.2 2.4.7 3.5 5 12.9 36.2 12.9 69.7 0 33.5-13 56.5-33.9 51.5-46.9-5.1-12.9-36.3-12.9-69.7 0zm14.2 40.7c-9.4 3.6-20-1.1-23.6-10.4-3.6-9.4 1-20 10.4-23.6 9.4-3.6 20 1.1 23.6 10.4 3.6 9.3-1 19.9-10.4 23.6z" class="st2"/>
  <radialGradient id="SVGID_3_" cx="223.054" cy="15.406" r="224.134" gradientUnits="userSpaceOnUse">
    <stop offset="0" stop-color="#E2007F"/>
    <stop offset=".145" stop-color="#DB0083"/>
    <stop offset=".347" stop-color="#C9008D"/>
    <stop offset=".585" stop-color="#AB009D"/>
    <stop offset=".846" stop-color="#8200B5"/>
    <stop offset="1" stop-color="#6600C4"/>
  </radialGradient>
  <path d="M203.4 145.4c-5.6-14.5.4-32 14.9-49.3-.4-.5-.7-1-.9-1.6-1.3-3.3.4-6.9 3.6-8.2 2-.8 4.1-.5 5.8.6 17.5-17.1 43.1-33.3 73.4-45 19.1-7.4 37.9-12.2 55.3-14.5C325.4 1.1 282.1-8 242.3 7.4c-57.2 22.1-85.6 86.4-63.5 143.6 22.1 57.2 86.4 85.6 143.6 63.5 36.7-14.2 61.6-45.8 68.8-81.7-13.6 8.9-29.4 17.1-46.7 23.8-65.7 25.5-128.9 20.5-141.1-11.2z" class="st3"/>
  <radialGradient id="SVGID_4_" cx="223.047" cy="15.405" r="224.14" gradientUnits="userSpaceOnUse">
    <stop offset="0" stop-color="#E2007F"/>
    <stop offset=".145" stop-color="#DB0083"/>
    <stop offset=".347" stop-color="#C9008D"/>
    <stop offset=".585" stop-color="#AB009D"/>
    <stop offset=".846" stop-color="#8200B5"/>
    <stop offset="1" stop-color="#6600C4"/>
  </radialGradient>
  <path d="M304.9 54.3c-46.6 18-77.7 49.6-69.6 70.6 3 7.7 10.8 12.9 21.9 15.5 1.1-1.6 2.8-2.9 4.7-3.7 5.3-2 11.2.5 13.4 5.7 17.1.1 37.8-3.9 59-12.1 24.8-9.6 45.3-23.1 57.7-36.7-1-5.9-2.4-11.8-4.4-17.7-5.8 14.3-26.5 30.8-54.1 41.4-36.4 14.1-70.8 12.7-76.9-3.2-1.1-2.8-1.2-5.9-.5-9.1-1.2-.8-2.2-2-2.7-3.5-1.5-3.9.4-8.3 4.3-9.8 1.8-.7 3.8-.6 5.5 0 9.3-11.6 26.7-23.5 48.2-31.8 26.2-10.1 51.4-12.2 65.8-6.7-2.3-3.8-4.8-7.4-7.5-10.9-18.1-1.1-41.1 2.8-64.8 12z" class="st4"/>
</svg>
